<svg width="160" height="277" viewBox="0 0 160 277" fill="none" xmlns="http://www.w3.org/2000/svg">
<path d="M79.9998 -0.000488281C75.2204 -0.000488281 71.3477 3.87216 71.3477 8.65154V23.6836C42.5711 27.4057 19.7644 49.4389 15.1581 78.0027H8.65177C3.8724 78.0027 -0.000244141 81.8754 -0.000244141 86.6548V118.207C-0.000244141 122.986 3.8724 126.859 8.65177 126.859H14.4071C17.5305 153.481 26.7777 234.715 29.9773 262.886C30.8788 270.853 37.6222 276.863 45.6599 276.863H114.281C122.32 276.863 129.062 270.853 129.963 262.89C130.086 261.801 141.728 159.489 145.563 126.859H151.348C156.127 126.859 160 122.986 160 118.207V86.6548C160 81.8754 156.127 78.0027 151.348 78.0027H144.841C140.235 49.4389 117.428 27.4057 88.6518 23.6836V8.65154C88.6518 3.87216 84.7791 -0.000488281 79.9998 -0.000488281ZM136.953 95.3068C136.975 95.3068 136.998 95.3137 137.022 95.3137C137.12 95.3137 137.221 95.312 137.321 95.3085C137.325 95.3085 137.33 95.3068 137.333 95.3068H142.697V109.555H17.3038V95.3068H22.668C22.6732 95.3068 22.6767 95.3085 22.6802 95.3085C22.6888 95.3085 22.6975 95.3068 22.7061 95.3068H136.953ZM35.0439 154.67L124.854 155.255C122.055 179.559 118.586 209.938 116.082 231.884H43.8655C41.1764 208.266 37.7485 178.219 35.0439 154.67ZM47.0148 259.56C46.6757 256.581 46.2794 253.085 45.8364 249.187H114.111C113.552 254.099 113.14 257.714 112.929 259.56H47.0148ZM126.849 137.961L33.047 137.35C32.5884 133.384 32.1783 129.851 31.8288 126.859H128.14C127.766 130.06 127.331 133.805 126.849 137.961ZM127.235 78.0027H32.7649C37.5876 56.3329 56.8452 40.4149 79.9998 40.4149C103.154 40.4149 122.412 56.3329 127.235 78.0027Z" fill="black"/>
</svg>
