<svg width="147" height="147" viewBox="0 0 147 147" fill="none" xmlns="http://www.w3.org/2000/svg">
<mask id="path-1-inside-1_71_7170" fill="white">
<path d="M111.981 35.75C115.918 35.75 119.817 36.4342 123.454 37.7637C127.092 39.0931 130.397 41.0417 133.181 43.4982C135.965 45.9546 138.173 48.8709 139.68 52.0804C141.186 55.29 141.962 58.7299 141.962 62.2039C141.962 65.6779 141.186 69.1179 139.68 72.3274C138.173 75.5369 135.965 78.4532 133.181 80.9097C130.397 83.3661 127.092 85.3147 123.454 86.6442C119.817 87.9736 115.918 88.6578 111.981 88.6578L111.981 74.7215C113.844 74.7215 115.689 74.3977 117.41 73.7687C119.131 73.1396 120.695 72.2176 122.012 71.0552C123.33 69.8928 124.375 68.5129 125.088 66.9942C125.8 65.4755 126.167 63.8477 126.167 62.2039C126.167 60.5601 125.8 58.9323 125.088 57.4136C124.375 55.8949 123.33 54.515 122.012 53.3526C120.695 52.1903 119.131 51.2682 117.41 50.6391C115.689 50.0101 113.844 49.6863 111.981 49.6863L111.981 35.75Z"/>
</mask>
<path d="M111.981 35.75C115.918 35.75 119.817 36.4342 123.454 37.7637C127.092 39.0931 130.397 41.0417 133.181 43.4982C135.965 45.9546 138.173 48.8709 139.68 52.0804C141.186 55.29 141.962 58.7299 141.962 62.2039C141.962 65.6779 141.186 69.1179 139.68 72.3274C138.173 75.5369 135.965 78.4532 133.181 80.9097C130.397 83.3661 127.092 85.3147 123.454 86.6442C119.817 87.9736 115.918 88.6578 111.981 88.6578L111.981 74.7215C113.844 74.7215 115.689 74.3977 117.41 73.7687C119.131 73.1396 120.695 72.2176 122.012 71.0552C123.33 69.8928 124.375 68.5129 125.088 66.9942C125.8 65.4755 126.167 63.8477 126.167 62.2039C126.167 60.5601 125.8 58.9323 125.088 57.4136C124.375 55.8949 123.33 54.515 122.012 53.3526C120.695 52.1903 119.131 51.2682 117.41 50.6391C115.689 50.0101 113.844 49.6863 111.981 49.6863L111.981 35.75Z" fill="white" stroke="#382622" stroke-width="6.5" mask="url(#path-1-inside-1_71_7170)"/>
<path d="M17.2771 24.375H110.092C112.784 24.375 114.967 26.5576 114.967 29.25V96.0657C114.967 113.118 101.144 126.941 84.092 126.941H43.2771C26.2253 126.941 12.4021 113.118 12.4021 96.0657V29.25C12.4021 26.5576 14.5847 24.375 17.2771 24.375Z" fill="white" stroke="#382622" stroke-width="3.25"/>
<path d="M11.2811 123.136H119.615C120.944 123.136 122.021 124.214 122.021 125.542C122.021 130.211 118.237 133.995 113.569 133.995H17.3277C12.6594 133.995 8.875 130.211 8.875 125.542C8.875 124.214 9.95224 123.136 11.2811 123.136Z" fill="white" stroke="#382622" stroke-width="3.25"/>
<path d="M20.2499 97.5H108V97.5C108 108.27 99.2695 117 88.4999 117H39.7499C28.9804 117 20.2499 108.27 20.2499 97.5V97.5Z" fill="#572908"/>
<path d="M72.2499 97.5H108V97.5C108 108.27 99.2695 117 88.4999 117H72.2499V97.5Z" fill="#572908" fill-opacity="0.56" style="mix-blend-mode:multiply"/>
<path d="M20.2499 35.75H108V97.5H20.2499V35.75Z" fill="#75370A"/>
<path d="M72.2499 35.75H108V97.5H72.2499V35.75Z" fill="#75370A" fill-opacity="0.56" style="mix-blend-mode:multiply"/>
<path d="M24.8857 47.4413C24.8857 45.4933 26.4649 43.9141 28.4129 43.9141V43.9141C30.3609 43.9141 31.9401 45.4933 31.9401 47.4413V65.3545C31.9401 67.1494 30.485 68.6045 28.6901 68.6045H28.1357C26.3408 68.6045 24.8857 67.1494 24.8857 65.3545V47.4413Z" fill="white"/>
<path d="M31.9401 75.6588C31.9401 77.6069 30.3609 79.186 28.4129 79.186C26.4649 79.186 24.8857 77.6069 24.8857 75.6588C24.8857 73.7108 26.4649 72.1317 28.4129 72.1317C30.3609 72.1317 31.9401 73.7108 31.9401 75.6588Z" fill="white"/>
<rect width="10.1473" height="5.07368" rx="2.53684" transform="matrix(-0.921937 -0.38734 0.387335 -0.921939 67.8499 28.108)" fill="#382622"/>
<rect width="10.3932" height="5.19663" rx="2.59831" transform="matrix(0.951849 0.306566 -0.306562 0.951851 28.343 26.5543)" fill="#382622"/>
<rect width="10.6852" height="5.34261" rx="2.6713" transform="matrix(0.857417 -0.514622 0.514617 0.85742 37.3315 24.9988)" fill="#382622"/>
<rect width="10.1473" height="5.07368" rx="2.53684" transform="matrix(0.947896 0.31858 -0.318576 0.947897 49.5293 26.5543)" fill="#382622"/>
<rect width="10.3932" height="5.19663" rx="2.59831" transform="matrix(-0.926762 -0.375649 0.375644 -0.926764 88.9788 29.6642)" fill="#382622"/>
<rect width="10.3932" height="5.19663" rx="2.59831" transform="matrix(-0.954176 0.299246 -0.299242 -0.954177 105.238 31.5128)" fill="#382622"/>
<rect width="10.6852" height="5.34261" rx="2.6713" transform="matrix(-0.892899 0.450258 -0.450252 -0.892901 79.9003 30.5553)" fill="#382622"/>
<path fill-rule="evenodd" clip-rule="evenodd" d="M107.905 35.952L20.3174 35.952C21.1258 28.6396 27.3253 22.952 34.8532 22.952C35.7071 22.952 36.544 23.0252 37.3579 23.1657C40.0855 13.6587 48.8444 6.70203 59.2282 6.70203C69.2916 6.70203 77.8288 13.2361 80.829 22.2931C83.5328 20.6489 86.7074 19.702 90.1032 19.702C99.4275 19.702 107.084 26.8415 107.905 35.952Z" fill="#F8E8DE"/>
<path fill-rule="evenodd" clip-rule="evenodd" d="M107.905 35.952L72.301 35.952C73.122 26.8415 80.7788 19.702 90.1032 19.702C99.4275 19.702 107.084 26.8415 107.905 35.952Z" fill="#F3D9CA"/>
<rect width="10.1473" height="5.07368" rx="2.53684" transform="matrix(-0.921937 -0.38734 0.387335 -0.921939 52.4225 25.0601)" fill="#382622"/>
<rect width="10.1473" height="5.07368" rx="2.53684" transform="matrix(0.947896 0.31858 -0.318576 0.947897 34.9337 26.7564)" fill="#382622"/>
<rect width="10.3932" height="5.19663" rx="2.59831" transform="matrix(-0.926762 -0.375649 0.375644 -0.926764 72.1994 21.9223)" fill="#382622"/>
<rect width="10.3932" height="5.19663" rx="2.59831" transform="matrix(-0.954176 0.299246 -0.299242 -0.954177 90.6425 31.7148)" fill="#382622"/>
<rect width="10.6852" height="5.34261" rx="2.6713" transform="matrix(-0.892899 0.450258 -0.450252 -0.892901 68.0137 27.7225)" fill="#382622"/>
</svg>
