<svg width="117" height="195" viewBox="0 0 117 195" fill="none" xmlns="http://www.w3.org/2000/svg">
<path d="M16.6907 46.5765H97.7093C99.37 46.5765 100.446 46.5789 101.26 46.651C102.043 46.7203 102.325 46.8375 102.462 46.915C102.902 47.165 103.26 47.5382 103.492 47.989C103.563 48.1287 103.669 48.4154 103.706 49.2C103.744 50.0172 103.701 51.092 103.632 52.7513L98.1678 183.895C98.1036 185.436 98.0601 186.427 97.9641 187.179C97.8725 187.897 97.7572 188.16 97.6792 188.293C97.436 188.707 97.083 189.046 96.6592 189.271C96.5232 189.344 96.2552 189.448 95.5344 189.51C94.7793 189.574 93.7866 189.577 92.2449 189.577H22.1551C20.6134 189.577 19.6207 189.574 18.8656 189.51C18.1448 189.448 17.8768 189.344 17.7407 189.271C17.317 189.046 16.9639 188.707 16.7208 188.293C16.6428 188.16 16.5275 187.897 16.4359 187.179C16.3399 186.427 16.2964 185.436 16.2322 183.895L10.7679 52.7513C10.6987 51.092 10.6563 50.0172 10.6945 49.2C10.7311 48.4154 10.8365 48.1287 10.9082 47.989C11.1396 47.5382 11.4977 47.165 11.9384 46.915C12.075 46.8375 12.357 46.7203 13.1395 46.651C13.9544 46.5789 15.03 46.5765 16.6907 46.5765Z" fill="white" stroke="#382622" stroke-width="5.2"/>
<rect x="54.6" y="2.37646" width="10.4" height="46.8" rx="5.2" fill="#382622"/>
<rect x="54.6765" y="10.6401" width="10.4" height="31.9618" rx="5.2" transform="rotate(-90 54.6765 10.6401)" fill="#382622"/>
<path d="M4.0148 37.1321C4.72259 35.0087 6.70971 33.5765 8.94795 33.5765H105.452C107.69 33.5765 109.677 35.0087 110.385 37.1321L112.119 42.3321C113.241 45.6993 110.735 49.1765 107.185 49.1765H7.21462C3.66532 49.1765 1.15907 45.6993 2.28146 42.3321L4.0148 37.1321Z" fill="#382622"/>
<path d="M20.9419 62.5382C20.8642 59.6133 23.2141 57.2 26.1401 57.2H88.2599C91.1859 57.2 93.5358 59.6133 93.458 62.5382L90.9037 158.6H23.4963L20.9419 62.5382Z" fill="#D9B99D"/>
<path fill-rule="evenodd" clip-rule="evenodd" d="M65 158.6H90.9037L93.458 62.5382C93.5358 59.6133 91.1859 57.2 88.2599 57.2H65V158.6Z" fill="#CCA484"/>
<path d="M23.4 158.6H91L89.9729 177.088C89.8198 179.844 87.5407 182 84.7809 182H29.6191C26.8593 182 24.5802 179.844 24.4271 177.088L23.4 158.6Z" fill="#572908"/>
<path fill-rule="evenodd" clip-rule="evenodd" d="M65 182H84.7809C87.5407 182 89.8198 179.844 89.9729 177.088L91 158.6H65V182Z" fill="#371604"/>
<rect x="26" y="73.0822" width="7.8" height="60.5741" rx="3.9" transform="rotate(-2.07338 26 73.0822)" fill="white"/>
<circle cx="29.9" cy="66.3" r="3.9" fill="white"/>
<rect x="26" y="164.319" width="14.2937" height="14.2937" rx="2.6" transform="rotate(-24.5661 26 164.319)" fill="white" fill-opacity="0.7"/>
<rect x="51.5687" y="160.977" width="14.2937" height="14.2937" rx="2.6" transform="rotate(19.4886 51.5687 160.977)" fill="white" fill-opacity="0.7"/>
<rect x="67.6" y="165.98" width="14.2937" height="14.2937" rx="2.6" transform="rotate(-32.1391 67.6 165.98)" fill="white" fill-opacity="0.66"/>
<rect x="36.4" y="146.119" width="14.2937" height="14.2937" rx="2.6" transform="rotate(-24.5661 36.4 146.119)" fill="white" fill-opacity="0.7"/>
<rect x="61.9687" y="142.776" width="14.2937" height="14.2937" rx="2.6" transform="rotate(19.4886 61.9687 142.776)" fill="white" fill-opacity="0.7"/>
</svg>
