<svg width="44" height="46" viewBox="0 0 44 46" fill="none" xmlns="http://www.w3.org/2000/svg">
<g clip-path="url(#clip0_342_12704)">
<mask id="path-1-inside-1_342_12704" fill="white">
<path fill-rule="evenodd" clip-rule="evenodd" d="M42.2806 -1.0249H2.42285V0.635838C2.91752 5.58257 3.4037 10.5304 3.88988 15.4783C4.67771 23.4962 5.46557 31.5143 6.28964 39.5282C6.58006 42.3524 6.72527 43.7646 7.67341 44.6202C8.62155 45.4758 10.0438 45.4758 12.8883 45.4758H31.8152C34.6597 45.4758 36.0819 45.4758 37.0301 44.6202C37.9782 43.7646 38.1234 42.3524 38.4138 39.5282C39.2379 31.5143 40.0258 23.4962 40.8136 15.4783C41.2998 10.5304 41.786 5.58255 42.2806 0.635838V-1.0249Z"/>
</mask>
<path fill-rule="evenodd" clip-rule="evenodd" d="M42.2806 -1.0249H2.42285V0.635838C2.91752 5.58257 3.4037 10.5304 3.88988 15.4783C4.67771 23.4962 5.46557 31.5143 6.28964 39.5282C6.58006 42.3524 6.72527 43.7646 7.67341 44.6202C8.62155 45.4758 10.0438 45.4758 12.8883 45.4758H31.8152C34.6597 45.4758 36.0819 45.4758 37.0301 44.6202C37.9782 43.7646 38.1234 42.3524 38.4138 39.5282C39.2379 31.5143 40.0258 23.4962 40.8136 15.4783C41.2998 10.5304 41.786 5.58255 42.2806 0.635838V-1.0249Z" fill="#ECE8FF"/>
<path d="M2.42285 -1.0249V-2.68564H0.762111V-1.0249H2.42285ZM42.2806 -1.0249H43.9414V-2.68564H42.2806V-1.0249ZM2.42285 0.635838H0.762111V0.718669L0.770353 0.801088L2.42285 0.635838ZM3.88988 15.4783L5.54266 15.3159L3.88988 15.4783ZM6.28964 39.5282L7.94167 39.3583L6.28964 39.5282ZM7.67341 44.6202L6.56077 45.8531H6.56077L7.67341 44.6202ZM37.0301 44.6202L35.9174 43.3873L35.9174 43.3873L37.0301 44.6202ZM38.4138 39.5282L40.0659 39.6981V39.6981L38.4138 39.5282ZM40.8136 15.4783L42.4664 15.6407L40.8136 15.4783ZM42.2806 0.635838L43.9331 0.801088L43.9414 0.718669V0.635838H42.2806ZM2.42285 0.635838H42.2806V-2.68564H2.42285V0.635838ZM4.08359 0.635838V-1.0249H0.762111V0.635838H4.08359ZM0.770353 0.801088C1.26486 5.74616 1.75089 10.6926 2.2371 15.6407L5.54266 15.3159C5.0565 10.3682 4.57019 5.41898 4.07535 0.470588L0.770353 0.801088ZM2.2371 15.6407C3.02487 23.658 3.81309 31.6798 4.63761 39.6981L7.94167 39.3583C7.11804 31.3488 6.33056 23.3344 5.54266 15.3159L2.2371 15.6407ZM4.63761 39.6981C4.77828 41.066 4.89687 42.2509 5.11821 43.1925C5.35057 44.1809 5.73986 45.1123 6.56077 45.8531L8.78605 43.3873C8.65882 43.2725 8.50143 43.07 8.35155 42.4324C8.19065 41.7479 8.09143 40.8146 7.94167 39.3583L4.63761 39.6981ZM6.56077 45.8531C7.38213 46.5943 8.3496 46.8861 9.35737 47.016C10.3178 47.1398 11.5104 47.1366 12.8883 47.1366V43.8151C11.4217 43.8151 10.4809 43.8119 9.78205 43.7218C9.13055 43.6378 8.91283 43.5017 8.78605 43.3873L6.56077 45.8531ZM12.8883 47.1366H31.8152V43.8151H12.8883V47.1366ZM31.8152 47.1366C33.1931 47.1366 34.3857 47.1398 35.3461 47.016C36.3539 46.8861 37.3213 46.5943 38.1427 45.8531L35.9174 43.3873C35.7906 43.5017 35.5729 43.6378 34.9214 43.7218C34.2225 43.8119 33.2818 43.8151 31.8152 43.8151V47.1366ZM38.1427 45.8531C38.9636 45.1123 39.3529 44.1809 39.5853 43.1925C39.8066 42.2509 39.9252 41.066 40.0659 39.6981L36.7618 39.3583C36.612 40.8146 36.5128 41.7479 36.3519 42.4324C36.202 43.07 36.0447 43.2725 35.9174 43.3873L38.1427 45.8531ZM40.0659 39.6981C40.8904 31.6798 41.6786 23.6579 42.4664 15.6407L39.1608 15.3159C38.3729 23.3344 37.5854 31.3487 36.7618 39.3583L40.0659 39.6981ZM42.4664 15.6407C42.9526 10.6925 43.4386 5.74614 43.9331 0.801088L40.6281 0.470589C40.1333 5.41896 39.647 10.3682 39.1608 15.3159L42.4664 15.6407ZM40.6199 -1.0249V0.635838H43.9414V-1.0249H40.6199Z" fill="#CECCF1" mask="url(#path-1-inside-1_342_12704)"/>
<path fill-rule="evenodd" clip-rule="evenodd" d="M3.24707 8.93945C3.46197 11.119 3.67613 13.2986 3.8903 15.4782C4.67814 23.4961 5.46599 31.5142 6.29007 39.5281C6.58049 42.3524 6.7257 43.7645 7.67384 44.6201C8.62198 45.4757 10.0442 45.4757 12.8887 45.4757H31.8156C34.6601 45.4757 36.0824 45.4757 37.0305 44.6201C37.9786 43.7645 38.1238 42.3523 38.4143 39.5281C39.2383 31.5142 40.0262 23.4961 40.814 15.4782C41.0282 13.2986 41.2424 11.119 41.4573 8.93945H3.24707Z" fill="#A8594A"/>
<path opacity="0.6" fill-rule="evenodd" clip-rule="evenodd" d="M16.5391 8.93945H8.23535L11.8888 45.4741C12.2011 45.4757 12.5336 45.4757 12.8883 45.4757H20.1927L16.5391 8.93945Z" fill="#D37F53"/>
<path opacity="0.5" fill-rule="evenodd" clip-rule="evenodd" d="M7.40625 0.635742H15.71L16.5403 8.93945H8.23662L7.40625 0.635742Z" fill="white"/>
<path fill-rule="evenodd" clip-rule="evenodd" d="M31.1533 45.4757L34.807 8.93945H41.4499L38.1922 41.517C37.9868 43.0717 37.7228 43.9946 37.0296 44.6201C36.0815 45.4757 34.6593 45.4757 31.8148 45.4757H31.1533Z" fill="#843C3D"/>
<g opacity="0.06">
<path fill-rule="evenodd" clip-rule="evenodd" d="M42.281 0.635742H35.638L34.8076 8.93945H41.4572C41.7301 6.17132 42.0042 3.40336 42.281 0.635742Z" fill="black" style="mix-blend-mode:soft-light"/>
</g>
<g opacity="0.06">
<path fill-rule="evenodd" clip-rule="evenodd" d="M2.42285 0.635742H42.2806C42.2253 1.18931 42.17 1.74289 42.1149 2.29648H2.58861C2.53346 1.74289 2.47821 1.18931 2.42285 0.635742Z" fill="black" style="mix-blend-mode:soft-light"/>
</g>
</g>
<defs>
<clipPath id="clip0_342_12704">
<rect width="43.1793" height="44.84" fill="white" transform="translate(0.762695 0.635742)"/>
</clipPath>
</defs>
</svg>
