<svg width="85" height="100" viewBox="0 0 85 100" fill="none" xmlns="http://www.w3.org/2000/svg">
<path d="M76.5938 60.5826H9.3457C15.0952 49.289 16.82 36.9688 17.5592 32.3487C18.5859 25.9319 18.0726 11.1989 29.3661 4.62808C40.6597 -1.94272 52.5522 1.89025 57.0867 4.62808C60.2523 5.74033 67.1483 12.8416 69.407 32.3487C71.6657 51.8557 75.1393 59.2992 76.5938 60.5826Z" fill="#B97C7C" stroke="black" stroke-width="0.513344"/>
<path d="M35.0014 75.2564L36.0356 56.2037L49.7386 55.1453L51.5484 75.2564C53.4099 75.2564 67.7468 80.0891 69.3392 82.7431C39.7472 106.364 20.7813 80.5487 21.2984 80.0195C21.7121 79.5961 30.6061 76.6677 35.0014 75.2564Z" fill="#F3C5C5" stroke="black" stroke-width="0.517094"/>
<path d="M49.4803 54.0867C44.0198 56.9446 40.2282 59.0464 38.8799 58.3659L50.5145 66.5238L49.4803 54.0867Z" fill="#E77E7F"/>
<path d="M23.6151 37.102C23.0002 35.6234 22.6924 29.0275 22.6924 24.6268C24.3878 23.8585 28.8468 20.7851 33.1192 14.6384C37.0187 18.1386 48.4798 25.139 63.1282 25.139C63.2654 28.127 63.3968 34.5639 62.8253 36.408C62.0056 41.0551 60.6745 44.3192 60.2475 45.0233C44.2625 69.9489 30.8732 55.409 26.1768 45.0233C25.579 42.9989 24.2299 38.5806 23.6151 37.102Z" fill="#F6C4C5" stroke="black" stroke-width="0.517094"/>
<path d="M41.2063 44.2957C40.5858 44.5074 39.0518 45.266 38.3623 45.6188C41.6717 50.9112 45.2569 47.824 46.6358 45.6188L46.3773 45.3542C45.5154 45.0014 43.7078 44.2957 43.3717 44.2957C43.0355 44.2957 42.6499 44.825 42.4991 45.0896C42.3267 44.7368 41.8268 44.084 41.2063 44.2957Z" fill="#E77E7F"/>
<path d="M37.5869 45.0896C39.052 46.2363 43.0681 47.8416 47.4117 45.0896" stroke="black" stroke-width="0.517094"/>
<path d="M17.421 43.5019C14.1116 38.2095 17.9381 34.9459 20.265 33.9756C21.3854 34.8456 23.6778 37.0162 23.8847 38.7387C24.0804 40.3683 23.851 40.5043 23.6904 40.3546C24.2562 40.9549 24.6797 41.6542 24.9189 42.1788C23.7985 44.825 20.7304 48.7943 17.421 43.5019Z" fill="#F3C5C5"/>
<path d="M20.265 39.268C21.624 38.7622 22.8046 39.427 23.6637 40.3265M23.6637 40.3265C24.2429 40.9329 24.6759 41.646 24.9189 42.1788C23.7985 44.825 20.7304 48.7943 17.421 43.5019C14.1116 38.2095 17.9381 34.9459 20.265 33.9756C21.3854 34.8456 23.6778 37.0162 23.8847 38.7387C24.0915 40.4612 23.8235 40.5149 23.6637 40.3265Z" stroke="black" stroke-width="0.517094"/>
<path d="M69.1305 43.5313C72.4405 38.2226 68.6133 34.9489 66.286 33.9756C65.1654 34.8483 62.8725 37.0256 62.6657 38.7535C62.4699 40.3881 62.6993 40.5245 62.86 40.3743C62.2941 40.9764 61.8705 41.6779 61.6313 42.2042C62.7519 44.8585 65.8205 48.8401 69.1305 43.5313Z" fill="#F3C5C5"/>
<path d="M66.286 39.2843C64.9268 38.777 63.7459 39.4439 62.8867 40.3461M62.8867 40.3461C62.3074 40.9544 61.8743 41.6697 61.6313 42.2041C62.7519 44.8585 65.8205 48.8401 69.1305 43.5313C72.4405 38.2226 68.6133 34.9489 66.286 33.9756C65.1654 34.8483 62.8725 37.0256 62.6657 38.7535C62.4588 40.4813 62.7268 40.5351 62.8867 40.3461Z" stroke="black" stroke-width="0.517094"/>
<ellipse cx="34.2256" cy="34.5047" rx="2.06838" ry="2.11696" fill="black"/>
<ellipse cx="51.8067" cy="34.5047" rx="2.06838" ry="2.11696" fill="black"/>
<path d="M42.1988 36.3474L41.3355 40.498C41.2687 40.819 41.5138 41.1204 41.8418 41.1204H43.533" stroke="black" stroke-width="0.517094"/>
<path d="M49.9347 25.0808C53.3941 24.557 55.928 26.1721 56.7625 27.0452C57.3087 28.0928 56.6867 28.2092 56.3073 28.1365C56.2315 28.0637 55.7611 27.9182 54.4866 27.9182C53.2121 27.9182 50.1623 27.6272 48.7967 27.4817C47.7346 26.8997 46.4753 25.6046 49.9347 25.0808Z" fill="#B97C7C" stroke="black" stroke-width="0.517094"/>
<path d="M34.5467 25.0808C31.0873 24.557 28.5534 26.1721 27.7189 27.0452C27.1727 28.0928 27.7948 28.2092 28.1741 28.1365C28.25 28.0637 28.7203 27.9182 29.9949 27.9182C31.2694 27.9182 34.3191 27.6272 35.6847 27.4817C36.7468 26.8997 38.0062 25.6046 34.5467 25.0808Z" fill="#B97C7C" stroke="black" stroke-width="0.517094"/>
<path d="M21.7088 79.9563C7.3686 84.4681 0.742261 98.4015 1.00766 99.065H83.6794C76.1069 85.5297 69.3392 82.2122 65.2342 79.9563C59.9262 82.8226 51.5219 84.1584 47.9833 84.4681L44.135 88.8472L39.8886 84.4681C29.1665 83.8311 23.3012 81.1948 21.7088 79.9563Z" fill="white" stroke="black" stroke-width="0.517528"/>
</svg>
