<svg width="117" height="195" viewBox="0 0 117 195" fill="none" xmlns="http://www.w3.org/2000/svg">
<path d="M16.6908 46.5766H97.7093C99.37 46.5766 100.446 46.5789 101.261 46.6511C102.043 46.7203 102.325 46.8376 102.462 46.9151C102.902 47.165 103.26 47.5383 103.492 47.989C103.564 48.1287 103.669 48.4154 103.706 49.2001C103.744 50.0173 103.701 51.0921 103.632 52.7513L98.1678 183.895C98.1037 185.436 98.0601 186.427 97.9641 187.179C97.8725 187.897 97.7573 188.16 97.6792 188.293C97.4361 188.707 97.0831 189.046 96.6593 189.271C96.5233 189.344 96.2553 189.448 95.5345 189.51C94.7793 189.574 93.7867 189.577 92.245 189.577H22.1551C20.6134 189.577 19.6208 189.574 18.8656 189.51C18.1448 189.448 17.8768 189.344 17.7408 189.271C17.317 189.046 16.964 188.707 16.7209 188.293C16.6428 188.16 16.5276 187.897 16.436 187.179C16.34 186.427 16.2964 185.436 16.2323 183.895L10.7679 52.7513C10.6988 51.0921 10.6564 50.0173 10.6945 49.2001C10.7311 48.4154 10.8365 48.1287 10.9083 47.989C11.1397 47.5383 11.4977 47.165 11.9384 46.9151C12.075 46.8376 12.3571 46.7203 13.1396 46.6511C13.9544 46.5789 15.0301 46.5766 16.6908 46.5766Z" fill="white" stroke="#382622" stroke-width="5.2"/>
<rect x="54.6001" y="2.37659" width="10.4" height="46.8" rx="5.2" fill="#382622"/>
<rect x="54.6765" y="10.6401" width="10.4" height="31.9618" rx="5.2" transform="rotate(-90 54.6765 10.6401)" fill="#382622"/>
<path d="M4.0148 37.1322C4.72259 35.0088 6.70971 33.5765 8.94795 33.5765H105.452C107.69 33.5765 109.677 35.0088 110.385 37.1322L112.119 42.3322C113.241 45.6993 110.735 49.1765 107.185 49.1765H7.21462C3.66532 49.1765 1.15907 45.6993 2.28146 42.3322L4.0148 37.1322Z" fill="#382622"/>
<g filter="url(#filter0_dd_93_4278)">
<g filter="url(#filter1_di_93_4278)">
<g filter="url(#filter2_dd_93_4278)">
<path d="M20.942 62.5382C20.8642 59.6132 23.2141 57.2 26.1402 57.2H88.2599C91.186 57.2 93.5359 59.6132 93.4581 62.5382L90.9038 158.6H23.4963L20.942 62.5382Z" fill="#D9B99D"/>
</g>
<path fill-rule="evenodd" clip-rule="evenodd" d="M65 158.6H90.9037L93.458 62.5382C93.5358 59.6132 91.1859 57.2 88.2599 57.2H65V158.6Z" fill="#CCA484"/>
</g>
<g filter="url(#filter3_d_93_4278)">
<path d="M23.4001 158.6H91.0001L89.973 177.088C89.8199 179.844 87.5408 182 84.781 182H29.6193C26.8595 182 24.5804 179.844 24.4273 177.088L23.4001 158.6Z" fill="#572908"/>
<path fill-rule="evenodd" clip-rule="evenodd" d="M65.0002 182H84.7811C87.5409 182 89.82 179.844 89.9731 177.088L91.0003 158.6H65.0002V182Z" fill="#371604"/>
</g>
</g>
<rect x="26" y="73.0822" width="7.8" height="60.5741" rx="3.9" transform="rotate(-2.07338 26 73.0822)" fill="white"/>
<circle cx="29.9" cy="66.3" r="3.9" fill="white"/>
<rect x="26" y="164.319" width="14.2937" height="14.2937" rx="2.6" transform="rotate(-24.5661 26 164.319)" fill="white" fill-opacity="0.7"/>
<rect x="51.5686" y="160.976" width="14.2937" height="14.2937" rx="2.6" transform="rotate(19.4886 51.5686 160.976)" fill="white" fill-opacity="0.7"/>
<rect x="67.6001" y="165.98" width="14.2937" height="14.2937" rx="2.6" transform="rotate(-32.1391 67.6001 165.98)" fill="white" fill-opacity="0.66"/>
<rect x="36.3999" y="146.119" width="14.2937" height="14.2937" rx="2.6" transform="rotate(-24.5661 36.3999 146.119)" fill="white" fill-opacity="0.7"/>
<rect x="61.9688" y="142.776" width="14.2937" height="14.2937" rx="2.6" transform="rotate(19.4886 61.9688 142.776)" fill="white" fill-opacity="0.7"/>
<defs>
<filter id="filter0_dd_93_4278" x="16.9402" y="57.2" width="80.5198" height="132.8" filterUnits="userSpaceOnUse" color-interpolation-filters="sRGB">
<feFlood flood-opacity="0" result="BackgroundImageFix"/>
<feColorMatrix in="SourceAlpha" type="matrix" values="0 0 0 0 0 0 0 0 0 0 0 0 0 0 0 0 0 0 127 0" result="hardAlpha"/>
<feOffset dy="4"/>
<feGaussianBlur stdDeviation="2"/>
<feComposite in2="hardAlpha" operator="out"/>
<feColorMatrix type="matrix" values="0 0 0 0 0 0 0 0 0 0 0 0 0 0 0 0 0 0 0.25 0"/>
<feBlend mode="normal" in2="BackgroundImageFix" result="effect1_dropShadow_93_4278"/>
<feColorMatrix in="SourceAlpha" type="matrix" values="0 0 0 0 0 0 0 0 0 0 0 0 0 0 0 0 0 0 127 0" result="hardAlpha"/>
<feOffset dy="4"/>
<feGaussianBlur stdDeviation="2"/>
<feComposite in2="hardAlpha" operator="out"/>
<feColorMatrix type="matrix" values="0 0 0 0 0 0 0 0 0 0 0 0 0 0 0 0 0 0 0.25 0"/>
<feBlend mode="normal" in2="effect1_dropShadow_93_4278" result="effect2_dropShadow_93_4278"/>
<feBlend mode="normal" in="SourceGraphic" in2="effect2_dropShadow_93_4278" result="shape"/>
</filter>
<filter id="filter1_di_93_4278" x="16.9402" y="57.2" width="80.5198" height="109.4" filterUnits="userSpaceOnUse" color-interpolation-filters="sRGB">
<feFlood flood-opacity="0" result="BackgroundImageFix"/>
<feColorMatrix in="SourceAlpha" type="matrix" values="0 0 0 0 0 0 0 0 0 0 0 0 0 0 0 0 0 0 127 0" result="hardAlpha"/>
<feOffset dy="4"/>
<feGaussianBlur stdDeviation="2"/>
<feComposite in2="hardAlpha" operator="out"/>
<feColorMatrix type="matrix" values="0 0 0 0 0 0 0 0 0 0 0 0 0 0 0 0 0 0 0.25 0"/>
<feBlend mode="normal" in2="BackgroundImageFix" result="effect1_dropShadow_93_4278"/>
<feBlend mode="normal" in="SourceGraphic" in2="effect1_dropShadow_93_4278" result="shape"/>
<feColorMatrix in="SourceAlpha" type="matrix" values="0 0 0 0 0 0 0 0 0 0 0 0 0 0 0 0 0 0 127 0" result="hardAlpha"/>
<feOffset dy="4"/>
<feGaussianBlur stdDeviation="2"/>
<feComposite in2="hardAlpha" operator="arithmetic" k2="-1" k3="1"/>
<feColorMatrix type="matrix" values="0 0 0 0 0 0 0 0 0 0 0 0 0 0 0 0 0 0 0.25 0"/>
<feBlend mode="normal" in2="shape" result="effect2_innerShadow_93_4278"/>
</filter>
<filter id="filter2_dd_93_4278" x="16.9402" y="57.2" width="80.5198" height="109.4" filterUnits="userSpaceOnUse" color-interpolation-filters="sRGB">
<feFlood flood-opacity="0" result="BackgroundImageFix"/>
<feColorMatrix in="SourceAlpha" type="matrix" values="0 0 0 0 0 0 0 0 0 0 0 0 0 0 0 0 0 0 127 0" result="hardAlpha"/>
<feOffset dy="4"/>
<feGaussianBlur stdDeviation="2"/>
<feComposite in2="hardAlpha" operator="out"/>
<feColorMatrix type="matrix" values="0 0 0 0 0 0 0 0 0 0 0 0 0 0 0 0 0 0 0.25 0"/>
<feBlend mode="normal" in2="BackgroundImageFix" result="effect1_dropShadow_93_4278"/>
<feColorMatrix in="SourceAlpha" type="matrix" values="0 0 0 0 0 0 0 0 0 0 0 0 0 0 0 0 0 0 127 0" result="hardAlpha"/>
<feOffset dy="4"/>
<feGaussianBlur stdDeviation="2"/>
<feComposite in2="hardAlpha" operator="out"/>
<feColorMatrix type="matrix" values="0 0 0 0 0 0 0 0 0 0 0 0 0 0 0 0 0 0 0.25 0"/>
<feBlend mode="normal" in2="effect1_dropShadow_93_4278" result="effect2_dropShadow_93_4278"/>
<feBlend mode="normal" in="SourceGraphic" in2="effect2_dropShadow_93_4278" result="shape"/>
</filter>
<filter id="filter3_d_93_4278" x="19.4001" y="158.6" width="75.6001" height="31.4" filterUnits="userSpaceOnUse" color-interpolation-filters="sRGB">
<feFlood flood-opacity="0" result="BackgroundImageFix"/>
<feColorMatrix in="SourceAlpha" type="matrix" values="0 0 0 0 0 0 0 0 0 0 0 0 0 0 0 0 0 0 127 0" result="hardAlpha"/>
<feOffset dy="4"/>
<feGaussianBlur stdDeviation="2"/>
<feComposite in2="hardAlpha" operator="out"/>
<feColorMatrix type="matrix" values="0 0 0 0 0 0 0 0 0 0 0 0 0 0 0 0 0 0 0.25 0"/>
<feBlend mode="normal" in2="BackgroundImageFix" result="effect1_dropShadow_93_4278"/>
<feBlend mode="normal" in="SourceGraphic" in2="effect1_dropShadow_93_4278" result="shape"/>
</filter>
</defs>
</svg>
