<svg width="49" height="54" viewBox="0 0 49 54" fill="none" xmlns="http://www.w3.org/2000/svg">
<g clip-path="url(#clip0_342_12704)" filter="url(#filter0_d_342_12704)">
<mask id="path-1-inside-1_342_12704" fill="white">
<path fill-rule="evenodd" clip-rule="evenodd" d="M44.2806 -1.0249H4.42285V0.635838C4.91752 5.58257 5.4037 10.5304 5.88988 15.4783C6.67771 23.4962 7.46557 31.5143 8.28964 39.5282C8.58006 42.3524 8.72527 43.7646 9.67341 44.6202C10.6215 45.4758 12.0438 45.4758 14.8883 45.4758H33.8152C36.6597 45.4758 38.0819 45.4758 39.0301 44.6202C39.9782 43.7646 40.1234 42.3524 40.4138 39.5282C41.2379 31.5143 42.0258 23.4962 42.8136 15.4783C43.2998 10.5304 43.786 5.58255 44.2806 0.635838V-1.0249Z"/>
</mask>
<path fill-rule="evenodd" clip-rule="evenodd" d="M44.2806 -1.0249H4.42285V0.635838C4.91752 5.58257 5.4037 10.5304 5.88988 15.4783C6.67771 23.4962 7.46557 31.5143 8.28964 39.5282C8.58006 42.3524 8.72527 43.7646 9.67341 44.6202C10.6215 45.4758 12.0438 45.4758 14.8883 45.4758H33.8152C36.6597 45.4758 38.0819 45.4758 39.0301 44.6202C39.9782 43.7646 40.1234 42.3524 40.4138 39.5282C41.2379 31.5143 42.0258 23.4962 42.8136 15.4783C43.2998 10.5304 43.786 5.58255 44.2806 0.635838V-1.0249Z" fill="#ECE8FF"/>
<path d="M4.42285 -1.0249V-2.68564H2.76211V-1.0249H4.42285ZM44.2806 -1.0249H45.9414V-2.68564H44.2806V-1.0249ZM4.42285 0.635838H2.76211V0.718669L2.77035 0.801088L4.42285 0.635838ZM5.88988 15.4783L7.54266 15.3159L5.88988 15.4783ZM8.28964 39.5282L9.94167 39.3583L8.28964 39.5282ZM9.67341 44.6202L8.56077 45.8531H8.56077L9.67341 44.6202ZM39.0301 44.6202L37.9174 43.3873L37.9174 43.3873L39.0301 44.6202ZM40.4138 39.5282L42.0659 39.6981V39.6981L40.4138 39.5282ZM42.8136 15.4783L44.4664 15.6407L42.8136 15.4783ZM44.2806 0.635838L45.9331 0.801088L45.9414 0.718669V0.635838H44.2806ZM4.42285 0.635838H44.2806V-2.68564H4.42285V0.635838ZM6.08359 0.635838V-1.0249H2.76211V0.635838H6.08359ZM2.77035 0.801088C3.26486 5.74616 3.75089 10.6926 4.2371 15.6407L7.54266 15.3159C7.0565 10.3682 6.57019 5.41898 6.07535 0.470588L2.77035 0.801088ZM4.2371 15.6407C5.02487 23.658 5.81309 31.6798 6.63761 39.6981L9.94167 39.3583C9.11804 31.3488 8.33056 23.3344 7.54266 15.3159L4.2371 15.6407ZM6.63761 39.6981C6.77828 41.066 6.89687 42.2509 7.11821 43.1925C7.35057 44.1809 7.73986 45.1123 8.56077 45.8531L10.786 43.3873C10.6588 43.2725 10.5014 43.07 10.3516 42.4324C10.1907 41.7479 10.0914 40.8146 9.94167 39.3583L6.63761 39.6981ZM8.56077 45.8531C9.38213 46.5943 10.3496 46.8861 11.3574 47.016C12.3178 47.1398 13.5104 47.1366 14.8883 47.1366V43.8151C13.4217 43.8151 12.4809 43.8119 11.7821 43.7218C11.1306 43.6378 10.9128 43.5017 10.786 43.3873L8.56077 45.8531ZM14.8883 47.1366H33.8152V43.8151H14.8883V47.1366ZM33.8152 47.1366C35.1931 47.1366 36.3857 47.1398 37.3461 47.016C38.3539 46.8861 39.3213 46.5943 40.1427 45.8531L37.9174 43.3873C37.7906 43.5017 37.5729 43.6378 36.9214 43.7218C36.2225 43.8119 35.2818 43.8151 33.8152 43.8151V47.1366ZM40.1427 45.8531C40.9636 45.1123 41.3529 44.1809 41.5853 43.1925C41.8066 42.2509 41.9252 41.066 42.0659 39.6981L38.7618 39.3583C38.612 40.8146 38.5128 41.7479 38.3519 42.4324C38.202 43.07 38.0447 43.2725 37.9174 43.3873L40.1427 45.8531ZM42.0659 39.6981C42.8904 31.6798 43.6786 23.6579 44.4664 15.6407L41.1608 15.3159C40.3729 23.3344 39.5854 31.3487 38.7618 39.3583L42.0659 39.6981ZM44.4664 15.6407C44.9526 10.6925 45.4386 5.74614 45.9331 0.801088L42.6281 0.470589C42.1333 5.41896 41.647 10.3682 41.1608 15.3159L44.4664 15.6407ZM42.6199 -1.0249V0.635838H45.9414V-1.0249H42.6199Z" fill="#CECCF1" mask="url(#path-1-inside-1_342_12704)"/>
<path fill-rule="evenodd" clip-rule="evenodd" d="M5.24707 8.93945C5.46197 11.119 5.67613 13.2986 5.8903 15.4782C6.67814 23.4961 7.46599 31.5142 8.29007 39.5281C8.58049 42.3524 8.7257 43.7645 9.67384 44.6201C10.622 45.4757 12.0442 45.4757 14.8887 45.4757H33.8156C36.6601 45.4757 38.0824 45.4757 39.0305 44.6201C39.9786 43.7645 40.1238 42.3523 40.4143 39.5281C41.2383 31.5142 42.0262 23.4961 42.814 15.4782C43.0282 13.2986 43.2424 11.119 43.4573 8.93945H5.24707Z" fill="#A8594A"/>
<path opacity="0.6" fill-rule="evenodd" clip-rule="evenodd" d="M18.5391 8.93945H10.2354L13.8888 45.4741C14.2011 45.4757 14.5336 45.4757 14.8883 45.4757H22.1927L18.5391 8.93945Z" fill="#D37F53"/>
<path opacity="0.5" fill-rule="evenodd" clip-rule="evenodd" d="M9.40625 0.635742H17.71L18.5403 8.93945H10.2366L9.40625 0.635742Z" fill="white"/>
<path fill-rule="evenodd" clip-rule="evenodd" d="M33.1533 45.4757L36.807 8.93945H43.4499L40.1922 41.517C39.9868 43.0717 39.7228 43.9946 39.0296 44.6201C38.0815 45.4757 36.6593 45.4757 33.8148 45.4757H33.1533Z" fill="#843C3D"/>
<g opacity="0.06">
<path fill-rule="evenodd" clip-rule="evenodd" d="M44.281 0.635742H37.638L36.8076 8.93945H43.4572C43.7301 6.17132 44.0042 3.40336 44.281 0.635742Z" fill="black" style="mix-blend-mode:soft-light"/>
</g>
<g opacity="0.06">
<path fill-rule="evenodd" clip-rule="evenodd" d="M4.42285 0.635742H44.2806C44.2253 1.18931 44.17 1.74289 44.1149 2.29648H4.58861C4.53346 1.74289 4.47821 1.18931 4.42285 0.635742Z" fill="black" style="mix-blend-mode:soft-light"/>
</g>
</g>
<defs>
<filter id="filter0_d_342_12704" x="-1.2373" y="0.635742" width="51.1797" height="52.8398" filterUnits="userSpaceOnUse" color-interpolation-filters="sRGB">
<feFlood flood-opacity="0" result="BackgroundImageFix"/>
<feColorMatrix in="SourceAlpha" type="matrix" values="0 0 0 0 0 0 0 0 0 0 0 0 0 0 0 0 0 0 127 0" result="hardAlpha"/>
<feOffset dy="4"/>
<feGaussianBlur stdDeviation="2"/>
<feComposite in2="hardAlpha" operator="out"/>
<feColorMatrix type="matrix" values="0 0 0 0 0 0 0 0 0 0 0 0 0 0 0 0 0 0 0.25 0"/>
<feBlend mode="normal" in2="BackgroundImageFix" result="effect1_dropShadow_342_12704"/>
<feBlend mode="normal" in="SourceGraphic" in2="effect1_dropShadow_342_12704" result="shape"/>
</filter>
<clipPath id="clip0_342_12704">
<rect width="43.1793" height="44.84" fill="white" transform="translate(2.7627 0.635742)"/>
</clipPath>
</defs>
</svg>
