<svg width="63" height="56" viewBox="0 0 63 56" fill="none" xmlns="http://www.w3.org/2000/svg">
<path fill-rule="evenodd" clip-rule="evenodd" d="M10.2802 44.3186C10.361 44.7034 10.1146 45.0807 9.72987 45.1615C7.12731 45.7079 5.06075 46.3605 3.66243 47.0677C2.96218 47.4218 2.46533 47.772 2.15232 48.1003C1.84228 48.4254 1.7537 48.6828 1.7537 48.8774C1.7537 49.0646 1.83533 49.3088 2.11662 49.6163C2.40152 49.9277 2.85564 50.2623 3.50029 50.6032C4.78825 51.2844 6.69878 51.9195 9.11969 52.461C13.95 53.5415 20.6576 54.216 28.0907 54.216C35.5238 54.216 42.2315 53.5415 47.0617 52.461C49.4826 51.9195 51.3932 51.2844 52.6811 50.6032C53.3258 50.2623 53.7799 49.9277 54.0648 49.6163C54.3461 49.3088 54.4277 49.0646 54.4277 48.8774C54.4277 48.6828 54.3391 48.4254 54.0291 48.1003C53.7161 47.772 53.2192 47.4218 52.519 47.0677C51.1207 46.3605 49.0541 45.7079 46.4515 45.1615C46.0668 45.0807 45.8204 44.7034 45.9012 44.3186C45.9819 43.9339 46.3593 43.6875 46.744 43.7683C49.399 44.3257 51.6033 45.0092 53.1615 45.7973C53.9395 46.1908 54.5923 46.628 55.0594 47.1178C55.5294 47.6107 55.8513 48.2019 55.8513 48.8774C55.8513 49.5255 55.5545 50.0969 55.1152 50.5772C54.6795 51.0535 54.0708 51.4788 53.3467 51.8617C51.8971 52.6283 49.8465 53.2969 47.3725 53.8503C42.413 54.9596 35.5962 55.6396 28.0907 55.6396C20.5852 55.6396 13.7684 54.9596 8.80892 53.8503C6.33495 53.2969 4.28427 52.6283 2.83475 51.8617C2.11065 51.4788 1.50196 51.0535 1.06623 50.5772C0.626888 50.0969 0.330078 49.5255 0.330078 48.8774C0.330078 48.2019 0.652019 47.6107 1.12206 47.1178C1.58913 46.628 2.24193 46.1908 3.01992 45.7973C4.57808 45.0092 6.78238 44.3257 9.43737 43.7683C9.82211 43.6875 10.1995 43.9339 10.2802 44.3186Z" fill="#AC7349"/>
<path fill-rule="evenodd" clip-rule="evenodd" d="M49.0961 39.0666C48.8983 38.7425 48.8382 38.3528 48.9291 37.9842C49.1364 37.143 49.2788 36.2678 49.3607 35.3751C49.3992 34.9554 49.6217 34.5744 49.9682 34.3345C50.3147 34.0947 50.7497 34.0207 51.1561 34.1325C51.5163 34.2317 51.8971 34.285 52.2927 34.285C54.6514 34.285 56.5635 32.3729 56.5635 30.0142C56.5635 27.6554 54.6514 25.7433 52.2927 25.7433C51.9218 25.7433 51.5639 25.7903 51.2239 25.8778C50.7977 25.9875 50.3446 25.8939 49.9968 25.6242C49.649 25.3546 49.4454 24.9392 49.4454 24.4991V21.5906C49.4454 20.8952 49.9477 20.3016 50.6335 20.1866C51.174 20.0959 51.7284 20.0488 52.2927 20.0488C57.7964 20.0488 62.258 24.5105 62.258 30.0142C62.258 35.5179 57.7964 39.9795 52.2927 39.9795C51.499 39.9795 50.7252 39.8865 49.9823 39.71C49.613 39.6223 49.2939 39.3906 49.0961 39.0666ZM52.1893 35.7077C51.7015 35.6991 51.2288 35.6291 50.7784 35.5051C50.7345 35.9832 50.6743 36.4585 50.5969 36.9287C50.5354 37.3021 50.4631 37.6723 50.3794 38.0382C50.3575 38.1341 50.3348 38.2297 50.3113 38.3249C50.7693 38.4337 51.2415 38.5056 51.7247 38.5373C51.9124 38.5497 52.1018 38.5559 52.2927 38.5559C57.0101 38.5559 60.8344 34.7317 60.8344 30.0142C60.8344 25.2967 57.0101 21.4725 52.2927 21.4725C51.8076 21.4725 51.332 21.5129 50.869 21.5906V24.4991C51.324 24.382 51.8011 24.3197 52.2927 24.3197C55.4376 24.3197 57.9871 26.8692 57.9871 30.0142C57.9871 33.1592 55.4376 35.7087 52.2927 35.7087C52.2581 35.7087 52.2237 35.7084 52.1893 35.7077Z" fill="#AC7349"/>
<path fill-rule="evenodd" clip-rule="evenodd" d="M6.02431 15.0662C6.41743 15.0662 6.73612 15.3849 6.73612 15.778V33.5795C6.73612 38.5479 8.4545 43.3577 12.7599 45.6415C16.2799 47.5088 21.3515 49.2331 28.0905 49.2331C34.8294 49.2331 39.901 47.5088 43.421 45.6415C47.7264 43.3577 49.4448 38.5479 49.4448 33.5795V15.778C49.4448 15.3849 49.7635 15.0662 50.1566 15.0662C50.5497 15.0662 50.8684 15.3849 50.8684 15.778V33.5795C50.8684 38.8044 49.0572 44.2633 44.0882 46.8992C40.3821 48.8651 35.0831 50.6567 28.0905 50.6567C21.0978 50.6567 15.7988 48.8651 12.0927 46.8992C7.12371 44.2633 5.3125 38.8044 5.3125 33.5795V15.778C5.3125 15.3849 5.63119 15.0662 6.02431 15.0662Z" fill="#AC7349"/>
<path fill-rule="evenodd" clip-rule="evenodd" d="M8.16016 19.1655V33.88C8.16016 37.7027 9.42511 41.5164 12.6503 43.5684C15.9193 45.6483 21.0178 47.8094 28.0909 47.8094C35.1639 47.8094 40.2624 45.6483 43.5314 43.5684C46.7566 41.5164 48.0216 37.7027 48.0216 33.88V19.1655C44.9367 20.0986 37.1764 20.7606 28.0909 20.7606C19.0053 20.7606 11.245 20.0986 8.16016 19.1655Z" fill="#75370A"/>
<path d="M43.531 43.5684C46.7563 41.5164 48.0212 37.7027 48.0212 33.88V19.1655C46.358 19.6686 43.3358 20.0929 39.4795 20.3771V45.6617C41.0526 45.016 42.4011 44.2873 43.531 43.5684Z" fill="#572908"/>
<path d="M12.6503 43.5684C9.42506 41.5164 8.16011 37.7027 8.16011 33.88V19.1655C9.50237 19.5715 11.7298 19.9262 14.5664 20.1973V44.6719C13.8694 44.3099 13.231 43.9379 12.6503 43.5684Z" fill="#8E4917"/>
<path fill-rule="evenodd" clip-rule="evenodd" d="M43.3552 18.598C39.4208 19.057 34.0245 19.3372 28.0905 19.3372C22.1564 19.3372 16.7601 19.057 12.8257 18.598C10.868 18.3696 9.22042 18.0912 8.03571 17.7644C7.45443 17.6041 6.90189 17.4103 6.46486 17.1611C6.24667 17.0367 5.98945 16.8608 5.77258 16.6117C5.54769 16.3534 5.3125 15.9494 5.3125 15.4223C5.3125 14.8951 5.54769 14.4912 5.77258 14.2329C5.98945 13.9837 6.24667 13.8079 6.46486 13.6835C6.90189 13.4343 7.45443 13.2405 8.03571 13.0802C9.22042 12.7534 10.868 12.475 12.8257 12.2466C16.7601 11.7876 22.1564 11.5073 28.0905 11.5073C34.0245 11.5073 39.4208 11.7876 43.3552 12.2466C45.3129 12.475 46.9605 12.7534 48.1452 13.0802C48.7265 13.2405 49.279 13.4343 49.716 13.6835C49.9342 13.8079 50.1915 13.9837 50.4083 14.2329C50.6332 14.4912 50.8684 14.8951 50.8684 15.4223C50.8684 15.9494 50.6332 16.3534 50.4083 16.6117C50.1915 16.8608 49.9342 17.0367 49.716 17.1611C49.279 17.4103 48.7265 17.6041 48.1452 17.7644C46.9605 18.0912 45.3129 18.3696 43.3552 18.598ZM28.0905 17.9136C39.8841 17.9136 49.4448 16.7982 49.4448 15.4223C49.4448 14.0464 39.8841 12.9309 28.0905 12.9309C16.2968 12.9309 6.73612 14.0464 6.73612 15.4223C6.73612 16.7982 16.2968 17.9136 28.0905 17.9136Z" fill="#AC7349"/>
<path fill-rule="evenodd" clip-rule="evenodd" d="M11.0077 21.4724C11.4008 21.4724 11.7195 21.7911 11.7195 22.1842V26.4551C11.7195 26.8482 11.4008 27.1669 11.0077 27.1669C10.6146 27.1669 10.2959 26.8482 10.2959 26.4551V22.1842C10.2959 21.7911 10.6146 21.4724 11.0077 21.4724Z" fill="white"/>
<path d="M6.73633 10.7391C6.73633 7.48036 9.40228 4.83859 12.6909 4.83859C13.2574 4.83859 13.8054 4.91698 14.3245 5.0634C15.3705 2.18009 18.1544 0.118164 21.4243 0.118164C24.532 0.118164 27.2007 1.98061 28.3558 4.64056C29.1403 4.26338 30.021 4.05186 30.9516 4.05186C33.5525 4.05186 35.764 5.70431 36.5751 8.00755C37.6704 8.11222 38.6572 8.58441 39.4085 9.29817C40.3229 8.48218 41.5333 7.98555 42.8607 7.98555C45.7109 7.98555 48.0214 10.2751 48.0214 13.0993C48.0214 13.7963 47.8807 14.4607 47.6259 15.0662C47.6259 15.0662 45.7571 17.2016 28.1342 17.2016C10.5113 17.2016 8.64253 15.0662 8.64253 15.0662C7.47007 13.9886 6.73633 12.4488 6.73633 10.7391Z" fill="white"/>
<path d="M20.2613 4.3892C20.2613 5.17544 19.6239 5.81282 18.8377 5.81282C18.0514 5.81282 17.4141 5.17544 17.4141 4.3892C17.4141 3.60295 18.0514 2.96558 18.8377 2.96558C19.6239 2.96558 20.2613 3.60295 20.2613 4.3892Z" fill="#FFE7CB"/>
<path d="M15.9908 7.94828C15.9908 8.73452 15.3534 9.3719 14.5672 9.3719C13.7809 9.3719 13.1436 8.73452 13.1436 7.94828C13.1436 7.16204 13.7809 6.52466 14.5672 6.52466C15.3534 6.52466 15.9908 7.16204 15.9908 7.94828Z" fill="#FFE7CB"/>
<path d="M20.9733 13.9986C20.9733 14.5883 20.4953 15.0663 19.9056 15.0663C19.3159 15.0663 18.8379 14.5883 18.8379 13.9986C18.8379 13.4089 19.3159 12.9309 19.9056 12.9309C20.4953 12.9309 20.9733 13.4089 20.9733 13.9986Z" fill="#FFE7CB"/>
<path d="M26.6677 7.59237C26.6677 8.18206 26.1896 8.66009 25.5999 8.66009C25.0103 8.66009 24.5322 8.18206 24.5322 7.59237C24.5322 7.00269 25.0103 6.52466 25.5999 6.52466C26.1896 6.52466 26.6677 7.00269 26.6677 7.59237Z" fill="#FFE7CB"/>
<path d="M35.2087 13.9986C35.2087 14.5883 34.7306 15.0663 34.141 15.0663C33.5513 15.0663 33.0732 14.5883 33.0732 13.9986C33.0732 13.4089 33.5513 12.9309 34.141 12.9309C34.7306 12.9309 35.2087 13.4089 35.2087 13.9986Z" fill="#FFE7CB"/>
<path d="M31.65 14.3545C31.65 15.1408 31.0126 15.7782 30.2264 15.7782C29.4401 15.7782 28.8027 15.1408 28.8027 14.3545C28.8027 13.5683 29.4401 12.9309 30.2264 12.9309C31.0126 12.9309 31.65 13.5683 31.65 14.3545Z" fill="#FFE7CB"/>
<path d="M38.7681 12.219C38.7681 13.0053 38.1308 13.6427 37.3445 13.6427C36.5583 13.6427 35.9209 13.0053 35.9209 12.219C35.9209 11.4328 36.5583 10.7954 37.3445 10.7954C38.1308 10.7954 38.7681 11.4328 38.7681 12.219Z" fill="#FFE7CB"/>
<path d="M11.7193 10.0838C11.7193 10.87 11.0819 11.5074 10.2957 11.5074C9.50945 11.5074 8.87207 10.87 8.87207 10.0838C8.87207 9.29753 9.50945 8.66016 10.2957 8.66016C11.0819 8.66016 11.7193 9.29753 11.7193 10.0838Z" fill="#FFE7CB"/>
<path d="M25.2437 4.3892C25.2437 5.17544 24.6064 5.81282 23.8201 5.81282C23.0339 5.81282 22.3965 5.17544 22.3965 4.3892C22.3965 3.60295 23.0339 2.96558 23.8201 2.96558C24.6064 2.96558 25.2437 3.60295 25.2437 4.3892Z" fill="#FFE7CB"/>
<path d="M26.6675 13.2869C26.6675 14.2697 25.8707 15.0664 24.8879 15.0664C23.9051 15.0664 23.1084 14.2697 23.1084 13.2869C23.1084 12.304 23.9051 11.5073 24.8879 11.5073C25.8707 11.5073 26.6675 12.304 26.6675 13.2869Z" fill="#FFE7CB"/>
<path d="M23.1088 9.37176C23.1088 10.5511 22.1527 11.5072 20.9733 11.5072C19.794 11.5072 18.8379 10.5511 18.8379 9.37176C18.8379 8.19239 19.794 7.23633 20.9733 7.23633C22.1527 7.23633 23.1088 8.19239 23.1088 9.37176Z" fill="#FFE7CB"/>
<path d="M16.7015 12.9308C16.7015 14.1102 15.7455 15.0663 14.5661 15.0663C13.3867 15.0663 12.4307 14.1102 12.4307 12.9308C12.4307 11.7515 13.3867 10.7954 14.5661 10.7954C15.7455 10.7954 16.7015 11.7515 16.7015 12.9308Z" fill="#FFE7CB"/>
<path d="M33.7854 9.016C33.7854 10.3919 32.67 11.5073 31.2941 11.5073C29.9181 11.5073 28.8027 10.3919 28.8027 9.016C28.8027 7.64007 29.9181 6.52466 31.2941 6.52466C32.67 6.52466 33.7854 7.64007 33.7854 9.016Z" fill="#FFE7CB"/>
<path d="M45.1742 12.2192C45.1742 13.3985 44.2181 14.3546 43.0388 14.3546C41.8594 14.3546 40.9033 13.3985 40.9033 12.2192C40.9033 11.0398 41.8594 10.0837 43.0388 10.0837C44.2181 10.0837 45.1742 11.0398 45.1742 12.2192Z" fill="#FFE7CB"/>
<path d="M40.1918 39.5266C40.1918 40.0984 39.7283 40.5619 39.1565 40.5619C38.5846 40.5619 38.1211 40.0984 38.1211 39.5266C38.1211 38.9548 38.5846 38.4912 39.1565 38.4912C39.7283 38.4912 40.1918 38.9548 40.1918 39.5266Z" fill="#572908"/>
<path d="M37.0854 37.4558C37.0854 38.0276 36.6218 38.4911 36.05 38.4911C35.4782 38.4911 35.0146 38.0276 35.0146 37.4558C35.0146 36.884 35.4782 36.4204 36.05 36.4204C36.6218 36.4204 37.0854 36.884 37.0854 37.4558Z" fill="#572908"/>
<path d="M35.144 34.6088C35.144 35.1807 34.6804 35.6442 34.1086 35.6442C33.5368 35.6442 33.0732 35.1807 33.0732 34.6088C33.0732 34.037 33.5368 33.5735 34.1086 33.5735C34.6804 33.5735 35.144 34.037 35.144 34.6088Z" fill="#572908"/>
<path d="M32.4261 38.0382C32.4261 38.4671 32.0784 38.8148 31.6496 38.8148C31.2207 38.8148 30.873 38.4671 30.873 38.0382C30.873 37.6094 31.2207 37.2617 31.6496 37.2617C32.0784 37.2617 32.4261 37.6094 32.4261 38.0382Z" fill="#572908"/>
<path d="M31.0677 35.0617C31.0677 35.4905 30.72 35.8382 30.2912 35.8382C29.8623 35.8382 29.5146 35.4905 29.5146 35.0617C29.5146 34.6328 29.8623 34.2852 30.2912 34.2852C30.72 34.2852 31.0677 34.6328 31.0677 35.0617Z" fill="#572908"/>
<path d="M28.9319 39.3324C28.9319 39.7613 28.5843 40.109 28.1554 40.109C27.7266 40.109 27.3789 39.7613 27.3789 39.3324C27.3789 38.9036 27.7266 38.5559 28.1554 38.5559C28.5843 38.5559 28.9319 38.9036 28.9319 39.3324Z" fill="#572908"/>
<path d="M28.9319 44.3151C28.9319 44.744 28.5843 45.0916 28.1554 45.0916C27.7266 45.0916 27.3789 44.744 27.3789 44.3151C27.3789 43.8862 27.7266 43.5386 28.1554 43.5386C28.5843 43.5386 28.9319 43.8862 28.9319 44.3151Z" fill="#572908"/>
<path d="M32.9438 44.7036C32.9438 45.2754 32.4802 45.7389 31.9084 45.7389C31.3366 45.7389 30.873 45.2754 30.873 44.7036C30.873 44.1318 31.3366 43.6682 31.9084 43.6682C32.4802 43.6682 32.9438 44.1318 32.9438 44.7036Z" fill="#572908"/>
<path d="M31.0677 41.1442C31.0677 41.5731 30.72 41.9207 30.2912 41.9207C29.8623 41.9207 29.5146 41.5731 29.5146 41.1442C29.5146 40.7153 29.8623 40.3677 30.2912 40.3677C30.72 40.3677 31.0677 40.7153 31.0677 41.1442Z" fill="#572908"/>
<path d="M36.0503 41.3386C36.0503 42.0534 35.4709 42.6328 34.7561 42.6328C34.0413 42.6328 33.4619 42.0534 33.4619 41.3386C33.4619 40.6239 34.0413 40.0444 34.7561 40.0444C35.4709 40.0444 36.0503 40.6239 36.0503 41.3386Z" fill="#572908"/>
<path d="M40.6441 34.1555C40.6441 34.8703 40.0646 35.4497 39.3499 35.4497C38.6351 35.4497 38.0557 34.8703 38.0557 34.1555C38.0557 33.4408 38.6351 32.8613 39.3499 32.8613C40.0646 32.8613 40.6441 33.4408 40.6441 34.1555Z" fill="#572908"/>
<path d="M39.1557 43.1504C39.1557 43.7222 38.6921 44.1857 38.1203 44.1857C37.5485 44.1857 37.085 43.7222 37.085 43.1504C37.085 42.5785 37.5485 42.115 38.1203 42.115C38.6921 42.115 39.1557 42.5785 39.1557 43.1504Z" fill="#572908"/>
</svg>
