<svg width="147" height="147" viewBox="0 0 147 147" fill="none" xmlns="http://www.w3.org/2000/svg">
<path d="M13.25 24.577H107.5C110.192 24.577 112.375 26.7596 112.375 29.452V94.452C112.375 111.504 98.5518 125.327 81.5 125.327H39.25C22.1982 125.327 8.375 111.504 8.375 94.452V29.452C8.375 26.7596 10.5576 24.577 13.25 24.577Z" fill="white" stroke="#382622" stroke-width="3.25"/>
<path d="M5.2298 120.968H118.167C117.37 127.095 112.132 131.827 105.788 131.827H17.6088C11.2649 131.827 6.02623 127.095 5.2298 120.968Z" fill="white" stroke="#382622" stroke-width="3.25"/>
<mask id="path-3-inside-1_93_4367" fill="white">
<path d="M111.079 34.6907C115.016 34.6907 118.914 35.3749 122.552 36.7043C126.189 38.0338 129.494 39.9824 132.278 42.4388C135.062 44.8953 137.271 47.8116 138.777 51.0211C140.284 54.2306 141.059 57.6706 141.059 61.1446C141.059 64.6186 140.284 68.0585 138.777 71.2681C137.271 74.4776 135.062 77.3939 132.278 79.8503C129.494 82.3068 126.189 84.2554 122.552 85.5848C118.914 86.9143 115.016 87.5985 111.079 87.5985L111.079 73.6622C112.942 73.6622 114.786 73.3384 116.508 72.7093C118.229 72.0803 119.793 71.1582 121.11 69.9959C122.427 68.8335 123.472 67.4536 124.185 65.9349C124.898 64.4162 125.265 62.7884 125.265 61.1446C125.265 59.5007 124.898 57.873 124.185 56.3543C123.472 54.8356 122.427 53.4557 121.11 52.2933C119.793 51.1309 118.229 50.2089 116.508 49.5798C114.786 48.9507 112.942 48.627 111.079 48.627L111.079 34.6907Z"/>
</mask>
<path d="M111.079 34.6907C115.016 34.6907 118.914 35.3749 122.552 36.7043C126.189 38.0338 129.494 39.9824 132.278 42.4388C135.062 44.8953 137.271 47.8116 138.777 51.0211C140.284 54.2306 141.059 57.6706 141.059 61.1446C141.059 64.6186 140.284 68.0585 138.777 71.2681C137.271 74.4776 135.062 77.3939 132.278 79.8503C129.494 82.3068 126.189 84.2554 122.552 85.5848C118.914 86.9143 115.016 87.5985 111.079 87.5985L111.079 73.6622C112.942 73.6622 114.786 73.3384 116.508 72.7093C118.229 72.0803 119.793 71.1582 121.11 69.9959C122.427 68.8335 123.472 67.4536 124.185 65.9349C124.898 64.4162 125.265 62.7884 125.265 61.1446C125.265 59.5007 124.898 57.873 124.185 56.3543C123.472 54.8356 122.427 53.4557 121.11 52.2933C119.793 51.1309 118.229 50.2089 116.508 49.5798C114.786 48.9507 112.942 48.627 111.079 48.627L111.079 34.6907Z" fill="white" stroke="#382622" stroke-width="6.5" mask="url(#path-3-inside-1_93_4367)"/>
<g filter="url(#filter0_di_93_4367)">
<path d="M16.5 84.702H104.25V87.952C104.25 102.311 92.6094 113.952 78.25 113.952H42.5C28.1406 113.952 16.5 102.311 16.5 87.952V84.702Z" fill="#572908"/>
<path d="M68.5 84.702H104.25V87.952C104.25 102.311 92.6094 113.952 78.25 113.952H68.5V84.702Z" fill="#572908" fill-opacity="0.56" style="mix-blend-mode:multiply"/>
<rect x="16.5" y="35.952" width="87.75" height="48.75" fill="#D9B99D"/>
<rect x="68.5" y="35.952" width="35.75" height="48.75" fill="#D9B99D" fill-opacity="0.69" style="mix-blend-mode:multiply"/>
</g>
<rect x="23" y="42.452" width="7.05433" height="26.3363" rx="3.25" fill="white"/>
<path d="M30.0543 76.313C30.0543 78.3909 28.4752 80.0753 26.5272 80.0753C24.5792 80.0753 23 78.3909 23 76.313C23 74.2351 24.5792 72.5507 26.5272 72.5507C28.4752 72.5507 30.0543 74.2351 30.0543 76.313Z" fill="white"/>
<path fill-rule="evenodd" clip-rule="evenodd" d="M104.088 35.952L16.5 35.952C17.3084 28.6396 23.5078 22.952 31.0357 22.952C31.8897 22.952 32.7266 23.0252 33.5404 23.1657C36.2681 13.6587 45.027 6.70203 55.4107 6.70203C65.4741 6.70203 74.0114 13.2361 77.0115 22.2931C79.7153 20.6489 82.8899 19.702 86.2857 19.702C95.6101 19.702 103.267 26.8415 104.088 35.952Z" fill="#F8E8DE"/>
<path fill-rule="evenodd" clip-rule="evenodd" d="M104.088 35.952L68.4836 35.952C69.3046 26.8415 76.9615 19.702 86.2858 19.702C95.6101 19.702 103.267 26.8415 104.088 35.952Z" fill="#F3D9CA"/>
<rect width="10.1473" height="5.07368" rx="2.53684" transform="matrix(-0.921937 -0.38734 0.387335 -0.921939 48.6052 25.0601)" fill="#382622"/>
<rect width="10.1473" height="5.07368" rx="2.53684" transform="matrix(0.947896 0.31858 -0.318576 0.947897 31.1165 26.7564)" fill="#382622"/>
<rect width="10.3932" height="5.19663" rx="2.59831" transform="matrix(-0.926762 -0.375649 0.375644 -0.926764 68.3821 21.9223)" fill="#382622"/>
<rect width="10.3932" height="5.19663" rx="2.59831" transform="matrix(-0.954176 0.299246 -0.299242 -0.954177 86.8252 31.7148)" fill="#382622"/>
<rect width="10.6852" height="5.34261" rx="2.6713" transform="matrix(-0.892899 0.450258 -0.450252 -0.892901 64.1963 27.7225)" fill="#382622"/>
<defs>
<filter id="filter0_di_93_4367" x="12.5" y="35.952" width="95.75" height="86" filterUnits="userSpaceOnUse" color-interpolation-filters="sRGB">
<feFlood flood-opacity="0" result="BackgroundImageFix"/>
<feColorMatrix in="SourceAlpha" type="matrix" values="0 0 0 0 0 0 0 0 0 0 0 0 0 0 0 0 0 0 127 0" result="hardAlpha"/>
<feOffset dy="4"/>
<feGaussianBlur stdDeviation="2"/>
<feComposite in2="hardAlpha" operator="out"/>
<feColorMatrix type="matrix" values="0 0 0 0 0 0 0 0 0 0 0 0 0 0 0 0 0 0 0.25 0"/>
<feBlend mode="normal" in2="BackgroundImageFix" result="effect1_dropShadow_93_4367"/>
<feBlend mode="normal" in="SourceGraphic" in2="effect1_dropShadow_93_4367" result="shape"/>
<feColorMatrix in="SourceAlpha" type="matrix" values="0 0 0 0 0 0 0 0 0 0 0 0 0 0 0 0 0 0 127 0" result="hardAlpha"/>
<feOffset dy="4"/>
<feGaussianBlur stdDeviation="2"/>
<feComposite in2="hardAlpha" operator="arithmetic" k2="-1" k3="1"/>
<feColorMatrix type="matrix" values="0 0 0 0 0 0 0 0 0 0 0 0 0 0 0 0 0 0 0.25 0"/>
<feBlend mode="normal" in2="shape" result="effect2_innerShadow_93_4367"/>
</filter>
</defs>
</svg>
