<svg width="160" height="228" viewBox="0 0 160 228" fill="none" xmlns="http://www.w3.org/2000/svg">
<path d="M7.11111 31.7796C3.18293 31.7796 0 34.9625 0 38.8907V70.4427C0 74.3708 3.18293 77.5538 7.11111 77.5538H14.5451C17.6526 103.403 27.9097 191.64 30.6148 214.966C31.4468 222.143 37.5964 227.556 44.9209 227.556H115.021C122.341 227.556 128.492 222.143 129.327 214.965C132.597 186.817 142.215 104.23 145.427 77.5538H152.889C156.817 77.5538 160 74.3708 160 70.4427V38.8907C160 34.9625 156.817 31.7796 152.889 31.7796H147.315L139.681 5.15129C138.806 2.10204 136.017 0 132.844 0H27.1559C23.9844 0 21.1954 2.10204 20.3193 5.15129L12.6848 31.7796H7.11111ZM145.778 46.0018V63.3316H14.2222V46.0018H18.0452H141.956H145.778ZM115.021 213.333H44.9209C44.8128 213.333 44.7659 213.272 44.7403 213.303C44.3577 210.004 43.8229 205.404 43.1815 199.878H116.772C116.166 205.09 115.639 209.634 115.22 213.265C115.22 213.265 115.167 213.333 115.021 213.333ZM118.424 185.655H41.5275C38.7598 161.857 35.0322 129.869 32.1536 105.35L127.738 105.96C124.874 130.311 121.225 161.593 118.424 185.655ZM129.415 91.7476L30.4782 91.1161C29.851 85.7984 29.3035 81.189 28.8683 77.5538H131.102C130.64 81.418 130.066 86.2379 129.415 91.7476ZM32.5134 14.2222H127.485L132.518 31.7796H27.4802L32.5134 14.2222Z" fill="black"/>
</svg>
