<svg width="160" height="184" viewBox="0 0 160 184" fill="none" xmlns="http://www.w3.org/2000/svg">
<path d="M52.5195 122.599L55.1195 131.505L58.5195 129.499L54.9915 121.081C54.9915 121.081 52.6875 122.452 52.5195 122.599Z" fill="#79E1CF"/>
<path d="M69.3524 97.3359C73.7169 95.9193 77.94 93.9797 81.9524 91.5491L101.808 95.1371C101.808 95.1371 105.44 97.5567 105.88 97.6303C107.123 97.514 108.368 97.8348 109.448 98.5503C110.912 99.7187 113.84 99.7187 114.6 99.8659C115.698 100.274 116.746 100.84 117.72 101.549C118.48 102.065 121.856 103.307 122.432 103.748C123.008 104.19 124.336 104.668 124.656 106.508C125.104 108.77 125.371 111.073 125.456 113.39C125.392 115.073 125.016 119.609 124.44 121.366C123.864 123.123 121.384 132.268 121.24 133.326C121.096 134.384 120.8 141.523 120.44 142.995C120.08 144.467 118.344 152.195 118.04 153.603C117.736 155.011 115.432 162.021 115.048 163.263C114.664 164.505 114.088 166.777 114.248 167.725C114.48 168.751 114.545 169.818 114.44 170.871C114.312 172.049 115.144 177.827 114.888 178.231C114.632 178.636 105.72 179.105 102.608 178.011C99.4964 176.916 87.0804 178.452 82.0484 178.158C77.0164 177.863 63.7204 177.716 61.8164 177.238C59.9124 176.759 57.5524 176.658 58.6964 175.195C59.8404 173.733 59.9684 171.681 60.0324 169.675C60.1999 167.863 60.5187 166.073 60.9844 164.33L56.9844 132.82L62.8564 119.02L69.3524 97.3359Z" fill="#BED4FC"/>
<path d="M124.592 88.3199C125.592 89.1295 125.464 88.9547 124.592 89.0835C123.72 89.2123 123.264 89.2491 123.16 89.9023C123.075 90.4343 122.944 90.9551 122.768 91.4571C122.727 91.4222 122.69 91.3821 122.656 91.3375C121.056 88.6327 122.296 89.3319 119.36 89.0559C118.776 89.0559 120.384 88.4303 120.856 87.2159C121.032 86.7651 120.208 85.0815 120.672 85.3759C122.08 86.2315 121.624 85.9187 121.8 86.0383C122.328 86.4155 123.896 84.9343 124.496 84.7319C124.68 86.2223 123.2 87.1423 124.592 88.3199Z" fill="#FFEAB6"/>
<path d="M136.432 59.7999C136.824 59.9655 135.632 60.3611 135.144 60.7843C134.344 61.4651 135.096 62.0355 135.032 62.9923C134.408 62.6887 133.704 61.1523 132.776 61.1523C131.104 61.7963 131 62.0723 130.704 62.0723C130.8 61.3823 132.208 59.9839 131.408 59.2387C131.096 58.9627 130.32 57.6471 130.712 57.7483C132.264 58.1623 132.256 58.2451 132.552 58.0059C134.112 56.7731 134.152 54.8779 134.44 57.4723C134.688 59.7999 134.184 58.8799 136.432 59.7999Z" fill="#FFEAB6"/>
<path d="M134.488 29.4953C134.448 29.5597 134.416 29.6425 134.36 29.6701C132.344 30.8661 132.208 30.7189 132.328 31.5101C132.632 33.6905 132.56 33.3501 132.512 33.7273C130.376 31.5009 131.224 31.7861 130.912 31.7217C130.32 31.6205 129.216 32.3841 128.152 32.6417C127.784 32.6417 127.928 32.5497 128.848 30.8017C129.864 28.8973 124.92 26.6433 129.208 28.0417C130.008 28.3085 129.864 28.1797 131.32 25.9257C131.784 25.1989 131.488 28.4833 132.568 28.5937C132.944 28.5937 133.464 29.1089 134.32 29.3297C134.383 29.3748 134.439 29.4307 134.488 29.4953Z" fill="#FFEAB6"/>
<path d="M51.7358 69.5521C55.7998 68.5033 51.7358 69.9753 52.6398 71.7233C53.3838 73.2321 53.6878 73.0942 52.2398 72.7262C50.5598 72.2938 51.3198 72.165 49.5758 74.1982C49.3678 74.4466 49.6158 73.4345 49.6798 72.4777C49.7518 71.3369 47.8318 70.9689 47.5518 70.3709C47.6878 70.3709 47.4478 70.3709 48.6798 70.2329C50.1998 70.0857 49.4798 69.1014 50.1438 67.5374C50.6878 68.0802 51.2478 69.6717 51.7358 69.5521Z" fill="#FFEAB6"/>
<path d="M59.912 48.8703C60.112 49.2567 59.112 48.8703 57.696 48.2631C56.896 47.9227 57.08 47.2327 55.192 50.2687C54.464 51.4555 55.528 47.6559 54.32 47.1407C51.584 45.9631 51.584 46.2207 54.592 44.9695C55.248 44.6935 54.936 43.0467 55.392 41.6299C58.248 44.7027 55.84 44.4451 60.016 43.3411C59.4 45.2363 58.12 45.7791 58.856 46.7635C59.2646 47.4261 59.6182 48.1315 59.912 48.8703Z" fill="#FFEAB6"/>
<path d="M81.7279 102.865C82.1039 104.908 82.4719 105.147 82.0559 105.073C78.4319 104.42 74.8959 100.298 74.1679 96.8393C74.0319 96.1861 73.9359 96.2505 74.5439 96.0113C76.3279 95.2845 77.2479 94.5025 77.0239 94.9625C76.5759 95.8825 76.8959 97.0693 76.8399 97.4925C76.6319 99.0841 77.5919 100.427 78.9759 101.274C79.1599 101.384 79.0959 101.366 80.3199 101.458C81.1199 101.237 81.2239 101.145 81.3199 101.458C81.4989 101.909 81.6357 102.381 81.7279 102.865V102.865Z" fill="#FFC6A6"/>
<path d="M110.24 32.8256C112.432 33.8836 113.048 34.0492 111.568 34.4724C110.64 34.2148 110.528 34.1964 109.968 32.89C109.912 32.7244 110.088 32.752 110.24 32.8256Z" fill="#E6FCFF"/>
<path d="M114.624 32.421C114.76 32.421 114.752 32.5314 114.696 32.6142C114.368 33.1202 113.992 33.8654 113.376 33.4146C111.776 32.2278 108.656 31.685 109.512 30.1486C109.864 29.523 109.576 30.2406 111.4 31.1422C113.376 32.1174 114.088 32.4946 114.624 32.421Z" fill="#E6FCFF"/>
<path d="M115.28 30.4337C115.768 30.4889 115.168 31.4917 114.392 31.4733C113.104 30.9581 109.224 29.3205 110.296 28.3453C110.424 28.2349 110.36 27.9221 110.544 27.9405C110.864 27.9405 110.44 28.3269 112.56 29.3021C114.68 30.2773 114.864 30.3601 115.28 30.4337Z" fill="#E6FCFF"/>
<path d="M111.272 25.9717C115.512 29.6517 117.192 27.7565 115.912 29.4677C115.672 29.7897 114.744 29.2469 114.392 29.0997C112.68 28.3729 109.824 27.3241 111.272 25.9717Z" fill="#E6FCFF"/>
<path d="M122.488 19.4305C122.736 19.5133 122.552 20.1849 122.328 20.0469C121.48 19.5501 122.192 19.3201 122.488 19.4305Z" fill="#FFD152"/>
<path d="M114.032 16.9096C113.592 17.3236 113.392 16.5232 113.68 16.4312C113.776 16.4036 113.944 16.7532 114.032 16.9096Z" fill="#FFD152"/>
<path d="M117.048 9.3839C126.96 9.3195 129.096 24.3155 118.792 25.6679C117.448 25.8519 117.192 25.4103 116.776 26.0267C116.024 27.2503 116.512 27.8023 115.896 27.6183C114.638 27.2488 113.439 26.6526 112.344 25.8519C111.328 25.1435 113.144 24.9319 112.616 23.6163C112.088 22.3007 112.064 23.3035 111.232 21.7763C107.384 14.7199 112.84 9.1171 117.048 9.3839ZM121.992 21.1047C122.496 22.5399 124.064 19.1451 122.856 18.6943C121.648 18.2435 121.328 19.2187 121.136 19.1635C119.28 18.6851 120.432 18.9611 119.36 18.3263C118.864 18.0319 118.472 18.7219 118.072 18.0687C117.44 17.0199 117.896 18.0687 114.928 16.7071C114.72 16.6151 114.608 16.2839 114.448 16.0631C114.288 15.8423 114.04 15.8423 113.744 15.7503C112.88 15.4835 112.384 17.5167 113.744 17.7835C113.888 17.7835 113.992 17.7835 113.944 18.0687C113.64 19.5683 115.408 20.8287 115.056 21.5555C114.577 22.6073 114.24 23.7363 114.056 24.9043C114.016 25.1803 114.232 25.0331 114.32 25.1159C114.656 25.4471 114.816 23.7175 115.68 21.8499C116.264 20.6079 114.568 19.3659 114.608 18.2987C114.656 16.9279 115.12 17.7099 116.208 18.1055C116.816 18.3263 117.28 18.1055 117.448 18.5655C117.556 18.8113 117.738 19.0041 117.959 19.1088C118.181 19.2135 118.428 19.2231 118.656 19.1359C119.392 18.9151 119.2 19.5683 120.064 19.7799C120.928 19.9915 120.92 19.9455 120.92 20.3135C120.92 20.4423 120.92 20.5803 120.784 20.6171C120.372 20.7785 119.98 20.9979 119.616 21.2703C119.16 21.5187 119.36 21.0955 118.6 21.6659C117.456 22.5215 117.648 21.9787 117.168 22.4111C116.368 23.1563 114.616 25.2815 115.176 25.7875C115.736 26.2935 115.8 24.9687 116.936 23.7727C118.072 22.5767 117.896 23.1563 118.28 22.8527C119.08 22.2823 119.192 22.1995 119.312 22.1903C120 22.1259 120.528 21.4635 121.048 21.4083C121.752 21.3347 121.568 20.6263 121.72 20.6815C121.872 20.7367 121.936 20.9483 121.992 21.1047V21.1047Z" fill="#FFD152"/>
<path d="M53.4237 17.8941C53.5495 18.3721 53.546 18.8828 53.4138 19.3585C53.2816 19.8341 53.0269 20.2525 52.6834 20.558C52.3399 20.8636 51.9239 21.042 51.4903 21.0697C51.0567 21.0973 50.626 20.9729 50.2553 20.7129C49.8845 20.4529 49.5911 20.0695 49.414 19.6136C49.2369 19.1576 49.1843 18.6505 49.2633 18.1595C49.3423 17.6684 49.549 17.2165 49.8563 16.8635C50.1635 16.5106 50.5567 16.2732 50.9837 16.1829C51.5021 16.0753 52.0367 16.1901 52.4864 16.5055C52.9361 16.8208 53.2696 17.3149 53.4237 17.8941Z" fill="#9EDEFF"/>
<path d="M45.4959 25.8153C45.8479 25.3553 46.2959 24.8953 46.5119 25.5117C46.5119 25.5117 39.2399 34.8589 39.2239 34.8773C38.6319 34.4081 38.3999 35.3649 45.4959 25.8153Z" fill="#9EDEFF"/>
<path d="M50.3203 33.948C50.4643 34.3436 50.4003 34.1964 45.3603 39.9372C45.1043 40.2408 45.2243 40.2316 44.9443 35.6224C44.9443 35.19 48.1443 32.3104 49.1763 30.8936C50.2083 29.4768 49.9363 29.716 50.3203 33.948Z" fill="#9EDEFF"/>
<path d="M41.5519 22.0801C42.1679 21.9881 40.4239 23.6165 39.1519 25.8245C38.8639 26.3029 37.7759 27.9773 37.3519 28.0417C37.3519 28.0417 33.3519 28.1797 33.3519 28.1521C33.2399 27.9773 35.3759 25.6313 37.3519 23.0277C37.5999 22.5953 37.5999 22.6689 41.5519 22.0801Z" fill="#9EDEFF"/>
<path d="M61.0001 8.73083C60.9215 10.0326 60.6735 11.3134 60.2641 12.5304C58.3361 17.94 58.5041 17.4524 57.9761 16.3668C55.5281 11.3528 52.1361 10.8468 52.7761 10.396C54.3986 9.02211 56.2221 7.99384 58.1601 7.36003C61.1921 6.44003 60.8561 7.36003 61.0001 8.73083Z" fill="#FF8E92"/>
<path d="M109.536 76.0931C108.92 73.6735 110.44 67.5739 110.896 66.2215C111.515 63.7834 111.694 61.2258 111.424 58.7051C111.104 55.8255 109.344 50.9495 108.416 48.5851C107.488 46.2207 103.456 41.8415 102.176 40.7007C100.896 39.5599 94.76 36.5975 92.576 35.4935C90.392 34.3895 86.464 34.1411 86.464 34.1411C85.8778 33.2976 85.0599 32.7081 84.1442 32.4691C83.2286 32.23 82.2695 32.3557 81.424 32.8255C79.024 34.0491 78.624 36.9931 78.416 37.0575C73.456 36.9931 72.76 41.5931 72.76 41.5931C70.92 43.7367 71.432 45.0891 72.2 46.4967C72.968 47.9043 75.456 47.9411 75.456 47.9411C75.456 47.9411 90.584 44.1599 95.2 52.4399C99.816 60.7199 98 74.2255 98 74.2255L98.128 87.6391C98.861 88.4391 99.7769 88.9826 100.769 89.2058C101.76 89.429 102.787 89.3227 103.728 88.8995C100.856 86.3787 101.408 84.9435 101.408 84.9435C105.76 88.0347 107.68 84.9435 107.68 84.9435C106.941 84.7771 106.248 84.405 105.662 83.8598C105.076 83.3145 104.616 82.6127 104.32 81.8155C105.602 82.2622 106.926 82.5309 108.264 82.6159C111.84 83.0115 112.64 80.7759 112.64 80.7759C112.64 80.7759 110.144 78.5127 109.536 76.0931Z" fill="#FFB564"/>
<path d="M78.896 82.8001C78.6722 82.5132 78.5484 82.1414 78.5484 81.7559C78.5484 81.3705 78.6722 80.9987 78.896 80.7117C73.976 77.2249 75.032 74.3453 73.976 74.9249C72.8436 75.4997 71.6342 75.8481 70.4 75.9553C70.08 76.0657 71.288 78.4393 73.952 79.4605C76.208 80.3253 71.552 82.8001 70.84 82.8645C69.68 82.9657 74.576 86.3421 77.352 84.1893C77.4172 84.1285 77.4974 84.0928 77.5812 84.0873C77.665 84.0818 77.7482 84.1068 77.819 84.1587C77.8898 84.2106 77.9446 84.2868 77.9757 84.3765C78.0067 84.4662 78.0124 84.5649 77.992 84.6585C77.7668 85.9443 77.3644 87.1804 76.8 88.3201C78.184 88.6053 79.768 87.5565 80.92 86.6549C81.224 86.4249 81.112 86.0201 81.232 85.7349C81.28 85.6061 80.272 84.7505 78.896 82.8001Z" fill="#FFB564"/>
<path d="M66.2961 94.1344C67.7601 97.6304 67.8241 97.4556 67.4641 97.6028L51.2001 103.776C51.0081 103.776 51.2721 104.3 47.6561 96.0756C47.4721 95.6616 46.5041 96.2228 57.9201 91.8252C59.9041 91.0616 61.7921 90.298 63.9121 89.4976C64.4561 89.2952 64.0001 88.6696 66.2961 94.1344ZM64.1121 97.1244C63.7681 96.4436 63.4961 96.9128 63.0721 96.9312C62.9681 96.9312 52.6081 100.611 51.8721 101.016C51.5121 101.191 51.1841 101.743 51.6241 101.872C51.7921 101.918 63.4961 97.9432 64.1121 97.1244ZM61.6001 93.242C61.8561 93.0948 62.0321 92.5796 61.4881 92.4508C61.3921 92.4508 60.7761 92.6624 59.8881 92.92C56.7281 93.84 56.2881 94.5208 55.4721 94.5024C54.5281 94.5024 54.5681 94.944 53.1601 95.3028C49.9601 96.1216 50.4801 96.4712 49.6241 96.5172C49.5201 96.5172 49.3521 96.8024 49.3201 96.9128C49.2481 97.244 50.1201 97.4372 50.5361 97.1704C51.4258 96.6207 52.3973 96.268 53.4001 96.1308C54.7201 95.864 54.6721 95.3764 55.4481 95.4224C56.9281 95.1924 57.4881 94.5024 58.8321 94.116C60.1761 93.7296 60.5761 93.84 61.6001 93.242ZM59.4961 96.6C59.63 96.6101 59.7627 96.5646 59.8699 96.4717C59.977 96.3788 60.0517 96.2448 60.0801 96.094C60.0801 95.036 56.8801 96.7196 55.3681 97.014C53.9921 97.2808 50.8641 98.3296 50.4081 98.9C50.0881 99.3048 50.2641 99.5348 50.6961 99.5624C52.2961 98.9368 52.0801 98.854 52.6561 98.6424C55.9841 97.566 53.6961 98.4492 57.2241 97.2808C58.8241 96.784 58.9281 96.6 59.4961 96.6Z" fill="#FFF5DB"/>
<path d="M53.5997 118.965C53.8397 119.527 52.9597 119.839 52.4477 119.95C52.1437 119.72 52.8157 120.999 45.4877 104.025C40.7997 93.2973 40.7997 93.7297 41.2797 93.7297C43.7757 93.7389 39.9117 87.4001 53.5997 118.965Z" fill="#79E1CF"/>
<path d="M43.0564 100.418C51.9684 121.21 51.8004 120.253 51.4164 120.41C46.6164 122.305 49.0164 125.93 48.5204 127.172C48.2564 126.739 31.7204 87.7772 31.6084 87.4552C31.7364 87.4 31.3044 87.1516 38.3124 91.9632C40.5604 93.5088 39.2564 91.54 43.0564 100.418Z" fill="#79E1CF"/>
<path d="M67.6795 90.2245C64.9515 83.7201 65.1355 84.1065 64.9115 84.1985C62.5115 85.1829 49.9515 89.9761 47.8315 90.7765C42.6075 92.7637 42.9355 92.3773 43.2555 93.0949C55.4955 120.612 53.6555 119.057 55.0555 118.625C56.6955 118.579 55.5995 121.716 55.6555 121.882C55.7115 122.047 56.1115 123.197 56.3355 123.105C56.8187 122.864 57.3127 122.652 57.8155 122.47C58.9463 122.278 60.0478 121.903 61.0875 121.357C63.3275 120.042 63.3595 124.172 60.5275 125.764C59.7614 126.3 58.9387 126.72 58.0795 127.015C57.9355 127.015 57.9035 127.144 57.9675 127.291C58.5435 128.69 58.3995 128.579 58.7675 128.579C63.0875 128.579 62.5755 127.779 65.5675 127.052C66.4475 126.831 66.8155 128.073 66.4715 128.892C66.3915 129.076 66.5275 129.058 66.6955 129.002C66.6955 129.002 81.0955 124.099 81.7195 123.869C82.3435 123.639 82.0475 124.467 67.6795 90.2245ZM67.9995 98.3297C67.8715 98.3849 52.9915 104.061 51.1995 104.668C50.5355 104.586 50.6635 105 46.9595 96.1401C46.4635 94.9625 45.8075 95.5145 64.0395 88.5409C64.7595 88.2649 64.7275 88.5409 65.7275 90.8961C68.4315 97.2809 69.0235 97.9249 67.9995 98.3297Z" fill="#79E1CF"/>
<path d="M111.136 143.925C111.936 145.296 112.12 143.143 105.472 153.934C104.751 155.056 103.971 156.125 103.136 157.136C102.008 158.636 101.104 160.31 99.32 161.883C95.144 165.563 92.016 164.643 88.376 159.74C87.825 158.662 87.433 157.487 87.216 156.262C86.696 153.842 85.768 153.171 85.12 150.429C83.424 143.262 85.272 108.634 85.44 108.459C86.128 107.732 85.056 108.091 83.512 105.772C82.256 103.932 82.84 101.964 80.312 97.2347C80.2616 97.1068 80.1863 96.9938 80.092 96.9045C79.9977 96.8152 79.8869 96.7519 79.768 96.7195C79.28 96.6275 79.68 97.3543 79.904 97.9247C80.24 98.7619 79.552 98.2283 79.424 98.2191C79.096 98.1731 78.872 98.6055 79.992 99.3599C80.128 99.4519 80.496 99.4611 80.592 99.6083C80.686 99.8137 80.7534 100.034 80.792 100.262C80.792 100.39 80.792 100.427 80.688 100.436C79.808 100.556 79.424 100.768 78.696 100.059C78.28 99.6543 77.536 98.7343 77.552 98.1087C77.592 96.2687 77.32 95.3487 78.696 94.4287C79.232 94.0883 79.328 93.5087 79.36 92.8279C79.416 91.5767 80.512 92.2575 80.96 90.6291C81.6 88.3107 84.528 90.3531 84.104 89.0559C82.808 85.1459 78.744 82.6159 79.304 81.4935C79.832 80.5091 81.76 82.3399 82.256 83.0023C83.808 85.0171 86.656 87.7587 86.912 89.6723C87.072 90.8223 87.768 91.2179 88.464 93.9043C89.72 98.7251 91.144 100.777 91.312 106.104C91.576 114.384 99.008 146.16 99.016 146.188C99.224 146.685 99.72 146.473 99.696 145.958C99.408 139.785 96.416 132.977 97.152 132.931C98.3654 132.834 99.5795 133.107 100.672 133.722C101.408 134.357 105.952 139.003 106.352 139.435C108.096 141.22 109.944 141.827 111.136 143.925Z" fill="#FFC6A6"/>
<path d="M102.08 65.8811C105.456 62.5967 109.448 65.2647 106.08 71.4655C105.408 72.6891 104.736 73.7471 101.8 75.1455C97.9844 76.9855 97.5284 65.7523 97.4564 86.1855C97.4564 91.9815 98.0004 93.7203 105.08 97.6671C105.36 97.8235 102.904 99.9303 102.888 99.9395C98.6244 103.454 101.128 101.78 96.4084 103.96C95.6084 104.31 92.3044 105.883 92.2484 105.303C91.6084 99.1483 90.3284 97.7407 89.4484 94.1343C88.6484 90.9511 87.7524 90.1415 87.6724 89.0743C87.5604 87.5103 84.4724 84.4743 84.0964 83.9223C83.9604 83.7383 83.9764 83.6647 84.1764 83.5819C93.1924 80.2055 91.8244 77.6387 90.9124 78.2551C89.0564 79.4971 80.7444 82.9195 76.8724 77.8135C72.6244 72.2015 72.5284 62.2379 74.2884 62.8635C75.0157 63.0485 75.7733 63.0006 76.4786 62.7248C77.1839 62.449 77.8098 61.9561 78.2884 61.2995C78.7524 60.7659 78.2884 62.7991 80.5284 63.2683C80.9924 63.3695 81.1684 62.7163 80.8884 62.5599C80.2084 62.1643 79.5684 61.9803 79.2004 60.6647C78.9124 59.6435 81.6804 60.4623 81.6004 58.0703C81.6004 57.4355 81.0644 57.4171 80.9444 57.9875C80.7284 58.9719 80.9444 58.8247 79.6644 59.1007C79.5524 59.1007 79.5204 59.1007 79.5604 58.9443C80.2644 56.3959 80.0404 55.6691 80.7604 55.0527C81.0722 54.8431 81.4273 54.7337 81.7885 54.7359C82.1498 54.7381 82.5038 54.8519 82.8137 55.0653C83.1236 55.2787 83.3779 55.584 83.5501 55.9492C83.7222 56.3144 83.8059 56.726 83.7924 57.1411C83.8964 60.1495 86.4324 64.5563 89.3924 64.4275C93.5844 64.2343 94.7924 59.2663 95.5524 58.7235C96.0564 58.3555 96.5844 58.5855 98.7124 60.0851C99.3364 60.5175 97.5204 64.8783 100.48 66.3687C100.792 66.5251 100.112 67.0035 100.872 67.2887C100.96 67.3991 101.392 66.5435 102.08 65.8811ZM105.912 68.7699C106.023 68.5129 106.069 68.2254 106.045 67.9398C106.021 67.6543 105.928 67.3822 105.777 67.1543C105.625 66.9264 105.421 66.7519 105.188 66.6505C104.954 66.549 104.701 66.5247 104.456 66.5803C103.16 66.9023 101.744 68.7975 102.432 70.3339C102.664 70.8583 102.432 71.9439 101.952 72.0727C101 72.3119 100.936 71.7967 100.704 72.2935C100.472 72.7903 100.984 73.2135 101.504 73.2135C103.152 73.2135 103.704 71.0423 103.176 69.8739C103.109 69.7465 103.069 69.602 103.06 69.453C103.052 69.3039 103.075 69.1547 103.128 69.0183C103.464 68.0983 105.136 66.3595 105.296 68.8251C105.336 69.0827 105.744 69.1747 105.912 68.7699ZM80.6644 69.8095C80.6644 69.4783 80.4884 68.5123 79.8164 68.4939C79.0164 68.4939 78.8964 69.8647 79.4724 70.5363C79.8164 70.9503 80.4724 71.0423 80.6644 69.8095V69.8095Z" fill="#FFC6A6"/>
<path d="M67.7358 138.377C70.0718 140.217 69.7118 138.46 68.5838 147.182C68.0373 150.945 67.2702 154.661 66.2878 158.304C66.0638 159.059 66.3998 156.142 66.2878 153.051C66.1758 148.856 62.4158 141.846 62.0158 142.011C61.2158 142.315 62.8158 143.391 64.7678 149.61C66.1038 153.971 65.3998 159.97 64.4638 161.57C63.2478 163.631 62.1918 164.505 59.1278 163.972C57.7533 163.733 56.4711 163.032 55.4431 161.956C54.415 160.881 53.6873 159.478 53.3518 157.927C52.9198 155.885 52.2158 153.53 52.5518 151.055C54.1518 137.807 53.1918 143.943 55.1918 147.108H55.5518C55.4398 146.105 55.3598 146.188 54.2878 142.14C53.9518 140.852 53.9438 140.668 53.5918 140.41C52.0798 139.325 52.3598 139.15 52.0638 137.31C51.8798 136.197 50.6878 136.491 50.8398 134.927C50.8813 134.486 50.8246 134.04 50.6748 133.631C50.525 133.223 50.2872 132.864 49.9838 132.59C49.4318 131.992 49.5598 130.226 50.5198 129.076C52.2318 127.034 52.4238 126.123 54.0878 124.706C54.3518 124.476 54.4158 124.559 56.8798 123.896C57.4158 123.749 57.0878 123.602 58.2158 123.372C61.2318 122.746 61.9918 121.532 61.9598 122.305C61.8907 122.927 61.6722 123.515 61.3289 124.003C60.9855 124.49 60.5308 124.858 60.0158 125.065C59.3673 125.499 58.6808 125.854 57.9678 126.123C53.1678 127.374 53.4238 131.072 54.2078 130.014C55.2318 128.634 55.0798 128.349 55.4638 129.159C55.7518 129.766 55.6078 129.49 54.6638 130.465C53.8638 131.293 51.1918 133.777 52.4878 133.556C52.6718 133.556 52.7758 133.418 54.4718 131.781C55.6798 130.603 56.1678 129.545 60.0718 129.499C62.3198 129.499 64.0718 128.312 65.5998 127.972C66.1838 127.834 66.0318 129.987 61.9358 131.256C61.042 131.668 60.1147 131.976 59.1678 132.176C58.4188 132.22 57.6966 132.51 57.0878 133.014C56.5278 133.621 56.1118 133.934 56.3998 134.274C56.5038 134.403 56.5998 134.504 56.7518 134.32C57.7198 133.161 58.7198 133.216 60.7518 132.747C61.3598 132.609 61.2318 132.259 62.1998 132.149C63.19 131.953 64.1701 131.695 65.1358 131.376C65.9358 131.376 65.3198 133.326 61.1358 135.185C59.1118 136.105 58.1598 136.353 57.4478 137.577C57.2558 137.908 57.0958 138.405 57.4478 138.589C58.0318 138.892 57.6798 137.485 59.7678 136.611C60.1278 136.464 60.2158 136.427 60.3438 138.267C60.6158 142.26 59.3358 144.008 59.2318 145.627C59.2318 145.848 59.4558 146.133 59.6958 145.792C60.0591 144.892 60.3822 143.971 60.6638 143.032C62.4558 136.868 58.2638 134.863 63.8638 136.841C66.3998 137.742 66.7518 137.604 67.7358 138.377Z" fill="#FFC6A6"/>
<path d="M54.7841 119.692C55.8721 119.407 54.9681 122.111 52.9761 123.372C51.3761 124.411 51.2161 124.513 50.9921 124.825C50.7681 125.138 50.9921 125.534 51.2001 125.451C52.5121 125.009 54.6881 122.314 50.2241 128.211C49.1681 129.609 49.3281 129.711 49.1841 128.478C49.1936 128.009 49.231 127.542 49.2961 127.079C49.4961 125.985 48.4481 123.399 49.5681 122.581C51.0174 121.567 52.5568 120.734 54.1601 120.097C54.3528 119.933 54.5624 119.797 54.7841 119.692V119.692Z" fill="#FFC6A6"/>
<path d="M74.6562 51.52C74.6562 51.3912 75.2962 47.84 76.0802 46.5428C76.8642 45.2456 79.5523 41.9428 79.5523 41.9428C79.5523 41.9428 81.5522 43.1388 81.7362 41.0228C81.7362 41.0228 82.4882 41.8416 83.3362 40.3236C84.1842 38.8056 86.4003 38.962 87.2003 39.3668C88.0003 39.7716 90.2002 40.2316 91.4162 42.5776C92.6322 44.9236 96.8003 53.1024 97.5443 54.28C98.2883 55.4576 100.648 58.88 98.8963 59.4596L95.6963 57.362C95.6963 57.362 94.5843 53.6176 91.7923 53.084C89.0002 52.5504 85.6803 52.2284 84.3203 54.924C84.3203 54.924 81.6403 53.084 79.7763 55.0436C79.7763 55.0436 79.3522 52.164 77.0242 51.7132C74.6962 51.2624 74.6562 51.52 74.6562 51.52Z" fill="#FFC6A6"/>
<path d="M21.0798 69.1656L20.7038 66.562L22.5038 68.31L24.8238 67.0588L24.0398 70.0304L25.6878 72.7904L22.9358 72.2476L21.8478 75.0444L21.1518 71.6864L18.7598 70.38L21.0798 69.1656Z" fill="#FFEAB6"/>
<path d="M136.304 68.3836C132.568 71.806 132.168 78.3656 130.288 76.7924C128.136 74.9524 126.76 73.0296 126.696 70.2696C126.696 69.506 126.336 68.7608 125.696 69.0368C125.176 69.2976 124.642 69.5188 124.096 69.6992C122.264 70.2512 122.336 68.3376 121.488 69.23C121.146 69.5015 120.828 69.8095 120.536 70.15C120.272 70.426 120.4 70.2696 119.792 69.7452C119.184 69.2208 118.304 69.9384 118.424 70.3432C118.482 70.4416 118.568 70.5143 118.667 70.5494C118.766 70.5845 118.872 70.5799 118.968 70.5364C119.44 70.2972 119.512 70.8124 119.992 71.254C120.792 71.9992 121.424 69.5704 122.112 70.1316C123.256 71.0516 123.776 70.7388 125.52 70.058C126.6 69.644 124.528 72.3948 128.856 76.6176C131.256 78.982 131.664 78.2368 133.544 73.9128C134.232 72.3304 135.584 69.7544 136.808 68.8896C137.312 68.5308 137.904 68.3468 139.136 69.3496C142.024 71.7048 140.736 72.3028 140.36 73.324C140.296 73.508 140.64 73.8392 140.792 73.6C141.744 72.1004 141.48 72.5696 141.68 71.8428C141.336 69.5612 138.096 66.746 136.304 68.3836Z" fill="#000001"/>
<path d="M135.104 56.6537C135.04 56.1937 134.912 55.7337 134.832 55.2829C134.823 55.1739 134.785 55.0708 134.724 54.9871C134.662 54.9033 134.58 54.8429 134.488 54.8137C134.176 54.7033 134.136 54.9057 133.064 56.3685C132.112 57.6657 132.68 57.4449 130.344 56.7825C130.215 56.8088 130.093 56.8679 129.987 56.9555C129.88 57.043 129.792 57.1568 129.728 57.2885C129.568 57.5553 129.584 57.6565 130.296 58.9813C130.904 60.1129 131.096 59.8369 130.808 60.3245C129.296 62.9281 128.616 63.7837 131.4 62.6153C133 61.9529 132.936 61.8517 133.168 62.1185C134.248 63.3605 135.736 65.4581 135.824 63.7009C135.862 63.0116 135.769 62.321 135.552 61.6769C135.44 61.0145 137.64 60.6741 137.768 59.7265C137.779 59.6854 137.782 59.6422 137.778 59.5996C137.774 59.557 137.762 59.5158 137.743 59.4787C137.724 59.4416 137.699 59.4093 137.669 59.3839C137.639 59.3585 137.605 59.3405 137.568 59.3309C134.52 58.0889 135.464 59.3033 135.104 56.6537ZM135.144 60.7661C134.344 61.4469 135.096 62.0173 135.032 62.9741C134.408 62.6705 133.704 61.1341 132.776 61.1341C131.104 61.7781 131 62.0541 130.704 62.0541C130.8 61.3641 132.208 59.9657 131.408 59.2205C131.096 58.9445 130.32 57.6289 130.712 57.7301C132.264 58.1441 132.256 58.2269 132.552 57.9877C134.112 56.7549 134.152 54.8597 134.44 57.4541C134.688 59.7909 134.184 58.8341 136.432 59.7725C136.8 59.9473 135.648 60.3429 135.144 60.7661Z" fill="#000001"/>
<path d="M125.12 41.6946C125.184 45.3746 127.192 47.2146 123.832 46.7178C118.68 45.945 117.648 44.519 118.136 48.8246C118.2 49.4042 118.224 49.2202 115.736 50.3794C114.488 50.9682 115.056 51.695 115.736 51.3914C118.008 50.3242 119.008 50.1678 118.936 49.027C118.776 47.0122 118.552 46.6534 119.216 46.7822C123.704 47.6102 124.464 47.8034 125.272 47.7022C128.424 47.3158 124.408 41.5474 126.56 40.3422C128.072 39.4774 128.576 40.8574 135.832 44.1786C136.232 44.3626 136.632 44.5466 136.76 44.1142C136.888 43.6818 136.52 43.6542 136.32 43.5622C129.12 40.1674 129.856 40.0018 128.32 39.4222C127.982 39.2403 127.61 39.158 127.238 39.1828C126.865 39.2075 126.504 39.3386 126.186 39.564C125.869 39.7895 125.605 40.1023 125.419 40.4743C125.233 40.8462 125.13 41.2656 125.12 41.6946V41.6946Z" fill="#000001"/>
<path d="M128.224 30.4243C127.624 31.5559 126.232 34.0215 127.52 33.6535C128 33.5247 128.92 33.3223 129.12 33.2303C130.344 32.7519 130.384 32.5587 130.552 32.7611C132.152 34.6011 133.296 36.6159 133.216 33.2487C133.168 31.6663 132.864 31.4087 133.256 31.2339C133.776 30.9763 134.808 30.3139 135.096 30.2311C136.08 29.8907 136.128 29.1547 135.704 28.9339C135.28 28.7131 134.104 28.4555 133.376 28.0967C132.216 27.4987 132.712 28.3175 131.968 24.9319C131.951 24.8312 131.906 24.7394 131.84 24.6696C131.775 24.5999 131.692 24.5558 131.603 24.5435C131.514 24.5313 131.424 24.5516 131.346 24.6015C131.268 24.6514 131.206 24.7284 131.168 24.8215C131.072 24.9687 130.736 25.5207 129.712 27.2503C129.472 27.6643 127.176 26.2751 126.8 26.7903C125.856 28.0507 128.536 29.8355 128.224 30.4243ZM129.184 28.0875C129.984 28.3543 129.84 28.2255 131.296 25.9715C131.76 25.2447 131.464 28.5291 132.544 28.6395C132.912 28.6395 133.44 29.1547 134.296 29.3755C134.365 29.4042 134.43 29.4445 134.488 29.4951C134.448 29.5595 134.416 29.6423 134.36 29.6699C132.344 30.8659 132.208 30.7187 132.328 31.5099C132.632 33.6903 132.56 33.3499 132.512 33.7271C130.376 31.5007 131.224 31.7859 130.912 31.7215C130.32 31.6203 129.216 32.3839 128.152 32.6415C127.784 32.6415 127.928 32.5495 128.848 30.8015C129.84 28.9155 124.896 26.6799 129.184 28.0875Z" fill="#000001"/>
<path d="M109.312 32.5312C109.276 32.8904 109.306 33.2543 109.4 33.5994C109.494 33.9445 109.649 34.2633 109.856 34.5353C110.063 34.8073 110.318 35.0265 110.603 35.1789C110.888 35.3312 111.198 35.4134 111.512 35.42C112.68 35.5396 113.152 34.3896 113.592 34.5C114.576 34.7208 115.36 33.4696 115.392 32.5772C115.392 32.108 115.696 31.7952 115.856 31.3444C116.016 30.8936 115.808 30.6084 116.016 30.5348C116.322 30.2926 116.569 29.9641 116.733 29.5807C116.897 29.1972 116.972 28.7718 116.952 28.3452C116.952 28.2256 117.224 27.8024 116.952 27.4252C116.896 27.3424 117.168 26.8456 117.232 26.772C117.296 26.6984 124.912 27.3976 126.248 19.6788C128.2 8.39959 112.448 3.8364 109.512 14.674C107.912 20.5068 112.072 23.598 111.824 24.196C111.176 25.7324 110.76 25.116 110.52 25.7876C109.88 27.4896 110.52 27.278 110.176 27.4896C109.024 28.1704 109.664 29.0076 109.264 29.3296C108.952 29.5933 108.74 29.9854 108.673 30.4241C108.606 30.8629 108.689 31.3145 108.904 31.6848C109.216 32.108 109.376 32.2 109.312 32.5312ZM111.568 34.4724C110.64 34.2148 110.528 34.1964 109.968 32.89C109.896 32.7244 110.072 32.752 110.224 32.8256C112.432 33.8744 113.048 34.04 111.568 34.4724V34.4724ZM111.2 21.7764C107.352 14.7568 112.8 9.11719 117.016 9.38399C126.928 9.31959 129.064 24.3156 118.76 25.668C117.416 25.852 117.16 25.4104 116.744 26.0268C115.992 27.2504 116.48 27.8024 115.864 27.6184C114.606 27.2489 113.408 26.6527 112.312 25.852C111.296 25.1436 113.112 24.932 112.584 23.6164C112.056 22.3008 112.064 23.3036 111.2 21.7764ZM111.24 25.9716C115.48 29.6516 117.16 27.7564 115.88 29.4676C115.64 29.7896 114.712 29.2468 114.36 29.0996C112.68 28.3728 109.824 27.324 111.272 25.9716H111.24ZM110.264 28.3452C110.392 28.2348 110.328 27.922 110.512 27.9404C110.832 27.9404 110.408 28.3268 112.528 29.302C114.648 30.2772 114.832 30.3876 115.248 30.4336C115.664 30.4796 115.2 31.4916 114.4 31.4732C113.104 30.958 109.232 29.3204 110.296 28.3452H110.264ZM109.464 30.1852C109.816 29.5596 109.528 30.2772 111.352 31.1788C113.328 32.1632 114.04 32.5312 114.552 32.4576C114.688 32.4576 114.68 32.568 114.624 32.6508C114.296 33.1568 113.92 33.902 113.304 33.4512C111.744 32.2 108.656 31.6848 109.512 30.1484L109.464 30.1852Z" fill="#000001"/>
<path d="M125.129 87.7313C124.505 87.2713 124.745 87.2161 124.881 86.5353C125.433 83.7753 125.409 83.9685 125.377 83.7753C125.373 83.6975 125.35 83.6224 125.311 83.5583C125.273 83.4942 125.219 83.4437 125.157 83.4123C125.095 83.3809 125.027 83.3698 124.96 83.3803C124.892 83.3908 124.829 83.4224 124.777 83.4717C123.977 84.1985 123.065 84.6309 122.249 85.3117C121.873 85.6061 120.609 84.1341 120.321 84.2629C119.897 84.4653 119.585 84.7045 119.721 85.3025C120.289 87.6669 120.113 87.4185 119.817 87.6393C118.945 88.2833 118.217 88.5593 118.273 89.3781C118.273 90.0405 120.017 89.9945 120.673 90.0037C121.329 90.0129 121.193 90.3349 121.417 90.7581C122.417 92.6533 123.017 93.7481 123.513 91.5953C123.945 89.8105 123.409 90.0037 126.065 89.9025C127.201 89.8013 126.345 88.6237 125.129 87.7313ZM124.561 89.0653C123.625 89.2033 123.233 89.2309 123.129 89.8841C123.043 90.4161 122.912 90.9369 122.737 91.4389C122.695 91.404 122.658 91.3639 122.625 91.3193C121.025 88.6145 122.265 89.3137 119.329 89.0377C118.745 89.0377 120.353 88.4121 120.825 87.1977C121.001 86.7469 120.177 85.0633 120.641 85.3577C122.049 86.2133 121.593 85.9005 121.769 86.0201C122.297 86.3973 123.865 84.9161 124.465 84.7137C124.681 86.2317 123.161 87.1517 124.593 88.3109C125.601 89.1113 125.465 88.9365 124.561 89.0653Z" fill="#000001"/>
<path d="M116.208 100.179C113.936 98.799 112.104 99.8294 109.304 98.0078C108.499 97.3599 107.522 97.0601 106.544 97.1614C105.864 97.3638 99.9597 94.4014 98.6877 91.1814C98.4185 90.3416 98.2777 89.4545 98.2717 88.5594C98.2157 87.8602 101.208 90.8594 104.104 89.2218C104.179 89.1916 104.245 89.1373 104.294 89.0654C104.343 88.9934 104.373 88.9069 104.38 88.8159C104.388 88.7249 104.373 88.6334 104.336 88.552C104.3 88.4707 104.244 88.403 104.176 88.357C103.127 87.8508 102.243 86.9788 101.648 85.8638C101.552 85.6798 101.44 85.3118 101.808 85.597C105.064 88.1454 109.336 85.4222 108.032 84.677C106.872 84.339 105.843 83.5691 105.104 82.4874C104.944 82.2574 105.104 82.2942 105.2 82.3586C107.6 83.5914 110.976 83.4166 112.88 81.3098C113.872 80.2058 110.688 79.7366 109.992 75.431C109.296 71.1254 111.592 68.301 111.992 60.9502C112.2 57.123 109.72 50.0298 108.152 47.3802C103.888 40.1858 97.7517 36.6714 90.0957 34.169C88.2832 33.6893 86.3943 33.7494 84.6077 34.3438C84.2877 34.491 84.3597 35.0982 84.7437 35.0338C87.5066 34.3323 90.3953 34.7414 92.9277 36.193C96.0477 37.8858 102.216 39.4866 106.896 47.0582C117.168 63.6182 104.496 71.8982 110.84 79.4606C112.176 81.0522 112.368 80.7946 111.736 81.227C110.602 81.9559 109.314 82.3044 108.017 82.2329C106.72 82.1613 105.467 81.6726 104.4 80.8222C103.904 80.4542 103.392 80.8222 103.656 81.5122C104.768 84.6034 107.472 85.0082 106.776 85.2842C103.096 86.7102 101.608 84.1158 101.088 83.7846C99.9837 83.1038 99.7837 85.8638 102.824 88.5226C103.456 89.0746 98.1437 88.6054 98.1917 86.609C98.6317 69.7914 97.2237 77.1698 101.472 76.489C105 75.9094 109.072 70.1594 108.096 66.1022C107.44 63.4066 105.272 63.7194 104.728 63.2686C99.4557 58.917 96.6557 57.5738 95.1277 54.8138C93.3197 51.557 86.5757 50.4346 84.1997 54.271C84.1117 54.4182 84.0397 54.455 83.9197 54.271C83.6999 53.9679 83.4285 53.7198 83.1221 53.5419C82.8158 53.3641 82.481 53.2604 82.1384 53.2371C81.7958 53.2138 81.4527 53.2715 81.1303 53.4066C80.8079 53.5417 80.5129 53.7514 80.2637 54.0226C80.1597 54.1514 80.1117 54.1514 80.0717 53.9674C79.6557 51.9986 77.3277 51.0694 75.4157 50.9498C75.1197 50.9498 75.0637 51.0694 75.8317 48.7786C75.9757 48.3554 76.8077 48.2634 78.0397 49.2754C79.1517 50.0666 78.3757 47.1042 76.6077 47.1502C75.8077 47.1502 78.9437 43.2034 79.4317 42.5502C79.6877 42.219 79.7597 42.7894 80.3917 42.8538C80.6557 42.8538 80.8237 42.3754 80.5037 42.0902C76.3997 38.4102 80.7517 30.8478 84.6237 33.2858C85.4237 33.8102 85.8157 32.835 85.0397 32.3658C82.3037 30.8294 79.2077 32.927 78.3437 36.3678C78.2317 36.791 78.2077 36.3034 76.3437 36.8002C75.5088 37.0269 74.7411 37.5039 74.1185 38.1826C73.496 38.8613 73.041 39.7176 72.7997 40.6642C72.6913 41.0985 72.481 41.4901 72.1917 41.7958C70.3517 44.0774 71.2317 46.9846 73.3277 47.7114C73.4797 47.7666 74.0797 47.8494 74.1277 47.5274C74.2557 46.9938 73.8797 46.9846 73.5837 46.8834C70.7837 45.9174 72.4237 41.5842 72.7357 43.1206C73.0477 44.657 74.8557 46.589 75.2477 45.7978C75.6397 45.0066 72.3997 44.0498 73.5997 40.5998C74.5437 37.8398 78.1197 36.9198 78.1117 37.9962C78.0637 41.4002 79.3757 41.6762 79.0557 42.0626C77.4557 43.9854 76.6557 44.6662 75.6717 47.0582C75.6006 47.2646 75.4671 47.4345 75.2957 47.5366C74.0877 48.1806 73.6397 50.2966 74.1037 49.9838C75.0957 49.2202 74.7757 49.2662 74.5277 50.6922C74.4077 51.3638 73.6077 50.7474 71.5917 51.9986C67.9997 54.2802 69.7437 59.699 72.7997 62.1002C73.9597 63.0202 70.5117 64.299 73.9357 73.7474C73.9517 73.7779 73.9611 73.8123 73.963 73.8479C73.965 73.8834 73.9594 73.9189 73.9469 73.9515C73.9343 73.984 73.9151 74.0125 73.8908 74.0347C73.8666 74.0568 73.8381 74.0719 73.8077 74.0786C72.5494 74.7299 71.1875 75.0745 69.8077 75.0906C69.3277 75.0354 69.3437 75.6426 69.4877 76.0842C70.6797 79.7642 73.9837 80.1046 73.3597 80.5278C70.8397 82.2574 70.8957 81.9354 70.2237 82.1194C70.0997 82.1334 69.9856 82.2031 69.9062 82.3134C69.8268 82.4237 69.7885 82.5656 69.7997 82.7082C69.7437 83.4534 70.2477 83.8766 70.9517 84.4562C73.9597 86.9218 76.9197 85.3762 77.0717 85.5418C76.8348 86.4693 76.4525 87.3392 75.9437 88.1086C74.8397 89.7186 77.9837 89.9486 80.5997 88.0534C80.6469 88.0398 80.6964 88.0398 80.7437 88.0534C80.6539 88.7218 80.5256 89.3826 80.3597 90.0314C79.9757 91.4942 79.0077 90.9514 78.6397 92.4694C78.3117 93.877 72.1037 95.8458 71.2957 96.4346C71.0317 96.6186 71.2237 96.7566 68.8077 91.0802C65.3837 83.067 65.6077 83.0762 64.7277 83.4166C62.6797 84.171 63.3917 84.5666 62.1117 81.5766C61.4557 80.0402 46.4877 84.5298 41.8957 90.8134C40.9277 92.1934 41.5117 92.5338 41.8397 92.1934C42.0237 92.0094 43.3037 89.1022 50.5037 85.5234C53.9192 83.8211 57.5246 82.6753 61.2157 82.1194C61.6317 82.0642 61.4637 81.9262 62.2877 84.0238C62.4957 84.5574 42.4957 91.6506 41.9997 92.3774C41.5037 93.1042 40.3997 92.8742 40.7357 92.5798C40.81 92.5217 40.8621 92.4331 40.8815 92.3322C40.9008 92.2313 40.8858 92.1257 40.8397 92.037C39.2397 87.7774 37.4157 87.437 37.6397 86.517C37.6397 86.3422 36.9357 84.4378 37.0637 84.1618C37.1917 83.8858 40.9677 87.7498 40.8397 90.2982C40.8397 90.9422 41.7357 91.2182 41.5917 90.0406C41.1837 86.5906 37.1917 81.8986 36.1357 83.389C35.9517 83.6374 36.7277 85.4498 36.7437 85.9926C36.2317 85.8178 33.4237 83.2326 32.5357 84.5114C32.3357 84.7874 32.4317 84.8242 33.6797 87.4738C33.9917 88.1454 33.0957 87.391 32.2077 86.7838C29.5437 84.9438 30.6077 86.7194 32.0237 90.1694C47.7917 127.512 49.0477 129.729 48.8877 130.76C48.8064 131.31 48.8499 131.875 49.0138 132.401C49.1778 132.926 49.4567 133.394 49.8237 133.759C49.9477 133.906 50.0371 134.087 50.0833 134.285C50.1295 134.483 50.131 134.692 50.0877 134.891C49.9997 137.163 51.4157 136.795 51.3997 138.065C51.4082 138.927 51.693 139.756 52.1997 140.392C53.4157 141.413 52.8957 139.417 51.8157 150.825C51.5117 154.017 52.3757 156.621 52.8477 158.599C53.8477 162.721 57.6477 164.984 60.2877 165.039C60.5597 165.039 60.6717 164.929 60.2877 166.299C59.0637 170.706 60.6157 171.617 58.7757 174.322C58.4502 174.866 58.2619 175.503 58.2317 176.162C58.2419 176.25 58.2782 176.331 58.3343 176.392C58.3905 176.453 58.4632 176.489 58.5402 176.496C58.6171 176.502 58.6937 176.478 58.7569 176.427C58.8202 176.377 58.8664 176.302 58.8877 176.217C59.2717 174.57 60.4877 173.853 60.5357 171.553C60.5357 171.148 60.5837 168.609 60.6637 168.222C61.3757 164.68 61.2237 165.048 61.6317 164.975C64.2317 164.496 64.7837 162.822 66.2477 160.54C67.2717 158.939 69.4477 148.267 70.1277 140.751C70.1277 140.457 70.1277 140.153 70.3597 139.951C70.5917 139.748 71.7437 131.533 71.7197 130.751C71.7197 130.447 71.2557 130.327 71.1597 130.603C70.8957 131.33 70.4957 135.838 69.9917 138.828C69.9357 139.196 69.8077 138.966 68.6077 137.991C67.0077 136.685 66.7757 136.997 64.7837 136.344C61.5837 135.268 62.3837 135.811 64.1677 134.504C66.5677 132.719 66.4077 131.054 66.1357 130.659C65.8637 130.263 64.9997 130.493 66.1357 130.116C76.7197 126.592 80.7757 125.267 82.2237 124.596C83.2237 124.154 83.0237 124.025 82.7837 123.731C82.7837 123.731 81.2637 120.18 71.5837 97.5202C71.4397 97.1706 71.3517 97.2994 73.2717 96.6002C73.3997 96.6002 73.4397 96.6002 73.4637 96.7566C73.9407 99.1625 75.0595 101.337 76.6637 102.976C80.9597 107.125 82.5357 105.681 82.8637 106.315C85.5917 111.661 84.1997 99.1302 83.6637 137.724C83.6637 152.398 84.7917 151.524 86.3117 155.821C86.4317 156.143 87.1117 159.501 87.5837 160.099C92.2637 166.474 96.0077 166.364 100.12 162.509C103.568 159.28 109.352 148.838 109.8 149.233C110.248 149.629 110.984 149.666 111.688 150.218C112.64 150.963 114.128 151.69 115.224 151.322C116.128 151.018 115.888 151.736 120.584 135.866C120.832 135.019 120.368 142.766 118.8 149.822C116.64 159.519 113.2 165.057 114 168.756C114.32 170.191 113.768 170.706 114 173.061C114.8 179.869 114.408 179.437 115.048 179.501C115.688 179.566 114.976 174.211 114.92 173.899C114.432 171.037 115.064 170.219 114.736 168.636C113.888 164.597 118.552 158.102 120.624 143.916C121.536 137.706 120.84 135.286 122.688 129.279C124.992 121.845 126.48 116.61 125.4 108.772C124.6 103.04 123.056 104.337 116.208 100.179ZM41.2797 93.739C43.7757 93.739 39.8957 87.391 53.5757 118.975C53.8157 119.536 52.9357 119.849 52.4237 119.959C52.1197 119.729 52.7917 121.008 45.4637 104.034C40.7997 93.2974 40.7997 93.7298 41.2797 93.7298V93.739ZM33.3757 85.1922C34.4397 85.045 38.9757 88.6054 40.0717 92.1566C38.2078 91.0905 36.4184 89.8602 34.7197 88.4766C34.5677 87.7314 33.5117 85.7258 33.3757 85.183V85.1922ZM48.5197 127.181C48.2557 126.739 31.7197 87.7866 31.6077 87.4646C31.7357 87.4094 31.3037 87.161 38.3117 91.9726C40.5597 93.5182 39.2557 91.5586 43.0557 100.427C51.9677 121.219 51.7997 120.263 51.4157 120.419C46.6237 122.305 49.0077 125.921 48.5197 127.172V127.181ZM49.1837 128.506C49.1932 128.037 49.2306 127.57 49.2957 127.107C49.4957 126.013 48.4477 123.427 49.5677 122.609C51.017 121.595 52.5564 120.762 54.1597 120.125C54.3516 119.954 54.5612 119.812 54.7837 119.701C55.8717 119.425 54.9677 122.121 52.9757 123.381C51.3757 124.421 51.2157 124.522 50.9917 124.835C50.7677 125.148 50.9917 125.543 51.1997 125.461C52.5117 125.019 54.6877 122.323 50.2237 128.221C49.1677 129.628 49.3277 129.72 49.1837 128.497V128.506ZM55.3117 122.986C55.4477 123.372 55.3997 123.308 54.1517 123.593C54.1517 123.593 54.1517 123.593 54.1517 123.519C54.8477 123.032 54.9517 122.48 55.0877 122.517C55.2237 122.553 55.1997 122.701 55.3117 123.013V122.986ZM61.9037 131.211C61.0099 131.622 60.0826 131.931 59.1357 132.131C58.3867 132.174 57.6645 132.464 57.0557 132.968C56.4957 133.575 56.0797 133.888 56.3677 134.228C56.4717 134.357 56.5677 134.458 56.7197 134.274C57.6877 133.115 58.6877 133.17 60.7197 132.701C61.3277 132.563 61.1997 132.213 62.1677 132.103C63.1579 131.907 64.138 131.649 65.1037 131.33C65.9037 131.33 65.2877 133.281 61.1037 135.139C59.0717 136.059 58.1277 136.307 57.4157 137.531C57.2237 137.862 57.0637 138.359 57.4157 138.543C57.9997 138.847 57.6477 137.439 59.7357 136.565C60.0957 136.418 60.1837 136.381 60.3117 138.221C60.5837 142.214 59.3037 143.962 59.1997 145.581C59.1997 145.802 59.4237 146.087 59.6637 145.747C59.9037 145.406 60.5517 143.226 60.6317 142.987C62.4237 136.823 58.2317 134.817 63.8317 136.795C66.3997 137.715 66.7197 137.559 67.7037 138.331C70.0397 140.171 69.6797 138.414 68.5517 147.136C68.0052 150.899 67.2381 154.615 66.2557 158.259C66.0317 159.013 66.3677 156.097 66.2557 153.005C66.1437 148.81 62.3837 141.8 61.9837 141.965C61.1837 142.269 62.7837 143.345 64.7357 149.565C66.0717 153.925 65.3677 159.924 64.4317 161.525C63.2157 163.585 62.1597 164.459 59.0957 163.926C57.7212 163.688 56.439 162.986 55.411 161.91C54.3829 160.835 53.6552 159.433 53.3197 157.881C52.8877 155.839 52.1837 153.484 52.5197 151.009C54.1197 137.761 53.1597 143.897 55.1597 147.062H55.5197C55.4077 146.059 55.3277 146.142 54.2557 142.094C53.9197 140.806 53.9117 140.622 53.5597 140.365C52.0477 139.279 52.3277 139.104 52.0317 137.264C51.8477 136.151 50.6557 136.445 50.8077 134.881C50.8492 134.44 50.7924 133.994 50.6427 133.586C50.4929 133.177 50.2551 132.819 49.9517 132.545C49.3997 131.947 49.5277 130.18 50.4877 129.03C52.1997 126.988 52.3917 126.077 54.0557 124.66C54.3197 124.43 54.3837 124.513 56.8477 123.851C57.3837 123.703 57.0557 123.556 58.1837 123.326C61.1997 122.701 61.9597 121.486 61.9277 122.259C61.8586 122.881 61.6401 123.469 61.2967 123.957C60.9534 124.444 60.4987 124.812 59.9837 125.019C59.3352 125.453 58.6487 125.808 57.9357 126.077C53.1357 127.328 53.3917 131.027 54.1757 129.969C55.1997 128.589 55.0477 128.303 55.4317 129.113C55.7197 129.72 55.5757 129.444 54.6317 130.419C53.8317 131.247 51.1597 133.731 52.4557 133.511C52.6397 133.511 52.7437 133.373 54.4397 131.735C55.6477 130.557 56.1357 129.499 60.0397 129.453C62.2877 129.453 64.0397 128.267 65.5677 127.926C66.1517 127.816 65.9997 129.969 61.9037 131.238V131.211ZM56.3837 129.168C56.2797 129.058 56.3277 129.233 55.8717 128.165C55.7677 127.908 55.9437 127.834 57.0637 127.439C57.2077 127.383 57.3357 127.687 57.6637 128.524C57.7357 128.745 57.5997 128.8 56.3837 129.196V129.168ZM81.6797 123.869C81.0397 124.099 66.6797 128.993 66.6557 129.003C66.4877 129.058 66.3517 129.076 66.4317 128.892C66.7757 128.046 66.4317 126.804 65.5277 127.052C62.5357 127.779 63.0477 128.57 58.7277 128.579C58.3997 128.579 58.5437 128.69 57.9277 127.291C57.8637 127.144 57.9277 127.052 58.0397 127.015C58.8988 126.72 59.7215 126.3 60.4877 125.764C63.3197 124.173 63.2877 120.042 61.0477 121.357C60.0079 121.903 58.9064 122.278 57.7757 122.471C57.2729 122.652 56.7788 122.864 56.2957 123.105C56.0717 123.197 55.7197 122.185 55.6157 121.882C55.5117 121.578 56.6557 118.579 55.0157 118.625C53.6157 119.057 55.4557 120.612 43.2157 93.095C42.8957 92.3774 42.5677 92.7638 47.7917 90.7766C49.9117 89.9762 62.5037 85.183 64.8717 84.1986C65.0957 84.1066 64.8717 83.7202 67.6397 90.2246C82.0477 124.467 82.2717 123.685 81.6797 123.897V123.869ZM99.4637 61.0054C99.4637 60.6374 99.3037 60.6374 103.224 63.563C103.736 63.9402 102.544 63.7838 101.328 65.403C101.096 65.7158 101.088 65.6974 100.752 65.5134C99.2957 64.7682 99.2557 62.9466 99.4637 61.033V61.0054ZM85.3437 54.2802C86.9437 52.7714 92.1437 52.8082 94.1437 55.4118C95.8877 57.6934 91.5677 66.0378 87.3037 62.6062C85.2557 60.9594 83.3517 56.1202 85.3437 54.2802ZM75.0077 58.457C75.0077 57.997 74.5597 52.2746 75.2077 52.3114C76.4244 52.2616 77.6267 52.6265 78.6637 53.3602C80.3837 54.6574 78.4317 63.6182 74.2397 61.8426C73.7917 61.6402 74.9757 60.435 75.0077 58.457ZM72.7997 52.7622C73.2157 52.615 73.5997 52.5046 74.0637 52.3758C74.2077 52.3758 74.2797 52.3758 74.2637 52.5598C73.8477 56.709 75.0157 57.8866 73.6317 61.0698C73.4717 61.4562 73.4397 61.4746 73.1677 61.2262C69.8157 58.0798 68.8797 54.1698 72.7997 52.7622ZM74.2797 62.8822C75.007 63.0672 75.7646 63.0192 76.4698 62.7435C77.1751 62.4677 77.8011 61.9747 78.2797 61.3182C78.7357 60.7846 78.2797 62.8178 80.5197 63.287C80.9837 63.3882 81.1597 62.735 80.8797 62.5786C80.1997 62.183 79.5597 61.999 79.1917 60.6834C78.9037 59.6622 81.6717 60.481 81.5917 58.089C81.5917 57.4542 81.0557 57.4358 80.9357 58.0062C80.7197 58.9906 80.9357 58.8434 79.6557 59.1194C79.5437 59.1194 79.5117 59.1194 79.5517 58.963C80.2557 56.4146 80.0317 55.6878 80.7517 55.0714C81.0635 54.8618 81.4186 54.7523 81.7798 54.7545C82.141 54.7568 82.4951 54.8705 82.805 55.084C83.1148 55.2974 83.3692 55.6027 83.5413 55.9679C83.7135 56.333 83.7972 56.7447 83.7837 57.1598C83.8877 60.1682 86.4237 64.575 89.3837 64.4462C93.5757 64.253 94.7837 59.285 95.5437 58.7422C96.0477 58.3742 96.5757 58.6042 98.7037 60.1038C99.3277 60.5362 97.5117 64.897 100.472 66.3874C100.784 66.5438 100.104 67.0222 100.864 67.3074C100.984 67.3074 101.416 66.4886 102.104 65.8262C105.48 62.5418 109.472 65.2098 106.104 71.4106C105.432 72.6342 104.76 73.6922 101.824 75.0906C98.0077 76.9306 97.5517 65.6974 97.4797 86.1306C97.4797 91.9266 98.0237 93.6654 105.104 97.6122C105.384 97.7686 102.928 99.8754 102.912 99.8846C98.6477 103.399 101.152 101.725 96.4317 103.905C95.6317 104.255 92.3277 105.828 92.2717 105.248C91.6317 99.0934 90.3517 97.6858 89.4717 94.0794C88.6717 90.8962 87.7757 90.0866 87.6957 89.0194C87.5837 87.4554 84.4957 84.4194 84.1197 83.8674C83.9837 83.6834 83.9997 83.6098 84.1997 83.527C93.2157 80.1506 91.8477 77.5838 90.9357 78.2002C89.0797 79.4422 80.7677 82.8646 76.8957 77.7586C72.5997 72.257 72.5037 62.2934 74.2637 62.919L74.2797 62.8822ZM76.7997 88.3202C77.3629 87.1742 77.7626 85.9318 77.9837 84.6402C78.0041 84.5466 77.9984 84.4479 77.9674 84.3582C77.9363 84.2684 77.8815 84.1922 77.8107 84.1403C77.7399 84.0884 77.6567 84.0635 77.5729 84.069C77.4891 84.0745 77.4089 84.1102 77.3437 84.171C74.5677 86.3238 69.6717 82.9474 70.8317 82.8462C71.5277 82.7818 76.1997 80.307 73.9437 79.4422C71.2797 78.421 70.0717 76.0474 70.3917 75.937C71.6413 75.8419 72.8673 75.4995 74.0157 74.925C75.0717 74.3454 74.0157 77.225 78.9357 80.7118C78.7119 80.9988 78.5881 81.3706 78.5881 81.756C78.5881 82.1414 78.7119 82.5133 78.9357 82.8002C80.3117 84.7322 81.3357 85.5602 81.2637 85.7442C81.1437 86.0386 81.2637 86.4434 80.9517 86.6642C79.7597 87.5934 78.1757 88.6422 76.7997 88.3202ZM82.0637 105.037C78.4397 104.383 74.9037 100.262 74.1757 96.8026C74.0397 96.1494 73.9437 96.2138 74.5517 95.9746C76.3357 95.2478 77.2557 94.4658 77.0317 94.9258C76.5837 95.8458 76.9037 97.0326 76.8477 97.4558C76.6397 99.0474 77.5997 100.391 78.9837 101.237C79.1677 101.347 79.1037 101.329 80.3277 101.421C81.1277 101.2 81.2317 101.108 81.3277 101.421C81.503 101.88 81.6396 102.358 81.7357 102.847C82.0557 104.88 82.4717 105.147 82.0557 105.073L82.0637 105.037ZM105.48 153.898C104.759 155.019 103.979 156.089 103.144 157.099C102.016 158.599 101.112 160.273 99.3277 161.847C95.1517 165.527 92.0237 164.607 88.3837 159.703C87.8326 158.625 87.4406 157.45 87.2237 156.225C86.7037 153.806 85.7757 153.134 85.1277 150.393C83.4317 143.226 85.2797 108.597 85.4477 108.422C86.1357 107.695 85.0637 108.054 83.5197 105.736C82.2637 103.896 82.8477 101.927 80.3197 97.1982C80.2692 97.0703 80.1939 96.9573 80.0996 96.868C80.0053 96.7787 79.8945 96.7154 79.7757 96.683C79.2877 96.591 79.6877 97.3178 79.9117 97.8882C80.2477 98.7254 79.5597 98.1918 79.4317 98.1826C79.1037 98.1366 78.8797 98.569 79.9997 99.3234C80.1357 99.4154 80.5037 99.4246 80.5997 99.5718C80.6936 99.7772 80.761 99.9972 80.7997 100.225C80.7997 100.354 80.7997 100.391 80.6957 100.4C79.8157 100.519 79.4317 100.731 78.7037 100.023C78.2877 99.6178 77.5437 98.6978 77.5597 98.0722C77.5997 96.2322 77.3277 95.3122 78.7037 94.3922C79.2397 94.0518 79.3357 93.4722 79.3677 92.7914C79.4237 91.5402 80.5197 92.221 80.9677 90.5926C81.6077 88.2742 84.5357 90.3166 84.1117 89.0194C82.8157 85.1094 78.7517 82.5794 79.3117 81.457C79.8397 80.4726 81.7597 82.3034 82.2637 82.9658C83.8157 84.9806 86.6637 87.7222 86.9197 89.6358C87.0797 90.7766 87.7757 91.1814 88.4717 93.8678C89.7277 98.6886 91.1517 100.74 91.3197 106.067C91.5837 114.347 99.0157 146.124 99.0237 146.151C99.2317 146.648 99.7277 146.446 99.7037 145.921C99.4157 139.748 96.4237 132.94 97.1597 132.894C98.3731 132.798 99.5872 133.071 100.68 133.685C101.416 134.32 105.96 138.966 106.36 139.399C108.016 141.147 109.864 141.754 111.056 143.851C111.904 145.296 112.128 143.143 105.472 153.935L105.48 153.898ZM81.4797 88.449C81.8477 86.2778 81.8077 86.3606 82.0317 86.609C82.4328 87.1153 82.7598 87.6933 82.9997 88.3202C83.1677 88.679 82.6557 88.5502 82.6477 88.5134C81.5037 88.7526 81.3677 88.863 81.4317 88.4858L81.4797 88.449ZM115.816 148.819C115.782 148.896 115.736 148.965 115.68 149.022C115.635 148.971 115.595 148.915 115.56 148.856C113.384 145.176 112.288 144.256 111.776 143.207C111.128 141.892 109.256 140.53 108.128 139.739C107.384 139.215 105.936 137.503 104.792 136.464C102.208 134.118 102.144 132.637 98.4557 132.057C97.8957 131.965 97.0397 132.25 96.9037 132.121C96.7677 131.993 96.9037 131.772 97.5517 130.337C98.0948 129.041 98.7459 127.808 99.4957 126.657C102.808 121.284 102.136 121.56 103.264 119.343C105.248 115.405 105.768 115.883 108.944 111.983C113.296 106.628 113.512 106.509 113.8 105.662C113.928 105.267 113.624 105.083 113.464 105.276C103.512 117.365 104.464 114.936 102.424 119.315C97.9037 129.03 100.544 122.268 96.6877 130.263C96.2797 131.1 91.8877 108.017 92.3117 106.472C92.4317 106.03 92.8797 106.739 96.3117 105.064C101.504 102.516 98.7677 104.586 103.112 100.906C105.312 99.0658 106.312 97.0142 108.544 98.5506C111.424 100.538 112.464 99.719 115.168 100.639C116.6 101.127 116.456 101.669 122.464 104.457C124.224 105.276 124.472 107.061 124.68 108.818C125.712 118.082 124.992 119.205 115.768 148.856L115.816 148.819Z" fill="#000001"/>
<path d="M113.784 17.7835C113.928 17.7835 114.032 17.7835 113.984 18.0687C113.68 19.5683 115.448 20.8287 115.096 21.5555C114.617 22.6072 114.28 23.7363 114.096 24.9043C114.056 25.1803 114.272 25.0331 114.36 25.1159C114.696 25.4471 114.856 23.7175 115.72 21.8499C116.304 20.6079 114.608 19.3659 114.648 18.2987C114.696 16.9279 115.16 17.7099 116.248 18.1055C116.856 18.3263 117.32 18.1055 117.488 18.5655C117.596 18.8112 117.778 19.004 118 19.1087C118.222 19.2134 118.469 19.2231 118.696 19.1359C119.432 18.9151 119.24 19.5683 120.104 19.7799C120.968 19.9915 120.96 19.9455 120.96 20.3135C120.96 20.4423 120.96 20.5803 120.824 20.6171C120.413 20.7784 120.02 20.9978 119.656 21.2703C119.2 21.5187 119.4 21.0955 118.64 21.6659C117.496 22.5215 117.688 21.9787 117.208 22.4111C116.408 23.1563 114.656 25.2815 115.216 25.7875C115.776 26.2935 115.84 24.9687 116.976 23.7727C118.112 22.5767 117.936 23.1563 118.32 22.8527C119.12 22.2823 119.232 22.1995 119.352 22.1903C120.04 22.1259 120.568 21.4635 121.088 21.4083C121.792 21.3347 121.608 20.6263 121.76 20.6815C121.912 20.7367 121.912 20.9115 121.968 21.0679C122.472 22.5123 124.04 19.1083 122.832 18.6575C121.624 18.2067 121.304 19.1819 121.112 19.1267C119.256 18.6483 120.408 18.9243 119.336 18.2895C118.84 17.9951 118.448 18.6851 118.048 18.0319C117.416 16.9831 117.872 18.0319 114.904 16.6703C114.696 16.5783 114.584 16.2471 114.424 16.0263C114.264 15.8055 114.016 15.8055 113.72 15.7135C112.88 15.4835 112.384 17.4799 113.784 17.7835ZM122.488 19.4303C122.736 19.5131 122.552 20.1847 122.328 20.0467C121.48 19.5499 122.192 19.3199 122.488 19.4303V19.4303ZM113.688 16.4311C113.784 16.4311 113.952 16.7531 114.04 16.9095C113.6 17.3235 113.392 16.5599 113.68 16.4311H113.688Z" fill="#000001"/>
<path d="M119.368 116.895C116.712 118.459 113.168 121.302 104.968 121.882C104.656 121.882 104.344 122.047 104.384 122.415C104.424 122.783 111.224 123.197 119.584 117.65C120.688 116.904 120.096 116.472 119.368 116.895Z" fill="#000001"/>
<path d="M106.216 119.407C110.496 117.871 116 112.967 115.648 112.433C114.952 111.412 113.192 115.515 105.984 118.754C105.728 118.864 105.84 119.315 106.216 119.407Z" fill="#000001"/>
<path d="M103.2 56.7917C103.336 56.9573 106.496 60.2509 106.84 59.2297C106.968 58.8433 106.76 58.7329 105.656 57.8497C99.9036 53.3601 97.4636 44.2705 94.7276 42.3201C94.5436 42.1913 94.3916 42.6973 94.4636 42.8537C95.0922 43.6505 95.6621 44.506 96.1676 45.4113C99.5196 51.5753 98.6876 51.1705 103.2 56.7917Z" fill="#000001"/>
<path d="M103.608 103.454C101.792 104.696 101.752 105.294 100.808 105.763C100.184 106.076 95.208 108.312 95.632 109.149C95.864 109.581 95.824 109.232 101.232 106.462C102.001 105.912 102.734 105.297 103.424 104.622C106.16 102.35 106.544 102.387 106.408 101.862C106.168 101.025 104.68 102.727 103.608 103.454Z" fill="#000001"/>
<path d="M101.528 73.1767C103.176 73.1767 103.728 71.0055 103.2 69.8371C103.132 69.7097 103.092 69.5652 103.084 69.4161C103.075 69.2671 103.099 69.1179 103.152 68.9815C103.488 68.0615 105.16 66.3227 105.32 68.7883C105.32 69.0827 105.736 69.1747 105.912 68.7883C106.023 68.5313 106.069 68.2437 106.045 67.9582C106.021 67.6727 105.928 67.4006 105.776 67.1727C105.625 66.9448 105.421 66.7703 105.187 66.6688C104.954 66.5674 104.701 66.5431 104.456 66.5987C103.16 66.9207 101.744 68.8159 102.432 70.3523C102.664 70.8767 102.432 71.9623 101.952 72.0911C101 72.3303 100.936 71.8151 100.704 72.3119C100.472 72.8087 100.984 73.1767 101.528 73.1767Z" fill="#000001"/>
<path d="M96.0003 31.2801C96.0483 30.6545 95.8883 28.8973 97.2403 28.4741C98.3283 28.1245 98.9283 28.2441 99.4163 27.2689C99.8323 26.4409 99.4163 26.1833 99.8083 25.3277C101.12 22.5677 100.448 22.9909 102.208 22.1077C106.912 19.7065 103.008 16.6429 102.592 18.1885C102.376 18.9337 102.792 19.3569 103.072 18.6393C103.216 18.2621 104.744 19.6237 102.944 20.7553C101.28 21.7949 100.472 21.7857 100.024 23.1013C99.5763 24.4169 98.8563 25.2541 98.8803 26.4685C98.8803 27.3333 98.1843 27.3057 97.3763 27.4897C96.7368 27.6911 96.1771 28.1393 95.7911 28.7592C95.405 29.379 95.2162 30.1327 95.2563 30.8937C95.2723 32.5497 95.8963 32.7153 96.0003 31.2801Z" fill="#000001"/>
<path d="M85.9203 38.7043C85.4026 38.6905 84.8882 38.8031 84.4111 39.0346C83.934 39.2661 83.505 39.6113 83.1523 40.0475C82.6803 40.6271 83.1523 41.1515 83.6323 40.6823C83.9898 40.2575 84.434 39.9424 84.9244 39.7657C85.4149 39.5889 85.936 39.5561 86.4403 39.6703C92.4243 40.5903 92.8403 49.0819 98.9603 57.4723C99.6883 58.4567 100.256 58.0979 99.9763 57.5183C98.8469 55.9144 97.8023 54.2339 96.8483 52.4859C91.8003 42.0715 91.3123 39.6243 85.9203 38.7043Z" fill="#000001"/>
<path d="M86.3998 47.2421C86.1198 47.5825 85.9118 48.3185 86.3278 48.1621C86.9038 47.8953 87.4478 47.1133 88.8958 47.1317C90.9038 47.1317 91.6318 50.5173 91.7678 48.7969C91.5998 46.0645 88.6878 44.4177 86.3998 47.2421Z" fill="#000001"/>
<path d="M87.7835 58.0704C88.2155 58.0704 88.2395 57.7392 88.3515 57.2332C88.2235 56.258 87.5515 56.3132 87.3915 56.8744C87.2315 57.4356 87.3115 58.0428 87.7835 58.0704Z" fill="#000001"/>
<path d="M81.304 39.9279C81.304 40.5443 81.304 41.6667 81.856 41.5655C82.584 41.4367 81.384 39.8727 82.496 37.8855C82.6197 37.6101 82.7951 37.3697 83.0096 37.182C83.2241 36.9942 83.4722 36.8637 83.736 36.7999C83.8285 36.7565 83.9095 36.6862 83.9713 36.5959C84.033 36.5055 84.0732 36.3983 84.088 36.2847C84.048 35.0703 81.272 36.4043 81.304 39.9279Z" fill="#000001"/>
<path d="M76.0001 5.85117C76.2401 5.92477 76.5841 5.52917 76.9681 5.45557C77.5441 5.34517 79.0721 5.28997 79.3681 5.96157C80.3201 8.06837 77.0961 10.6996 76.7041 13.6068C76.4561 15.4468 78.1361 15.9252 80.7041 16.744C82.9201 17.4432 78.7921 20.6908 80.0561 22.6504C80.2641 22.9632 80.8561 23.5704 81.3361 24.15C82.5441 25.6036 80.9761 27.5448 81.7681 27.738C82.5601 27.9312 83.1441 24.8952 81.7681 23.3588C80.2401 21.5924 80.0801 22.2088 81.7041 18.9428C82.1281 18.0872 82.3601 16.5876 81.4321 16.1276C80.5041 15.6676 80.6321 16.008 78.4081 15.0144C75.0161 13.5148 81.4641 9.06197 79.9361 5.59357C79.5841 4.59997 78.8401 4.71037 77.8241 4.59997C75.7761 4.54477 75.7041 5.75917 76.0001 5.85117Z" fill="#000001"/>
<path d="M80.6639 69.8095C80.6639 69.4783 80.4879 68.5123 79.8159 68.4939C79.0159 68.4939 78.8959 69.8647 79.4719 70.5363C79.8159 70.9503 80.4719 71.0423 80.6639 69.8095Z" fill="#000001"/>
<path d="M77.7439 56.5157C77.6799 55.5957 77.0479 55.5957 76.9439 55.9453C76.4399 56.9849 77.4879 57.9601 77.7439 56.5157Z" fill="#000001"/>
<path d="M64 88.5406C45.768 95.5234 46.4 94.9806 46.92 96.1398C50.624 104.999 50.496 104.585 51.16 104.668C52.984 104.061 67.864 98.3846 67.96 98.3294C68.984 97.9246 68.392 97.2806 65.656 90.8958C64.696 88.5774 64.728 88.2646 64 88.5406ZM67.456 97.6026L51.2 103.776C51.008 103.776 51.272 104.3 47.656 96.0754C47.472 95.6614 46.504 96.2226 57.92 91.825C59.904 91.0614 61.792 90.2978 63.912 89.4974C64.464 89.295 64.024 88.6694 66.312 94.0974C67.76 97.6302 67.824 97.4646 67.464 97.6026H67.456Z" fill="#000001"/>
<path d="M63.0725 96.9312C62.9685 96.9312 52.6085 100.611 51.8725 101.016C51.5125 101.191 51.1845 101.743 51.6245 101.872C51.7685 101.872 63.4725 97.9432 64.0885 97.1244C63.7685 96.4436 63.4965 96.9128 63.0725 96.9312Z" fill="#000001"/>
<path d="M53.416 96.1308C54.736 95.864 54.688 95.3764 55.464 95.4224C56.944 95.1924 57.504 94.5024 58.848 94.116C60.192 93.7296 60.576 93.84 61.624 93.196C61.88 93.0488 62.056 92.5336 61.512 92.4048C61.416 92.4048 60.8 92.6164 59.912 92.874C56.752 93.794 56.312 94.4748 55.496 94.4564C54.552 94.4564 54.592 94.898 53.184 95.2568C49.984 96.0756 50.504 96.4252 49.648 96.4712C49.544 96.4712 49.376 96.7564 49.344 96.8668C49.272 97.198 50.144 97.3912 50.56 97.1244C51.45 96.5918 52.4186 96.2548 53.416 96.1308V96.1308Z" fill="#000001"/>
<path d="M56.1198 50.2229C57.2878 48.4381 56.5998 48.6957 60.4478 50.2229C60.5279 50.2656 60.6177 50.2779 60.7042 50.258C60.7907 50.2381 60.8695 50.1871 60.9292 50.1123C60.9889 50.0376 61.0263 49.9429 61.0361 49.8421C61.046 49.7412 61.0276 49.6394 60.9838 49.5513C60.5627 48.5003 60.0761 47.4857 59.5278 46.5153C59.1998 46.0369 60.8878 43.9669 60.9198 42.8353C60.9678 41.1701 57.9998 43.9393 57.3518 42.9641C56.8318 42.1821 56.0398 41.3173 55.5198 40.3697C55.2878 39.9373 54.8398 39.7809 54.7678 40.2961C54.1518 44.9973 55.1438 43.8381 52.8638 44.8501C51.5918 45.4205 51.5518 45.4113 51.4798 45.8805C51.2558 47.3617 54.2318 47.5733 54.2398 48.2449C54.2878 51.2717 54.1838 51.0877 54.2398 51.7225C54.2511 51.8077 54.2821 51.8877 54.3297 51.9543C54.3773 52.0208 54.4395 52.0714 54.51 52.1006C54.5805 52.1298 54.6565 52.1366 54.73 52.1202C54.8036 52.1039 54.8719 52.065 54.9278 52.0077C55.3679 51.4522 55.7666 50.8551 56.1198 50.2229ZM54.3198 47.1409C51.5838 45.9633 51.5838 46.2209 54.5918 44.9697C55.2478 44.6937 54.9358 43.0469 55.3918 41.6301C58.2478 44.7029 55.8398 44.4453 60.0158 43.3413C59.3998 45.2365 58.1198 45.7793 58.8558 46.7637C59.2672 47.426 59.6234 48.1314 59.9198 48.8705C60.1198 49.2569 59.1198 48.8705 57.7038 48.2633C56.9038 47.9229 57.0878 47.2329 55.1998 50.2689C54.4638 51.4557 55.5278 47.6561 54.3198 47.1409Z" fill="#000001"/>
<path d="M40.7203 34.1413C41.1043 33.6629 41.1123 33.6629 41.4643 34.1413C41.8226 34.6312 42.0944 35.1968 42.2643 35.8065C42.4083 36.3953 41.8643 36.0825 41.6963 36.0917C40.8963 36.0917 41.2243 36.7817 41.4243 36.8921C43.3923 37.9869 44.2403 35.3833 44.2963 36.2389C44.3843 37.3981 44.3763 38.6585 44.4243 40.1765C44.4243 40.8665 44.9123 41.3909 45.3203 40.9677C45.7283 40.5445 46.8163 39.2749 48.3603 37.5453C50.8883 34.7025 50.9923 34.7853 50.9603 34.2241C50.5923 28.0601 50.1603 29.6241 51.9203 27.4253C54.0483 24.7849 58.3203 19.4121 59.7043 16.1921C61.8403 11.3253 62.6883 6.20085 60.6963 5.94325C58.0323 5.60285 53.4003 8.28005 51.0963 10.6077C49.444 12.2348 47.901 14.0032 46.4803 15.8977C41.6803 21.9605 43.0403 20.9761 40.8803 21.3073C36.5363 21.9513 38.0563 20.8749 32.6563 27.6461C31.9923 28.4833 32.4643 29.0537 32.8963 29.0537C34.193 28.8979 35.4976 28.8487 36.8003 28.9065C36.5743 29.1755 36.4082 29.5034 36.3162 29.8623C36.2243 30.2211 36.2092 30.6002 36.2723 30.9673C36.4392 31.6964 36.7736 32.3605 37.2403 32.8901C37.5043 33.0833 37.6963 32.7429 37.5923 32.3841C37.5443 32.2001 36.7203 30.8017 36.9603 30.4613C37.2003 30.1209 37.8083 30.4613 39.5763 32.0069C40.0643 32.4301 39.1283 32.8349 38.3363 34.1781C37.8803 34.9693 38.6883 35.3741 38.9043 35.5581C39.1203 35.7421 39.3203 35.7789 39.5363 35.6041L40.7203 34.1413ZM36.8003 40.3329C31.2003 50.4529 29.9523 61.0513 34.2723 74.2257C34.3523 74.4557 34.6243 75.4953 34.8963 75.2837C35.7603 74.6305 31.1923 66.3505 32.6963 54.1697C34.0803 42.9641 40.5123 36.4965 40.6963 35.5213C40.7923 35.0429 40.6403 34.8405 40.1443 35.0613C38.9187 36.7217 37.801 38.4837 36.8003 40.3329V40.3329ZM39.2963 30.7189C37.7363 29.3665 37.1203 29.9645 37.4163 29.3849C37.5603 29.0997 37.7043 28.7777 37.9363 28.8973C39.0483 29.0077 39.4323 29.4953 40.7763 30.5441C41.0083 30.7281 40.8243 30.9305 40.4563 31.3445C40.2403 31.6205 40.2883 31.5653 39.3283 30.7189H39.2963ZM39.2003 34.8773C38.6083 34.4081 38.3443 35.3649 45.4723 25.8153C45.8243 25.3553 46.2723 24.8953 46.4883 25.5117C46.5123 25.5393 39.2403 34.8589 39.2003 34.8773ZM43.4803 35.7973C42.7763 36.4873 43.4083 35.7973 42.1923 33.9573C41.6323 33.1109 41.5603 33.1109 41.6643 32.9729C42.3123 32.0989 42.1763 31.6849 43.7283 35.1717C43.8883 35.4201 43.7283 35.5581 43.5043 35.7789L43.4803 35.7973ZM45.3363 39.9557C45.0803 40.2593 45.2003 40.2501 44.9203 35.6409C44.9203 35.2085 48.1203 32.3289 49.1523 30.9121C50.1843 29.4953 49.9523 29.7345 50.2963 33.9665C50.4643 34.3437 50.4003 34.1965 45.3603 39.9373L45.3363 39.9557ZM52.8003 10.3961C54.4155 9.02507 56.2307 7.99692 58.1603 7.36005C61.1923 6.44005 60.8563 7.36005 61.0003 8.73085C60.9226 10.0327 60.6745 11.3137 60.2643 12.5305C58.3363 17.9401 58.5043 17.4525 57.9763 16.3669C55.5283 11.3529 52.1443 10.8653 52.8003 10.3961ZM51.7683 11.3161C52.7923 10.2029 58.6083 17.0753 57.7683 18.3633C55.3123 22.1537 46.7683 33.1937 44.5123 34.7853C44.0425 33.7337 43.5078 32.7222 42.9123 31.7585C42.7123 31.4181 42.6883 31.6481 45.5123 28.0325C47.1123 25.9349 47.5683 25.6957 47.0083 24.9045C46.7683 24.5641 46.1283 24.0673 45.7203 24.5457C45.3123 25.0241 45.0883 25.3461 43.0803 27.9957C41.2323 30.4245 41.6163 30.1485 40.9603 29.5781C38.3203 27.2873 37.8483 29.0905 39.5363 26.6157C43.322 21.22 47.3994 16.1039 51.7443 11.2977L51.7683 11.3161ZM37.2963 23.0001C37.6243 22.5585 37.6243 22.6321 41.5523 22.0801C42.1683 21.9881 40.4243 23.6165 39.1523 25.8245C38.8643 26.3029 37.7763 27.9773 37.3523 28.0417C37.3523 28.0417 33.3523 28.1797 33.3523 28.1521C33.1843 27.9865 35.3203 25.6405 37.2963 23.0001Z" fill="#000001"/>
<path d="M57.2242 97.3175C58.8242 96.7839 58.9282 96.6183 59.4962 96.6091C59.6301 96.6192 59.7627 96.5737 59.8699 96.4808C59.9771 96.388 60.0517 96.2539 60.0802 96.1031C60.0802 95.0451 56.8802 96.7287 55.3682 97.0231C53.9922 97.2899 50.8642 98.3387 50.4082 98.9091C50.0882 99.3139 50.2642 99.5439 50.6962 99.5715C52.2962 98.9459 52.0802 98.8631 52.6562 98.6515C56.0002 97.6027 53.6962 98.4859 57.2242 97.3175Z" fill="#000001"/>
<path d="M54.4002 68.0799C53.9042 68.1535 52.2562 68.5675 52.0002 68.6503C51.5282 68.7883 50.0482 65.0255 49.6722 66.4239C48.7522 69.8647 50.0162 69.3035 47.6722 69.5335C46.7122 69.6255 46.6962 69.9199 46.7202 70.4535C46.7202 70.8123 46.8322 70.8859 47.4082 71.2907C50.0082 73.1307 48.8722 71.7967 48.6562 75.2007C48.6562 75.6699 48.8642 75.8907 49.1922 75.7711C49.9362 75.4859 51.1122 73.0111 51.6562 73.3331C52.4433 73.6462 53.2444 73.9103 54.0562 74.1243C54.5122 74.2715 54.7042 73.9955 54.6482 73.5907C54.5602 72.9467 53.9442 72.6707 53.3282 71.3643C53.1922 71.0607 53.2242 71.1987 54.7522 69.0919C55.0162 68.7055 55.1362 67.9787 54.4002 68.0799ZM52.6402 71.7599C53.3842 73.2687 53.6882 73.1307 52.2402 72.7627C50.5602 72.3303 51.3202 72.2015 49.5762 74.2347C49.3682 74.4831 49.6162 73.4711 49.6802 72.5143C49.7522 71.3735 47.8322 71.0055 47.5522 70.4075C47.6882 70.4075 47.4482 70.4075 48.6802 70.2695C50.2002 70.1223 49.4802 69.1379 50.1442 67.5739C50.6882 68.1075 51.2482 69.7083 51.7442 69.5887C55.8002 68.5031 51.7602 69.9751 52.6402 71.7599Z" fill="#000001"/>
<path d="M51.4081 21.9144C55.2721 21.6844 55.0001 15.18 51.2881 15.2812C47.2001 15.8516 47.9441 22.08 51.4081 21.9144ZM50.9841 16.1828C51.2956 16.1192 51.6154 16.1357 51.9207 16.2311C52.226 16.3265 52.5092 16.4984 52.7499 16.7345C52.9906 16.9706 53.1829 17.265 53.313 17.5966C53.4431 17.9283 53.5077 18.2889 53.5023 18.6527C53.4969 19.0164 53.4216 19.3743 53.2817 19.7006C53.1418 20.027 52.9409 20.3136 52.6933 20.5401C52.4457 20.7666 52.1576 20.9272 51.8496 21.0106C51.5417 21.0939 51.2215 21.0978 50.9121 21.022C50.4256 20.9029 49.9903 20.5929 49.6807 20.1453C49.3711 19.6977 49.2064 19.1402 49.2149 18.5683C49.2235 17.9964 49.4046 17.4457 49.7273 17.0105C50.0501 16.5753 50.4943 16.2827 50.9841 16.1828Z" fill="#000001"/>
<path d="M42.5835 83.1129C42.0555 83.2233 41.9515 84.0329 42.6315 84.0329C46.1035 83.9685 46.2795 76.7373 42.9355 76.7925C42.572 76.7772 42.209 76.8364 41.8635 76.9673C41.8155 76.4429 42.6635 74.1521 41.7675 72.3673C40.7755 70.3985 37.9035 70.5273 36.9675 73.2413C36.6082 74.4153 36.4543 75.6594 36.5148 76.902C36.5752 78.1446 36.8487 79.3612 37.3195 80.4817C37.5035 80.8957 37.9675 80.6565 37.8555 80.1045C35.4555 72.2569 40.1515 70.2329 41.2075 73.0665C42.0875 75.4309 40.1835 78.0437 41.0075 78.5865C41.5915 78.9637 41.8875 77.4825 43.0155 77.6665C44.4795 77.9609 44.7435 79.7917 44.5035 81.0153C44.0955 83.0301 42.9915 83.0209 42.5835 83.1129Z" fill="#000001"/>
<path d="M34.3042 76.1208C29.8322 67.6752 28.7042 52.9092 34.2322 40.8756C35.5038 38.3118 36.9285 35.8526 38.4962 33.5156C39.2402 32.6784 38.4962 32.2368 38.0882 32.7704C33.4562 39.0724 29.8242 48.1988 29.8242 56.4236C29.8242 68.4756 32.4482 74.3452 33.7602 76.1484C34.4002 76.9948 34.7282 76.9212 34.3042 76.1208Z" fill="#000001"/>
<path d="M30.5918 83.3888C26.5918 84.8332 27.0478 79.4972 31.0078 81.3464C31.0567 81.3804 31.1114 81.4017 31.1682 81.4089C31.2249 81.4161 31.2824 81.4089 31.3365 81.3879C31.3906 81.3668 31.44 81.3325 31.4814 81.2872C31.5227 81.2418 31.555 81.1867 31.5758 81.1256C31.7918 80.5644 31.3678 80.4264 30.9598 80.27C28.7758 79.4328 31.2078 74.6396 34.2318 80.4908C34.4798 80.9692 34.9038 80.638 34.8078 80.27C34.1678 77.648 31.6078 75.67 30.0078 77.28C29.6676 77.6107 29.44 78.0692 29.3654 78.5742C29.2907 79.0793 29.3738 79.5985 29.5998 80.04C27.7118 80.0952 27.1998 80.96 26.9838 82.0916C26.5518 84.7596 30.2878 85.0724 31.2398 84.0236C31.6078 83.6004 31.3038 83.1312 30.5918 83.3888Z" fill="#000001"/>
<path d="M25.1598 67.0406C25.0398 66.7646 24.9598 66.231 24.4078 66.6174C22.1598 68.1906 22.6158 67.9422 22.0078 67.197C21.0958 66.1022 20.8638 65.679 20.4078 65.8078C20.2078 65.8722 20.2558 66.3414 20.3038 66.5898C20.8558 69.5338 21.0318 68.7518 19.9918 69.1934C19.7518 69.3038 19.5438 69.4326 18.5678 69.9018C18.4759 69.9502 18.398 70.028 18.3434 70.1258C18.2888 70.2237 18.2598 70.3375 18.2598 70.4538C18.2598 70.57 18.2888 70.6838 18.3434 70.7817C18.398 70.8796 18.4759 70.9573 18.5678 71.0058C21.5438 72.2846 20.8718 72.0454 21.0718 73.4898C21.3038 75.1457 21.3438 75.5598 21.6478 75.5966C21.7717 75.6158 21.8977 75.5874 22.0062 75.5159C22.1147 75.4444 22.1996 75.3336 22.2478 75.2009C23.4958 71.7142 22.6798 72.6342 23.8478 72.8734C25.8558 73.2874 25.9598 73.5174 26.2478 73.1126C26.5358 72.7078 25.9518 72.1098 25.6638 71.7326C23.7758 69.2302 24.3358 70.8862 25.1598 67.0406ZM24.5678 72.0729C24.1404 72.0362 23.7252 71.8917 23.3518 71.6498C22.3438 71.2726 22.3438 73.591 21.9438 73.9866C21.847 73.5003 21.7934 73.004 21.7838 72.5054C21.7838 71.4934 21.3038 71.4198 19.8478 70.4998C19.5278 70.2882 20.2558 70.2054 21.0798 69.727C21.9038 69.2486 21.2478 68.3286 21.2318 67.6846C21.2318 67.2982 21.7918 68.2274 22.1438 68.7334C22.6878 69.5154 22.7518 68.2734 24.2798 67.749C24.0238 69.267 23.1358 69.6626 23.9918 70.7114C25.2398 72.2478 24.9038 72.1097 24.5678 72.0729Z" fill="#000001"/>
</svg>
