<svg width="147" height="147" viewBox="0 0 147 147" fill="none" xmlns="http://www.w3.org/2000/svg">
<path d="M21.5219 27.962H119.621C122.872 27.962 125.507 30.5972 125.507 33.8479V88.7834C125.507 109.371 108.817 126.061 88.2292 126.061H52.9136C32.3257 126.061 15.6359 109.371 15.6359 88.7834V33.8479C15.6359 30.5972 18.2712 27.962 21.5219 27.962Z" fill="white" stroke="#382622" stroke-width="3.92396"/>
<path d="M14.2345 122.137H126.908C128.301 122.137 129.431 123.266 129.431 124.66C129.431 129.768 125.29 133.909 120.182 133.909H20.9613C15.8531 133.909 11.712 129.768 11.712 124.66C11.712 123.266 12.8414 122.137 14.2345 122.137Z" fill="white" stroke="#382622" stroke-width="3.92396"/>
<path d="M25.4458 45.6198C25.4458 41.2855 28.9595 37.7719 33.2938 37.7719H107.849C112.183 37.7719 115.697 41.2855 115.697 45.6198V84.8594C115.697 102.197 101.642 116.251 84.3053 116.251H56.8375C39.5004 116.251 25.4458 102.197 25.4458 84.8594V45.6198Z" fill="#572908"/>
<path fill-rule="evenodd" clip-rule="evenodd" d="M84.3053 116.251H84.3053C101.642 116.251 115.697 102.197 115.697 84.8594V45.6198C115.697 41.2855 112.183 37.7719 107.849 37.7719H84.3053V116.251Z" fill="#371604"/>
<rect x="33.2938" y="49.5438" width="8.51721" height="29.8104" rx="3.92396" fill="white"/>
<path d="M41.811 89.1181C41.811 91.4701 39.9044 93.3767 37.5524 93.3767C35.2004 93.3767 33.2938 91.4701 33.2938 89.1181C33.2938 86.7661 35.2004 84.8594 37.5524 84.8594C39.9044 84.8594 41.811 86.7661 41.811 89.1181Z" fill="white"/>
</svg>
