<svg width="56" height="78" viewBox="0 0 56 78" fill="none" xmlns="http://www.w3.org/2000/svg">
<path d="M4.12109 18H52.1211L46.8415 70.796C46.4991 74.2198 46.3279 75.9316 45.1852 76.9658C44.0424 78 42.322 78 38.8812 78H17.361C13.9202 78 12.1998 78 11.057 76.9658C9.91426 75.9316 9.74307 74.2198 9.4007 70.796L4.12109 18Z" fill="#E3DFE3"/>
<path opacity="0.5" d="M10.1211 18H20.1211L26.1211 78H16.1211L10.1211 18Z" fill="white"/>
<g opacity="0.06">
<path d="M52.1211 18H44.1211L38.1211 78H38.8812C42.322 78 44.0424 78 45.1852 76.9658C46.3279 75.9316 46.4991 74.2198 46.8415 70.796L52.1211 18Z" fill="black" style="mix-blend-mode:soft-light"/>
</g>
<g opacity="0.06">
<path fill-rule="evenodd" clip-rule="evenodd" d="M52.1211 18H4.12109L4.32109 20H51.9211L52.1211 18Z" fill="black" style="mix-blend-mode:soft-light"/>
</g>
<path fill-rule="evenodd" clip-rule="evenodd" d="M8.12109 58L8.52109 62H47.7211L48.1211 58H8.12109Z" fill="#D27F55" fill-opacity="0.3"/>
<path fill-rule="evenodd" clip-rule="evenodd" d="M48.7084 24C50.7704 24 51.8015 24 52.3968 24.6568C52.9922 25.3137 52.8912 26.3397 52.6892 28.3918L49.9333 56.3918C49.7645 58.1064 49.6802 58.9637 49.1085 59.4819C48.5369 60 47.6754 60 45.9525 60H10.2904C8.56752 60 7.70607 60 7.13443 59.4819C6.56278 58.9637 6.4784 58.1064 6.30964 56.3918L3.55374 28.3918C3.35176 26.3397 3.25077 25.3137 3.84613 24.6568C4.44149 24 5.47249 24 7.5345 24H48.7084Z" fill="#E59A61"/>
<g opacity="0.4">
<path fill-rule="evenodd" clip-rule="evenodd" d="M16.7207 24L20.3207 60H10.3207L6.7207 24H16.7207Z" fill="white" style="mix-blend-mode:soft-light"/>
</g>
<path style="mix-blend-mode:soft-light" fill-rule="evenodd" clip-rule="evenodd" d="M45.9209 60.0001H45.952C47.6749 60.0001 48.5363 60.0001 49.108 59.482C49.6796 58.9638 49.764 58.1065 49.9327 56.3919L52.6886 28.3919V28.3919C52.8906 26.3398 52.9916 25.3138 52.3963 24.6569C51.8849 24.0928 51.0521 24.0132 49.5207 24.002L45.9209 60.0001Z" fill="black" fill-opacity="0.4"/>
<path fill-rule="evenodd" clip-rule="evenodd" d="M11.1211 34C11.1211 33.4477 11.5688 33 12.1211 33C12.6734 33 13.1211 33.4477 13.1211 34V50C13.1211 50.5523 12.6734 51 12.1211 51C11.5688 51 11.1211 50.5523 11.1211 50V34ZM15.1211 34C15.1211 33.4477 15.5688 33 16.1211 33C16.6734 33 17.1211 33.4477 17.1211 34V50C17.1211 50.5523 16.6734 51 16.1211 51C15.5688 51 15.1211 50.5523 15.1211 50V34ZM20.1211 33C19.5688 33 19.1211 33.4477 19.1211 34V50C19.1211 50.5523 19.5688 51 20.1211 51C20.6734 51 21.1211 50.5523 21.1211 50V34C21.1211 33.4477 20.6734 33 20.1211 33ZM23.1211 34C23.1211 33.4477 23.5688 33 24.1211 33C24.6734 33 25.1211 33.4477 25.1211 34V50C25.1211 50.5523 24.6734 51 24.1211 51C23.5688 51 23.1211 50.5523 23.1211 50V34ZM28.1211 33C27.5688 33 27.1211 33.4477 27.1211 34V50C27.1211 50.5523 27.5688 51 28.1211 51C28.6734 51 29.1211 50.5523 29.1211 50V34C29.1211 33.4477 28.6734 33 28.1211 33ZM31.1211 34C31.1211 33.4477 31.5688 33 32.1211 33C32.6734 33 33.1211 33.4477 33.1211 34V50C33.1211 50.5523 32.6734 51 32.1211 51C31.5688 51 31.1211 50.5523 31.1211 50V34ZM36.1211 33C35.5688 33 35.1211 33.4477 35.1211 34V50C35.1211 50.5523 35.5688 51 36.1211 51C36.6734 51 37.1211 50.5523 37.1211 50V34C37.1211 33.4477 36.6734 33 36.1211 33ZM39.1211 34C39.1211 33.4477 39.5688 33 40.1211 33C40.6734 33 41.1211 33.4477 41.1211 34V50C41.1211 50.5523 40.6734 51 40.1211 51C39.5688 51 39.1211 50.5523 39.1211 50V34ZM44.1211 33C43.5688 33 43.1211 33.4477 43.1211 34V50C43.1211 50.5523 43.5688 51 44.1211 51C44.6734 51 45.1211 50.5523 45.1211 50V34C45.1211 33.4477 44.6734 33 44.1211 33Z" fill="#AB604B" style="mix-blend-mode:darken"/>
<path d="M7.63242 5.02535C8.44088 2.59996 8.84511 1.38726 9.80748 0.693632C10.7698 0 12.0481 0 14.6047 0L40.7576 0C43.3142 0 44.5924 0 45.5548 0.693632C46.5172 1.38726 46.9214 2.59996 47.7299 5.02534L49.7295 11.0242L5.63281 11.0242L7.63242 5.02535Z" fill="#F2EDF2"/>
<path opacity="0.5" d="M14.8202 0L24.007 0L20.3323 11.0242H11.1455L14.8202 0Z" fill="white"/>
<g opacity="0.06">
<path d="M42.3808 11.0239H49.7302L47.7306 5.02511C46.9222 2.59972 46.5179 1.38703 45.5556 0.693393C44.5932 -0.000238779 43.3149 -0.000238779 40.7583 -0.000238779H38.7061L42.3808 11.0239Z" fill="black" style="mix-blend-mode:soft-light"/>
</g>
<rect x="0.121094" y="11.0239" width="55.1208" height="7.34944" rx="1.83736" fill="#F2EDF2"/>
<path opacity="0.5" d="M7.4707 11.0239H16.6575V18.3734H7.4707V11.0239Z" fill="white"/>
<g opacity="0.06">
<path d="M47.8926 11.0239H51.5673C53.2996 11.0239 54.1657 11.0239 54.7039 11.5621C55.242 12.1002 55.242 12.9664 55.242 14.6986C55.242 16.4309 55.242 17.2971 54.7039 17.8352C54.1657 18.3734 53.2996 18.3734 51.5673 18.3734H47.8926V11.0239Z" fill="black" style="mix-blend-mode:soft-light"/>
</g>
</svg>
