<svg width="56" height="90" viewBox="0 0 56 90" fill="none" xmlns="http://www.w3.org/2000/svg">
<path d="M4.24121 18H52.2412L46.8525 82.6644C46.5624 86.1462 46.4173 87.8871 45.2691 88.9435C44.1209 90 42.374 90 38.8801 90H17.6023C14.1084 90 12.3615 90 11.2133 88.9435C10.0651 87.8871 9.92006 86.1462 9.62991 82.6644L4.24121 18Z" fill="#E3DFE3"/>
<path opacity="0.5" d="M10.2412 18H20.2412L26.2412 90H16.2412L10.2412 18Z" fill="white"/>
<g opacity="0.06">
<path d="M52.2412 18H44.2412L38.2412 90H38.8801C42.374 90 44.1209 90 45.2691 88.9435C46.4173 87.8871 46.5624 86.1462 46.8525 82.6644L52.2412 18Z" fill="black" style="mix-blend-mode:soft-light"/>
</g>
<path fill-rule="evenodd" clip-rule="evenodd" d="M52.2412 18H4.24121L4.40788 20H52.0745L52.2412 18Z" fill="black" fill-opacity="0.06"/>
<path fill-rule="evenodd" clip-rule="evenodd" d="M8.07422 64L8.40755 68H48.0742L48.4076 64H8.07422ZM17.4424 90H39.0394L38.8798 90H17.6019L17.4424 90Z" fill="#D27F55" fill-opacity="0.3"/>
<path fill-rule="evenodd" clip-rule="evenodd" d="M48.8936 30C50.9277 30 51.9447 30 52.5389 30.6458C53.1331 31.2916 53.0487 32.3051 52.8797 34.3322L50.5464 62.3322C50.4013 64.0731 50.3288 64.9435 49.7547 65.4718C49.1806 66 48.3072 66 46.5602 66H9.92128C8.17435 66 7.30089 66 6.7268 65.4718C6.15271 64.9435 6.08018 64.0731 5.9351 62.3322L3.60177 34.3322C3.43284 32.3051 3.34838 31.2916 3.94259 30.6458C4.53679 30 5.55384 30 7.58795 30H48.8936Z" fill="#E59A61"/>
<g opacity="0.4">
<path fill-rule="evenodd" clip-rule="evenodd" d="M17.2412 30L20.2412 66H10.2412L7.24121 30H17.2412Z" fill="white" style="mix-blend-mode:soft-light"/>
</g>
<path style="mix-blend-mode:soft-light" fill-rule="evenodd" clip-rule="evenodd" d="M46.2412 65.9999H46.5607C48.3076 65.9999 49.1811 65.9999 49.7552 65.4716C50.3293 64.9434 50.4018 64.0729 50.5469 62.3321L52.8802 34.3321C53.0491 32.305 53.1336 31.2914 52.5394 30.6457C51.98 30.0377 51.0458 30.0021 49.2412 30L46.2412 65.9999Z" fill="black" fill-opacity="0.4"/>
<path fill-rule="evenodd" clip-rule="evenodd" d="M11.2412 40C11.2412 39.4477 11.6889 39 12.2412 39C12.7935 39 13.2412 39.4477 13.2412 40V56C13.2412 56.5523 12.7935 57 12.2412 57C11.6889 57 11.2412 56.5523 11.2412 56V40ZM15.2412 40C15.2412 39.4477 15.6889 39 16.2412 39C16.7935 39 17.2412 39.4477 17.2412 40V56C17.2412 56.5523 16.7935 57 16.2412 57C15.6889 57 15.2412 56.5523 15.2412 56V40ZM20.2412 39C19.6889 39 19.2412 39.4477 19.2412 40V56C19.2412 56.5523 19.6889 57 20.2412 57C20.7935 57 21.2412 56.5523 21.2412 56V40C21.2412 39.4477 20.7935 39 20.2412 39ZM23.2412 40C23.2412 39.4477 23.6889 39 24.2412 39C24.7935 39 25.2412 39.4477 25.2412 40V56C25.2412 56.5523 24.7935 57 24.2412 57C23.6889 57 23.2412 56.5523 23.2412 56V40ZM28.2412 39C27.6889 39 27.2412 39.4477 27.2412 40V56C27.2412 56.5523 27.6889 57 28.2412 57C28.7935 57 29.2412 56.5523 29.2412 56V40C29.2412 39.4477 28.7935 39 28.2412 39ZM31.2412 40C31.2412 39.4477 31.6889 39 32.2412 39C32.7935 39 33.2412 39.4477 33.2412 40V56C33.2412 56.5523 32.7935 57 32.2412 57C31.6889 57 31.2412 56.5523 31.2412 56V40ZM36.2412 39C35.6889 39 35.2412 39.4477 35.2412 40V56C35.2412 56.5523 35.6889 57 36.2412 57C36.7935 57 37.2412 56.5523 37.2412 56V40C37.2412 39.4477 36.7935 39 36.2412 39ZM39.2412 40C39.2412 39.4477 39.6889 39 40.2412 39C40.7935 39 41.2412 39.4477 41.2412 40V56C41.2412 56.5523 40.7935 57 40.2412 57C39.6889 57 39.2412 56.5523 39.2412 56V40ZM44.2412 39C43.6889 39 43.2412 39.4477 43.2412 40V56C43.2412 56.5523 43.6889 57 44.2412 57C44.7935 57 45.2412 56.5523 45.2412 56V40C45.2412 39.4477 44.7935 39 44.2412 39Z" fill="#AB604B" style="mix-blend-mode:darken"/>
<path d="M7.75254 5.02535C8.561 2.59996 8.96523 1.38726 9.92759 0.693632C10.89 0 12.1682 0 14.7248 0L40.8777 0C43.4343 0 44.7126 0 45.6749 0.693632C46.6373 1.38726 47.0415 2.59996 47.85 5.02534L49.8496 11.0242L5.75293 11.0242L7.75254 5.02535Z" fill="#F2EDF2"/>
<path opacity="0.5" d="M14.9403 0L24.1272 0L20.4524 11.0242H11.2656L14.9403 0Z" fill="white"/>
<g opacity="0.06">
<path d="M42.5009 11.0239H49.8503L47.8507 5.02511C47.0423 2.59972 46.638 1.38703 45.6757 0.693393C44.7133 -0.000238779 43.435 -0.000238779 40.8784 -0.000238779H38.8262L42.5009 11.0239Z" fill="black" style="mix-blend-mode:soft-light"/>
</g>
<rect x="0.241211" y="11.0239" width="55.1208" height="7.34944" rx="1.83736" fill="#F2EDF2"/>
<path opacity="0.5" d="M7.59082 11.0239H16.7776V18.3734H7.59082V11.0239Z" fill="white"/>
<g opacity="0.06">
<path d="M48.0127 11.0239H51.6874C53.4197 11.0239 54.2858 11.0239 54.824 11.5621C55.3621 12.1002 55.3621 12.9664 55.3621 14.6986C55.3621 16.4309 55.3621 17.2971 54.824 17.8352C54.2858 18.3734 53.4197 18.3734 51.6874 18.3734H48.0127V11.0239Z" fill="black" style="mix-blend-mode:soft-light"/>
</g>
</svg>
