<svg width="118" height="195" viewBox="0 0 118 195" fill="none" xmlns="http://www.w3.org/2000/svg">
<path d="M16.8907 46.5765H97.9093C99.57 46.5765 100.646 46.5789 101.461 46.651C102.243 46.7203 102.525 46.8375 102.662 46.915C103.102 47.165 103.46 47.5382 103.692 47.989C103.764 48.1287 103.869 48.4154 103.906 49.2C103.944 50.0172 103.901 51.092 103.832 52.7513L98.3678 183.895C98.3036 185.436 98.2601 186.427 98.1641 187.179C98.0725 187.897 97.9572 188.16 97.8792 188.293C97.6361 188.707 97.283 189.046 96.8593 189.271C96.7232 189.344 96.4552 189.448 95.7344 189.51C94.9793 189.574 93.9866 189.577 92.4449 189.577H22.3551C20.8134 189.577 19.8208 189.574 19.0656 189.51C18.3448 189.448 18.0768 189.344 17.9408 189.271C17.517 189.046 17.164 188.707 16.9208 188.293C16.8428 188.16 16.7275 187.897 16.6359 187.179C16.5399 186.427 16.4964 185.436 16.4322 183.895L10.9679 52.7513C10.8988 51.092 10.8563 50.0172 10.8945 49.2C10.9311 48.4154 11.0365 48.1287 11.1082 47.989C11.3397 47.5382 11.6977 47.165 12.1384 46.915C12.275 46.8375 12.5571 46.7203 13.3395 46.651C14.1544 46.5789 15.23 46.5765 16.8907 46.5765Z" fill="white" stroke="#382622" stroke-width="5.2"/>
<rect x="54.8" y="2.37646" width="10.4" height="46.8" rx="5.2" fill="#382622"/>
<rect x="54.8765" y="10.6401" width="10.4" height="31.9618" rx="5.2" transform="rotate(-90 54.8765 10.6401)" fill="#382622"/>
<path d="M4.21481 37.1321C4.9226 35.0087 6.90972 33.5765 9.14796 33.5765H105.652C107.89 33.5765 109.877 35.0087 110.585 37.1321L112.319 42.3321C113.441 45.6993 110.935 49.1765 107.385 49.1765H7.41463C3.86533 49.1765 1.35909 45.6993 2.48147 42.3321L4.21481 37.1321Z" fill="#382622"/>
<path d="M21.142 62.5382C21.0642 59.6133 23.4141 57.2 26.3401 57.2H88.4599C91.3859 57.2 93.7358 59.6133 93.6581 62.5382L91.1037 158.6H23.6963L21.142 62.5382Z" fill="#8E4917"/>
<path d="M23.6 158.6H91.2L90.1729 177.088C90.0198 179.844 87.7407 182 84.9809 182H29.8191C27.0593 182 24.7802 179.844 24.6271 177.088L23.6 158.6Z" fill="#572908"/>
<path fill-rule="evenodd" clip-rule="evenodd" d="M65.2 158.6H91.1037L93.6581 62.5382C93.7358 59.6133 91.3859 57.2 88.4599 57.2H65.2V158.6Z" fill="#7A3D11"/>
<path fill-rule="evenodd" clip-rule="evenodd" d="M65.2 182H84.9809C87.7407 182 90.0198 179.844 90.1729 177.088L91.2 158.6H65.2V182Z" fill="#371604"/>
<rect x="26.2" y="164.319" width="14.2937" height="14.2937" rx="2.6" transform="rotate(-24.5661 26.2 164.319)" fill="white" fill-opacity="0.7"/>
<rect x="51.7687" y="160.977" width="14.2937" height="14.2937" rx="2.6" transform="rotate(19.4886 51.7687 160.977)" fill="white" fill-opacity="0.7"/>
<rect x="67.8" y="165.98" width="14.2937" height="14.2937" rx="2.6" transform="rotate(-32.1391 67.8 165.98)" fill="white" fill-opacity="0.66"/>
<rect x="36.6" y="146.119" width="14.2937" height="14.2937" rx="2.6" transform="rotate(-24.5661 36.6 146.119)" fill="white" fill-opacity="0.7"/>
<rect x="62.1687" y="142.777" width="14.2937" height="14.2937" rx="2.6" transform="rotate(19.4886 62.1687 142.777)" fill="white" fill-opacity="0.7"/>
<rect x="26.2" y="73.0822" width="7.8" height="60.5741" rx="3.9" transform="rotate(-2.07338 26.2 73.0822)" fill="white"/>
<circle cx="30.1" cy="66.3" r="3.9" fill="white"/>
</svg>
