<svg width="118" height="195" viewBox="0 0 118 195" fill="none" xmlns="http://www.w3.org/2000/svg">
<path d="M17.4908 46.5765H98.5093C100.17 46.5765 101.246 46.5789 102.061 46.651C102.843 46.7203 103.125 46.8375 103.262 46.915C103.702 47.165 104.06 47.5382 104.292 47.989C104.364 48.1287 104.469 48.4154 104.506 49.2C104.544 50.0172 104.501 51.092 104.432 52.7513L98.9678 183.895C98.9036 185.436 98.8601 186.427 98.7641 187.179C98.6725 187.897 98.5572 188.16 98.4792 188.293C98.2361 188.707 97.8831 189.046 97.4593 189.271C97.3233 189.344 97.0553 189.448 96.3345 189.51C95.5793 189.574 94.5867 189.577 93.045 189.577H22.9551C21.4134 189.577 20.4208 189.574 19.6656 189.51C18.9448 189.448 18.6768 189.344 18.5408 189.271C18.117 189.046 17.764 188.707 17.5209 188.293C17.4428 188.16 17.3276 187.897 17.2359 187.179C17.14 186.427 17.0964 185.436 17.0322 183.895L11.5679 52.7513C11.4988 51.092 11.4564 50.0172 11.4945 49.2C11.5311 48.4154 11.6365 48.1287 11.7083 47.989C11.9397 47.5382 12.2977 47.165 12.7384 46.915C12.875 46.8375 13.1571 46.7203 13.9395 46.651C14.7544 46.5789 15.83 46.5765 17.4908 46.5765Z" fill="white" stroke="#382622" stroke-width="5.2"/>
<rect x="55.4" y="2.37646" width="10.4" height="46.8" rx="5.2" fill="#382622"/>
<rect x="55.4766" y="10.6401" width="10.4" height="31.9618" rx="5.2" transform="rotate(-90 55.4766 10.6401)" fill="#382622"/>
<path d="M4.81484 37.1321C5.52264 35.0087 7.50976 33.5765 9.748 33.5765H106.252C108.49 33.5765 110.477 35.0087 111.185 37.1321L112.919 42.3321C114.041 45.6993 111.535 49.1765 107.985 49.1765H8.01467C4.46537 49.1765 1.95912 45.6993 3.08151 42.3321L4.81484 37.1321Z" fill="#382622"/>
<path fill-rule="evenodd" clip-rule="evenodd" d="M45.0001 124.8H64.7809C67.5408 124.8 69.8198 122.644 69.9729 119.888L71.0001 101.4H45.0001V124.8Z" fill="#E7C8AA"/>
<path d="M21.7383 62.5348C21.6625 59.6111 24.0119 57.2 26.9366 57.2H89.0635C91.9881 57.2 94.3375 59.6111 94.2617 62.5348L91.7037 161.2H24.2963L21.7383 62.5348Z" fill="#FFE7CB"/>
<path d="M24.2 158.6H91.8L90.7729 177.088C90.6198 179.844 88.3407 182 85.5809 182H30.4192C27.6594 182 25.3803 179.844 25.2272 177.088L24.2 158.6Z" fill="#FFDF8E"/>
<path fill-rule="evenodd" clip-rule="evenodd" d="M65.8 158.6H91.7038L94.2581 62.5382C94.3359 59.6133 91.986 57.2 89.0599 57.2H65.8V158.6Z" fill="#E7C8AA"/>
<path fill-rule="evenodd" clip-rule="evenodd" d="M65.8 182H85.5809C88.3407 182 90.6198 179.844 90.7729 177.088L91.8001 158.6H65.8V182Z" fill="#FFEAB4" style="mix-blend-mode:multiply"/>
<rect x="26.8" y="164.319" width="14.2937" height="14.2937" rx="2.6" transform="rotate(-24.5661 26.8 164.319)" fill="white" fill-opacity="0.7"/>
<rect x="52.3688" y="160.977" width="14.2937" height="14.2937" rx="2.6" transform="rotate(19.4886 52.3688 160.977)" fill="white" fill-opacity="0.7"/>
<rect x="68.4" y="165.98" width="14.2937" height="14.2937" rx="2.6" transform="rotate(-32.1391 68.4 165.98)" fill="white" fill-opacity="0.66"/>
<rect x="37.2001" y="146.119" width="14.2937" height="14.2937" rx="2.6" transform="rotate(-24.5661 37.2001 146.119)" fill="white" fill-opacity="0.7"/>
<rect x="62.7687" y="142.777" width="14.2937" height="14.2937" rx="2.6" transform="rotate(19.4886 62.7687 142.777)" fill="white" fill-opacity="0.7"/>
<rect x="26.8" y="73.0822" width="7.8" height="60.5741" rx="3.9" transform="rotate(-2.07338 26.8 73.0822)" fill="white"/>
<circle cx="30.7" cy="66.3" r="3.9" fill="white"/>
</svg>
