<svg width="147" height="147" viewBox="0 0 147 147" fill="none" xmlns="http://www.w3.org/2000/svg">
<mask id="path-1-inside-1_71_7210" fill="white">
<path d="M111.231 34.8701C115.168 34.8701 119.067 35.5543 122.704 36.8838C126.342 38.2132 129.647 40.1618 132.431 42.6183C135.215 45.0747 137.423 47.991 138.93 51.2005C140.436 54.4101 141.212 57.85 141.212 61.324C141.212 64.798 140.436 68.238 138.93 71.4475C137.423 74.657 135.215 77.5733 132.431 80.0298C129.647 82.4863 126.342 84.4348 122.704 85.7643C119.067 87.0937 115.168 87.778 111.231 87.778L111.231 73.8416C113.094 73.8416 114.939 73.5179 116.66 72.8888C118.381 72.2597 119.945 71.3377 121.262 70.1753C122.58 69.0129 123.625 67.633 124.338 66.1143C125.05 64.5956 125.417 62.9679 125.417 61.324C125.417 59.6802 125.05 58.0524 124.338 56.5337C123.625 55.015 122.58 53.6351 121.262 52.4727C119.945 51.3104 118.381 50.3883 116.66 49.7593C114.939 49.1302 113.094 48.8064 111.231 48.8064L111.231 34.8701Z"/>
</mask>
<path d="M111.231 34.8701C115.168 34.8701 119.067 35.5543 122.704 36.8838C126.342 38.2132 129.647 40.1618 132.431 42.6183C135.215 45.0747 137.423 47.991 138.93 51.2005C140.436 54.4101 141.212 57.85 141.212 61.324C141.212 64.798 140.436 68.238 138.93 71.4475C137.423 74.657 135.215 77.5733 132.431 80.0298C129.647 82.4863 126.342 84.4348 122.704 85.7643C119.067 87.0937 115.168 87.778 111.231 87.778L111.231 73.8416C113.094 73.8416 114.939 73.5179 116.66 72.8888C118.381 72.2597 119.945 71.3377 121.262 70.1753C122.58 69.0129 123.625 67.633 124.338 66.1143C125.05 64.5956 125.417 62.9679 125.417 61.324C125.417 59.6802 125.05 58.0524 124.338 56.5337C123.625 55.015 122.58 53.6351 121.262 52.4727C119.945 51.3104 118.381 50.3883 116.66 49.7593C114.939 49.1302 113.094 48.8064 111.231 48.8064L111.231 34.8701Z" fill="white" stroke="#382622" stroke-width="6.5" mask="url(#path-1-inside-1_71_7210)"/>
<path d="M16.5271 24.375H109.342C112.034 24.375 114.217 26.5576 114.217 29.25V96.0657C114.217 113.118 100.394 126.941 83.342 126.941H42.5271C25.4753 126.941 11.6521 113.118 11.6521 96.0657V29.25C11.6521 26.5576 13.8347 24.375 16.5271 24.375Z" fill="white" stroke="#382622" stroke-width="3.25"/>
<path d="M10.5311 123.136H118.865C120.194 123.136 121.271 124.214 121.271 125.542C121.271 130.211 117.487 133.995 112.819 133.995H16.5777C11.9094 133.995 8.125 130.211 8.125 125.542C8.125 124.214 9.20224 123.136 10.5311 123.136Z" fill="white" stroke="#382622" stroke-width="3.25"/>
<path fill-rule="evenodd" clip-rule="evenodd" d="M26 31.6201C22.4101 31.6201 19.5 34.5302 19.5 38.1201V93.3701H107.25V38.1201C107.25 34.5302 104.34 31.6201 100.75 31.6201H26ZM84.5 116.12C97.0645 116.12 107.25 105.935 107.25 93.3701H19.5C19.5 105.935 29.6855 116.12 42.25 116.12H84.5Z" fill="#572908"/>
<path fill-rule="evenodd" clip-rule="evenodd" d="M78 116.12H84.5C97.0645 116.12 107.25 105.935 107.25 93.3701L78 93.3701H107.25V38.1201C107.25 34.5302 104.34 31.6201 100.75 31.6201H78V93.3701V116.12Z" fill="#371604"/>
<path d="M24.1357 47.4413C24.1357 45.4933 25.7149 43.9141 27.6629 43.9141V43.9141C29.6109 43.9141 31.1901 45.4933 31.1901 47.4413V65.3545C31.1901 67.1494 29.735 68.6045 27.9401 68.6045H27.3857C25.5908 68.6045 24.1357 67.1494 24.1357 65.3545V47.4413Z" fill="white"/>
<path d="M31.1901 75.6588C31.1901 77.6069 29.6109 79.186 27.6629 79.186C25.7149 79.186 24.1357 77.6069 24.1357 75.6588C24.1357 73.7108 25.7149 72.1317 27.6629 72.1317C29.6109 72.1317 31.1901 73.7108 31.1901 75.6588Z" fill="white"/>
</svg>
