<svg width="118" height="195" viewBox="0 0 118 195" fill="none" xmlns="http://www.w3.org/2000/svg">
<path d="M17.0907 46.5765H98.1093C99.77 46.5765 100.846 46.5789 101.661 46.651C102.443 46.7203 102.725 46.8375 102.862 46.915C103.302 47.165 103.66 47.5382 103.892 47.989C103.964 48.1287 104.069 48.4154 104.106 49.2C104.144 50.0172 104.101 51.092 104.032 52.7513L98.5678 183.895C98.5036 185.436 98.4601 186.427 98.3641 187.179C98.2725 187.897 98.1572 188.16 98.0792 188.293C97.8361 188.707 97.483 189.046 97.0593 189.271C96.9232 189.344 96.6552 189.448 95.9344 189.51C95.1793 189.574 94.1866 189.577 92.6449 189.577H22.5551C21.0134 189.577 20.0208 189.574 19.2656 189.51C18.5448 189.448 18.2768 189.344 18.1408 189.271C17.717 189.046 17.364 188.707 17.1208 188.293C17.0428 188.16 16.9275 187.897 16.8359 187.179C16.7399 186.427 16.6964 185.436 16.6322 183.895L11.1679 52.7513C11.0987 51.092 11.0563 50.0172 11.0945 49.2C11.1311 48.4154 11.2365 48.1287 11.3082 47.989C11.5397 47.5382 11.8977 47.165 12.3384 46.915C12.475 46.8375 12.757 46.7203 13.5395 46.651C14.3544 46.5789 15.43 46.5765 17.0907 46.5765Z" fill="white" stroke="#382622" stroke-width="5.2"/>
<rect x="55" y="2.37646" width="10.4" height="46.8" rx="5.2" fill="#382622"/>
<rect x="55.0765" y="10.6401" width="10.4" height="31.9618" rx="5.2" transform="rotate(-90 55.0765 10.6401)" fill="#382622"/>
<path d="M4.41482 37.1321C5.12261 35.0087 7.10973 33.5765 9.34797 33.5765H105.852C108.09 33.5765 110.077 35.0087 110.785 37.1321L112.519 42.3321C113.641 45.6993 111.135 49.1765 107.585 49.1765H7.61465C4.06535 49.1765 1.5591 45.6993 2.68149 42.3321L4.41482 37.1321Z" fill="#382622"/>
<path d="M18.8257 62.393C18.7026 59.4387 21.0644 56.9765 24.0212 56.9765H91.1789C94.1357 56.9765 96.4974 59.4387 96.3743 62.393L91.6077 176.793C91.4916 179.578 89.1999 181.777 86.4122 181.777H28.7879C26.0002 181.777 23.7084 179.578 23.5924 176.793L18.8257 62.393Z" fill="#D9B99D"/>
<path fill-rule="evenodd" clip-rule="evenodd" d="M65.4 181.777H86.4122C89.1999 181.777 91.4916 179.578 91.6077 176.793L96.3743 62.393C96.4974 59.4387 94.1357 56.9765 91.1788 56.9765H65.4V181.777Z" fill="#CCA484" fill-opacity="0.5"/>
<rect x="26.4" y="164.319" width="14.2937" height="14.2937" rx="2.6" transform="rotate(-24.5661 26.4 164.319)" fill="white" fill-opacity="0.7"/>
<rect x="51.9687" y="160.977" width="14.2937" height="14.2937" rx="2.6" transform="rotate(19.4886 51.9687 160.977)" fill="white" fill-opacity="0.7"/>
<rect x="68" y="165.98" width="14.2937" height="14.2937" rx="2.6" transform="rotate(-32.1391 68 165.98)" fill="white" fill-opacity="0.66"/>
<rect x="36.8" y="146.119" width="14.2937" height="14.2937" rx="2.6" transform="rotate(-24.5661 36.8 146.119)" fill="white" fill-opacity="0.7"/>
<rect x="62.3687" y="142.776" width="14.2937" height="14.2937" rx="2.6" transform="rotate(19.4886 62.3687 142.776)" fill="white" fill-opacity="0.7"/>
<rect x="23.8" y="73.0822" width="7.8" height="60.5741" rx="3.9" transform="rotate(-2.07338 23.8 73.0822)" fill="white"/>
<circle cx="27.7" cy="66.3" r="3.9" fill="white"/>
</svg>
