<svg width="147" height="147" viewBox="0 0 147 147" fill="none" xmlns="http://www.w3.org/2000/svg">
<mask id="path-1-inside-1_93_4399" fill="white">
<path d="M108.481 38.1201C112.418 38.1201 116.317 38.8043 119.954 40.1338C123.592 41.4632 126.897 43.4118 129.681 45.8683C132.465 48.3247 134.673 51.241 136.18 54.4505C137.686 57.6601 138.462 61.1 138.462 64.574C138.462 68.048 137.686 71.488 136.18 74.6975C134.673 77.907 132.465 80.8233 129.681 83.2798C126.897 85.7363 123.592 87.6848 119.954 89.0143C116.317 90.3437 112.418 91.028 108.481 91.028L108.481 77.0916C110.344 77.0916 112.189 76.7679 113.91 76.1388C115.631 75.5097 117.195 74.5877 118.512 73.4253C119.83 72.2629 120.875 70.883 121.588 69.3643C122.3 67.8456 122.667 66.2179 122.667 64.574C122.667 62.9302 122.3 61.3024 121.588 59.7837C120.875 58.265 119.83 56.8851 118.512 55.7227C117.195 54.5604 115.631 53.6383 113.91 53.0093C112.189 52.3802 110.344 52.0564 108.481 52.0564L108.481 38.1201Z"/>
</mask>
<path d="M108.481 38.1201C112.418 38.1201 116.317 38.8043 119.954 40.1338C123.592 41.4632 126.897 43.4118 129.681 45.8683C132.465 48.3247 134.673 51.241 136.18 54.4505C137.686 57.6601 138.462 61.1 138.462 64.574C138.462 68.048 137.686 71.488 136.18 74.6975C134.673 77.907 132.465 80.8233 129.681 83.2798C126.897 85.7363 123.592 87.6848 119.954 89.0143C116.317 90.3437 112.418 91.028 108.481 91.028L108.481 77.0916C110.344 77.0916 112.189 76.7679 113.91 76.1388C115.631 75.5097 117.195 74.5877 118.512 73.4253C119.83 72.2629 120.875 70.883 121.588 69.3643C122.3 67.8456 122.667 66.2179 122.667 64.574C122.667 62.9302 122.3 61.3024 121.588 59.7837C120.875 58.265 119.83 56.8851 118.512 55.7227C117.195 54.5604 115.631 53.6383 113.91 53.0093C112.189 52.3802 110.344 52.0564 108.481 52.0564L108.481 38.1201Z" fill="white" stroke="#382622" stroke-width="6.5" mask="url(#path-1-inside-1_93_4399)"/>
<path d="M13.7771 24.375H106.592C109.284 24.375 111.467 26.5576 111.467 29.25V96.0657C111.467 113.118 97.6438 126.941 80.592 126.941H39.7771C22.7253 126.941 8.9021 113.118 8.9021 96.0657V29.25C8.9021 26.5576 11.0847 24.375 13.7771 24.375Z" fill="white" stroke="#382622" stroke-width="3.25"/>
<path d="M5.4798 123.136H118.417C117.62 129.263 112.382 133.995 106.038 133.995H17.8588C11.5149 133.995 6.27623 129.263 5.4798 123.136Z" fill="white" stroke="#382622" stroke-width="3.25"/>
<g filter="url(#filter0_di_93_4399)">
<path d="M16.75 99.2201H104.5V99.2201C104.5 108.554 96.9336 116.12 87.6 116.12H33.65C24.3164 116.12 16.75 108.554 16.75 99.2201V99.2201Z" fill="#572908"/>
<path d="M75.25 99.2201H104.5V99.2201C104.5 108.554 96.9336 116.12 87.6 116.12H75.25V99.2201Z" fill="#572908" fill-opacity="0.56" style="mix-blend-mode:multiply"/>
<path d="M16.75 38.1201C16.75 34.5303 19.6601 31.6201 23.25 31.6201H98C101.59 31.6201 104.5 34.5303 104.5 38.1201V99.2201H16.75V38.1201Z" fill="#D9B99D"/>
<path d="M75.25 31.6201H98C101.59 31.6201 104.5 34.5303 104.5 38.1201V99.2201H75.25V31.6201Z" fill="#D9B99D" fill-opacity="0.69" style="mix-blend-mode:multiply"/>
</g>
<g filter="url(#filter1_d_93_4399)">
<rect x="23.25" y="41.3701" width="7.05433" height="24.6903" rx="3.25" fill="white"/>
<path d="M30.3043 73.1148C30.3043 75.0629 28.7252 76.642 26.7772 76.642C24.8292 76.642 23.25 75.0629 23.25 73.1148C23.25 71.1668 24.8292 69.5876 26.7772 69.5876C28.7252 69.5876 30.3043 71.1668 30.3043 73.1148Z" fill="white"/>
</g>
<defs>
<filter id="filter0_di_93_4399" x="12.75" y="31.6201" width="95.75" height="92.5" filterUnits="userSpaceOnUse" color-interpolation-filters="sRGB">
<feFlood flood-opacity="0" result="BackgroundImageFix"/>
<feColorMatrix in="SourceAlpha" type="matrix" values="0 0 0 0 0 0 0 0 0 0 0 0 0 0 0 0 0 0 127 0" result="hardAlpha"/>
<feOffset dy="4"/>
<feGaussianBlur stdDeviation="2"/>
<feComposite in2="hardAlpha" operator="out"/>
<feColorMatrix type="matrix" values="0 0 0 0 0 0 0 0 0 0 0 0 0 0 0 0 0 0 0.25 0"/>
<feBlend mode="normal" in2="BackgroundImageFix" result="effect1_dropShadow_93_4399"/>
<feBlend mode="normal" in="SourceGraphic" in2="effect1_dropShadow_93_4399" result="shape"/>
<feColorMatrix in="SourceAlpha" type="matrix" values="0 0 0 0 0 0 0 0 0 0 0 0 0 0 0 0 0 0 127 0" result="hardAlpha"/>
<feOffset dy="4"/>
<feGaussianBlur stdDeviation="2"/>
<feComposite in2="hardAlpha" operator="arithmetic" k2="-1" k3="1"/>
<feColorMatrix type="matrix" values="0 0 0 0 0 0 0 0 0 0 0 0 0 0 0 0 0 0 0.25 0"/>
<feBlend mode="normal" in2="shape" result="effect2_innerShadow_93_4399"/>
</filter>
<filter id="filter1_d_93_4399" x="19.25" y="41.3701" width="15.0544" height="43.2719" filterUnits="userSpaceOnUse" color-interpolation-filters="sRGB">
<feFlood flood-opacity="0" result="BackgroundImageFix"/>
<feColorMatrix in="SourceAlpha" type="matrix" values="0 0 0 0 0 0 0 0 0 0 0 0 0 0 0 0 0 0 127 0" result="hardAlpha"/>
<feOffset dy="4"/>
<feGaussianBlur stdDeviation="2"/>
<feComposite in2="hardAlpha" operator="out"/>
<feColorMatrix type="matrix" values="0 0 0 0 0 0 0 0 0 0 0 0 0 0 0 0 0 0 0.25 0"/>
<feBlend mode="normal" in2="BackgroundImageFix" result="effect1_dropShadow_93_4399"/>
<feBlend mode="normal" in="SourceGraphic" in2="effect1_dropShadow_93_4399" result="shape"/>
</filter>
</defs>
</svg>
