<svg width="63" height="45" viewBox="0 0 63 45" fill="none" xmlns="http://www.w3.org/2000/svg">
<path fill-rule="evenodd" clip-rule="evenodd" d="M10.9326 33.3184C11.0134 33.7031 10.767 34.0805 10.3822 34.1613C7.77966 34.7076 5.71309 35.3602 4.31477 36.0674C3.61452 36.4216 3.11768 36.7718 2.80466 37.1C2.49463 37.4251 2.40604 37.6826 2.40604 37.8771C2.40604 38.0643 2.48768 38.3085 2.76897 38.616C3.05386 38.9275 3.50798 39.2621 4.15263 39.603C5.4406 40.2841 7.35113 40.9192 9.77203 41.4608C14.6023 42.5412 21.3099 43.2157 28.7431 43.2157C36.1762 43.2157 42.8838 42.5412 47.7141 41.4608C50.135 40.9192 52.0455 40.2841 53.3335 39.603C53.9781 39.2621 54.4322 38.9275 54.7171 38.616C54.9984 38.3085 55.0801 38.0643 55.0801 37.8771C55.0801 37.6826 54.9915 37.4251 54.6814 37.1C54.3684 36.7718 53.8716 36.4216 53.1713 36.0674C51.773 35.3602 49.7064 34.7076 47.1039 34.1613C46.7192 34.0805 46.4727 33.7031 46.5535 33.3184C46.6343 32.9337 47.0117 32.6872 47.3964 32.768C50.0514 33.3254 52.2557 34.009 53.8138 34.7971C54.5918 35.1905 55.2446 35.6277 55.7117 36.1175C56.1817 36.6104 56.5037 37.2016 56.5037 37.8771C56.5037 38.5253 56.2069 39.0967 55.7675 39.577C55.3318 40.0533 54.7231 40.4785 53.999 40.8614C52.5495 41.628 50.4988 42.2967 48.0248 42.85C43.0654 43.9594 36.2486 44.6393 28.7431 44.6393C21.2375 44.6393 14.4207 43.9594 9.46127 42.85C6.9873 42.2967 4.93662 41.628 3.48709 40.8614C2.763 40.4785 2.15431 40.0533 1.71857 39.577C1.27923 39.0967 0.982422 38.5253 0.982422 37.8771C0.982422 37.2016 1.30436 36.6104 1.77441 36.1175C2.24148 35.6277 2.89428 35.1905 3.67226 34.7971C5.23042 34.009 7.43472 33.3254 10.0897 32.768C10.4745 32.6872 10.8518 32.9337 10.9326 33.3184Z" fill="#AC7349"/>
<path fill-rule="evenodd" clip-rule="evenodd" d="M49.7485 28.0663C49.5507 27.7423 49.4906 27.3526 49.5814 26.984C49.7888 26.1427 49.9311 25.2676 50.013 24.3748C50.0515 23.9551 50.274 23.5741 50.6205 23.3343C50.9671 23.0944 51.4021 23.0205 51.8084 23.1323C52.1687 23.2314 52.5495 23.2848 52.945 23.2848C55.3037 23.2848 57.2159 21.3727 57.2159 19.0139C57.2159 16.6552 55.3037 14.7431 52.945 14.7431C52.5741 14.7431 52.2163 14.79 51.8762 14.8775C51.45 14.9872 50.997 14.8936 50.6492 14.624C50.3013 14.3543 50.0977 13.939 50.0977 13.4989V10.5903C50.0977 9.89496 50.6001 9.30136 51.2858 9.18631C51.8263 9.09563 52.3807 9.04858 52.945 9.04858C58.4487 9.04858 62.9103 13.5102 62.9103 19.0139C62.9103 24.5177 58.4487 28.9793 52.945 28.9793C52.1513 28.9793 51.3775 28.8862 50.6347 28.7098C50.2653 28.6221 49.9463 28.3904 49.7485 28.0663ZM52.8416 24.7075C52.3539 24.6988 51.8811 24.6288 51.4307 24.5049C51.3869 24.983 51.3267 25.4583 51.2492 25.9285C51.1878 26.3019 51.1154 26.6721 51.0318 27.038C51.0098 27.1339 50.9871 27.2294 50.9637 27.3247C51.4216 27.4335 51.8939 27.5054 52.3771 27.5371C52.5648 27.5494 52.7542 27.5557 52.945 27.5557C57.6625 27.5557 61.4867 23.7314 61.4867 19.0139C61.4867 14.2965 57.6625 10.4722 52.945 10.4722C52.4599 10.4722 51.9843 10.5126 51.5214 10.5903V13.4989C51.9764 13.3817 52.4534 13.3195 52.945 13.3195C56.09 13.3195 58.6395 15.869 58.6395 19.0139C58.6395 22.1589 56.09 24.7084 52.945 24.7084C52.9105 24.7084 52.876 24.7081 52.8416 24.7075Z" fill="#AC7349"/>
<path fill-rule="evenodd" clip-rule="evenodd" d="M6.67665 4.06592C7.06978 4.06592 7.38847 4.38461 7.38847 4.77773V22.5792C7.38847 27.5477 9.10685 32.3575 13.4122 34.6413C16.9323 36.5086 22.0039 38.2328 28.7428 38.2328C35.4817 38.2328 40.5533 36.5086 44.0734 34.6413C48.3787 32.3575 50.0971 27.5477 50.0971 22.5792V4.77773C50.0971 4.38461 50.4158 4.06592 50.8089 4.06592C51.2021 4.06592 51.5207 4.38461 51.5207 4.77773V22.5792C51.5207 27.8042 49.7095 33.263 44.7405 35.8989C41.0345 37.8649 35.7354 39.6565 28.7428 39.6565C21.7502 39.6565 16.4511 37.8649 12.7451 35.8989C7.77605 33.263 5.96484 27.8042 5.96484 22.5792V4.77773C5.96484 4.38461 6.28353 4.06592 6.67665 4.06592Z" fill="#AC7349"/>
<path fill-rule="evenodd" clip-rule="evenodd" d="M8.8125 8.16528V22.8797C8.8125 26.7024 10.0775 30.5162 13.3027 32.5682C16.5717 34.648 21.6702 36.8092 28.7432 36.8092C35.8162 36.8092 40.9147 34.648 44.1837 32.5682C47.409 30.5162 48.6739 26.7024 48.6739 22.8797V8.16528C45.589 9.09837 37.8287 9.76034 28.7432 9.76034C19.6577 9.76034 11.8974 9.09837 8.8125 8.16528Z" fill="#75370A"/>
<path d="M44.1834 32.5682C47.4086 30.5162 48.6736 26.7024 48.6736 22.8797V8.16528C47.0104 8.66835 43.9881 9.09262 40.1318 9.37682V34.6614C41.7049 34.0157 43.0535 33.2871 44.1834 32.5682Z" fill="#572908"/>
<path d="M13.3026 32.5682C10.0774 30.5162 8.81245 26.7024 8.81245 22.8797V8.16528C10.1547 8.57128 12.3821 8.92595 15.2188 9.19709V33.6717C14.5218 33.3097 13.8833 32.9376 13.3026 32.5682Z" fill="#8E4917"/>
<path fill-rule="evenodd" clip-rule="evenodd" d="M44.0076 7.59771C40.0731 8.05673 34.6768 8.337 28.7428 8.337C22.8088 8.337 17.4125 8.05673 13.478 7.59771C11.5204 7.36932 9.87276 7.09093 8.68805 6.76415C8.10677 6.60382 7.55424 6.41004 7.1172 6.16087C6.89901 6.03647 6.64179 5.86061 6.42493 5.61147C6.20003 5.35311 5.96484 4.9492 5.96484 4.42204C5.96484 3.89489 6.20003 3.49097 6.42493 3.23261C6.64179 2.98348 6.89901 2.80761 7.1172 2.68321C7.55424 2.43404 8.10677 2.24026 8.68805 2.07993C9.87276 1.75315 11.5204 1.47476 13.478 1.24637C17.4125 0.787349 22.8088 0.50708 28.7428 0.50708C34.6768 0.50708 40.0731 0.787349 44.0076 1.24637C45.9652 1.47476 47.6128 1.75315 48.7975 2.07993C49.3788 2.24026 49.9314 2.43404 50.3684 2.68321C50.5866 2.80761 50.8438 2.98348 51.0607 3.23261C51.2856 3.49097 51.5207 3.89489 51.5207 4.42204C51.5207 4.9492 51.2856 5.35311 51.0607 5.61147C50.8438 5.86061 50.5866 6.03647 50.3684 6.16087C49.9314 6.41004 49.3788 6.60382 48.7975 6.76415C47.6128 7.09093 45.9652 7.36932 44.0076 7.59771ZM28.7428 6.91338C40.5365 6.91338 50.0971 5.79797 50.0971 4.42204C50.0971 3.04611 40.5365 1.9307 28.7428 1.9307C16.9491 1.9307 7.38847 3.04611 7.38847 4.42204C7.38847 5.79797 16.9491 6.91338 28.7428 6.91338Z" fill="#AC7349"/>
<path fill-rule="evenodd" clip-rule="evenodd" d="M11.6591 10.4722C12.0522 10.4722 12.3709 10.7909 12.3709 11.184V15.4548C12.3709 15.848 12.0522 16.1667 11.6591 16.1667C11.266 16.1667 10.9473 15.848 10.9473 15.4548V11.184C10.9473 10.7909 11.266 10.4722 11.6591 10.4722Z" fill="white"/>
<path d="M48.6739 4.42186C48.6739 5.40467 39.7506 6.20139 28.7432 6.20139C17.7358 6.20139 8.8125 5.40467 8.8125 4.42186C8.8125 3.43906 17.7358 2.64233 28.7432 2.64233C39.7506 2.64233 48.6739 3.43906 48.6739 4.42186Z" fill="#75370A"/>
<path d="M40.8442 28.5263C40.8442 29.0981 40.3806 29.5617 39.8088 29.5617C39.237 29.5617 38.7734 29.0981 38.7734 28.5263C38.7734 27.9545 39.237 27.491 39.8088 27.491C40.3806 27.491 40.8442 27.9545 40.8442 28.5263Z" fill="#572908"/>
<path d="M37.7377 26.4555C37.7377 27.0273 37.2742 27.4909 36.7024 27.4909C36.1305 27.4909 35.667 27.0273 35.667 26.4555C35.667 25.8837 36.1305 25.4202 36.7024 25.4202C37.2742 25.4202 37.7377 25.8837 37.7377 26.4555Z" fill="#572908"/>
<path d="M35.7963 23.6086C35.7963 24.1804 35.3328 24.644 34.7609 24.644C34.1891 24.644 33.7256 24.1804 33.7256 23.6086C33.7256 23.0368 34.1891 22.5732 34.7609 22.5732C35.3328 22.5732 35.7963 23.0368 35.7963 23.6086Z" fill="#572908"/>
<path d="M33.0784 27.038C33.0784 27.4669 32.7308 27.8145 32.3019 27.8145C31.8731 27.8145 31.5254 27.4669 31.5254 27.038C31.5254 26.6091 31.8731 26.2615 32.3019 26.2615C32.7308 26.2615 33.0784 26.6091 33.0784 27.038Z" fill="#572908"/>
<path d="M31.72 24.0614C31.72 24.4903 31.3724 24.838 30.9435 24.838C30.5147 24.838 30.167 24.4903 30.167 24.0614C30.167 23.6326 30.5147 23.2849 30.9435 23.2849C31.3724 23.2849 31.72 23.6326 31.72 24.0614Z" fill="#572908"/>
<path d="M29.5843 28.3322C29.5843 28.761 29.2366 29.1087 28.8078 29.1087C28.3789 29.1087 28.0312 28.761 28.0312 28.3322C28.0312 27.9033 28.3789 27.5557 28.8078 27.5557C29.2366 27.5557 29.5843 27.9033 29.5843 28.3322Z" fill="#572908"/>
<path d="M29.5843 33.3149C29.5843 33.7437 29.2366 34.0914 28.8078 34.0914C28.3789 34.0914 28.0312 33.7437 28.0312 33.3149C28.0312 32.886 28.3789 32.5383 28.8078 32.5383C29.2366 32.5383 29.5843 32.886 29.5843 33.3149Z" fill="#572908"/>
<path d="M33.5961 33.7033C33.5961 34.2751 33.1326 34.7387 32.5608 34.7387C31.9889 34.7387 31.5254 34.2751 31.5254 33.7033C31.5254 33.1315 31.9889 32.668 32.5608 32.668C33.1326 32.668 33.5961 33.1315 33.5961 33.7033Z" fill="#572908"/>
<path d="M31.72 30.144C31.72 30.5728 31.3724 30.9205 30.9435 30.9205C30.5147 30.9205 30.167 30.5728 30.167 30.144C30.167 29.7151 30.5147 29.3674 30.9435 29.3674C31.3724 29.3674 31.72 29.7151 31.72 30.144Z" fill="#572908"/>
<path d="M36.7027 30.3384C36.7027 31.0532 36.1232 31.6326 35.4085 31.6326C34.6937 31.6326 34.1143 31.0532 34.1143 30.3384C34.1143 29.6236 34.6937 29.0442 35.4085 29.0442C36.1232 29.0442 36.7027 29.6236 36.7027 30.3384Z" fill="#572908"/>
<path d="M41.2964 23.1553C41.2964 23.8701 40.717 24.4495 40.0022 24.4495C39.2874 24.4495 38.708 23.8701 38.708 23.1553C38.708 22.4405 39.2874 21.8611 40.0022 21.8611C40.717 21.8611 41.2964 22.4405 41.2964 23.1553Z" fill="#572908"/>
<path d="M39.808 32.1501C39.808 32.7219 39.3445 33.1855 38.7727 33.1855C38.2009 33.1855 37.7373 32.7219 37.7373 32.1501C37.7373 31.5783 38.2009 31.1147 38.7727 31.1147C39.3445 31.1147 39.808 31.5783 39.808 32.1501Z" fill="#572908"/>
</svg>
