<svg width="56" height="72" viewBox="0 0 56 72" fill="none" xmlns="http://www.w3.org/2000/svg">
<path d="M51 18H3C4.56108 33.6108 6.05186 49.2306 7.65671 64.8374C8.00645 68.2385 8.18133 69.9391 9.32315 70.9696C10.465 72 12.1778 72 15.6033 72H38.3967C41.8222 72 43.535 72 44.6768 70.9696C45.8187 69.9391 45.9935 68.2385 46.3433 64.8374C47.9481 49.2306 49.4389 33.6107 51 18Z" fill="#E3DFE3"/>
<path opacity="0.5" d="M19 18H9L14.4 72H24.4L19 18Z" fill="white"/>
<g opacity="0.06">
<path d="M42.9996 18H50.9996C49.4385 33.6108 47.9478 49.2306 46.3429 64.8374C45.9932 68.2386 45.8183 69.9391 44.6765 70.9696C43.5346 72 41.8219 72 38.3963 72H37.5996L42.9996 18Z" fill="black" style="mix-blend-mode:soft-light"/>
</g>
<path fill-rule="evenodd" clip-rule="evenodd" d="M3 18H51C50.9333 18.6667 50.8668 19.3333 50.8004 20H3.19962C3.1332 19.3333 3.06667 18.6667 3 18Z" fill="black" fill-opacity="0.06"/>
<path fill-rule="evenodd" clip-rule="evenodd" d="M7 58L7.4 62H46.6L47 58H7Z" fill="#D27F55" fill-opacity="0.3"/>
<path fill-rule="evenodd" clip-rule="evenodd" d="M47.9872 24C50.0502 24 51.0817 24 51.6771 24.6569C52.2725 25.3139 52.1713 26.3407 51.9688 28.3943C51.7231 30.8876 51.4781 33.3809 51.2331 35.8743C50.5606 42.7179 49.8882 49.5616 49.2002 56.4035C49.0284 58.1122 48.9425 58.9665 48.3712 59.4833C47.7999 60 46.9406 60 45.2222 60H8.77737C7.05892 60 6.1997 60 5.6284 59.4833C5.05711 58.9665 4.9712 58.1122 4.79938 56.4035C4.1114 49.5616 3.43895 42.718 2.76651 35.8745C2.5215 33.3811 2.2765 30.8876 2.03074 28.3943C1.82833 26.3407 1.72712 25.3139 2.32249 24.6569C2.91786 24 3.94936 24 6.01236 24H47.9872Z" fill="#E59A61"/>
<g opacity="0.4">
<path fill-rule="evenodd" clip-rule="evenodd" d="M15.5996 24L19.1996 60H9.19961L5.59961 24H15.5996Z" fill="white" style="mix-blend-mode:soft-light"/>
</g>
<path style="mix-blend-mode:soft-light" fill-rule="evenodd" clip-rule="evenodd" d="M44.7998 59.9998H45.2222C46.9407 59.9998 47.7999 59.9998 48.3712 59.4831C48.9425 58.9663 49.0284 58.112 49.2002 56.4033C49.8882 49.5613 50.5607 42.7177 51.2331 35.8741L51.2343 35.8626C51.4789 33.373 51.7235 30.8835 51.9689 28.3941C52.1713 26.3405 52.2725 25.3137 51.6771 24.6567C51.1228 24.0451 50.1905 24.0029 48.3998 24L44.7998 59.9998Z" fill="black" fill-opacity="0.4"/>
<path fill-rule="evenodd" clip-rule="evenodd" d="M10 34C10 33.4477 10.4477 33 11 33C11.5523 33 12 33.4477 12 34V50C12 50.5523 11.5523 51 11 51C10.4477 51 10 50.5523 10 50V34ZM14 34C14 33.4477 14.4477 33 15 33C15.5523 33 16 33.4477 16 34V50C16 50.5523 15.5523 51 15 51C14.4477 51 14 50.5523 14 50V34ZM19 33C18.4477 33 18 33.4477 18 34V50C18 50.5523 18.4477 51 19 51C19.5523 51 20 50.5523 20 50V34C20 33.4477 19.5523 33 19 33ZM22 34C22 33.4477 22.4477 33 23 33C23.5523 33 24 33.4477 24 34V50C24 50.5523 23.5523 51 23 51C22.4477 51 22 50.5523 22 50V34ZM27 33C26.4477 33 26 33.4477 26 34V50C26 50.5523 26.4477 51 27 51C27.5523 51 28 50.5523 28 50V34C28 33.4477 27.5523 33 27 33ZM30 34C30 33.4477 30.4477 33 31 33C31.5523 33 32 33.4477 32 34V50C32 50.5523 31.5523 51 31 51C30.4477 51 30 50.5523 30 50V34ZM35 33C34.4477 33 34 33.4477 34 34V50C34 50.5523 34.4477 51 35 51C35.5523 51 36 50.5523 36 50V34C36 33.4477 35.5523 33 35 33ZM38 34C38 33.4477 38.4477 33 39 33C39.5523 33 40 33.4477 40 34V50C40 50.5523 39.5523 51 39 51C38.4477 51 38 50.5523 38 50V34ZM43 33C42.4477 33 42 33.4477 42 34V50C42 50.5523 42.4477 51 43 51C43.5523 51 44 50.5523 44 50V34C44 33.4477 43.5523 33 43 33Z" fill="#AB604B" style="mix-blend-mode:darken"/>
<path d="M7.51132 5.02535C8.31979 2.59996 8.72402 1.38726 9.68638 0.693632C10.6487 0 11.927 0 14.4836 0L40.6365 0C43.1931 0 44.4713 0 45.4337 0.693632C46.3961 1.38726 46.8003 2.59996 47.6088 5.02534L49.6084 11.0242L5.51172 11.0242L7.51132 5.02535Z" fill="#F2EDF2"/>
<path opacity="0.5" d="M14.6991 0L23.8859 0L20.2112 11.0242H11.0244L14.6991 0Z" fill="white"/>
<g opacity="0.06">
<path d="M42.2597 11.0239H49.6091L47.6095 5.02511C46.8011 2.59972 46.3968 1.38703 45.4345 0.693393C44.4721 -0.000238779 43.1938 -0.000238779 40.6372 -0.000238779H38.585L42.2597 11.0239Z" fill="black" style="mix-blend-mode:soft-light"/>
</g>
<rect y="11.0239" width="55.1208" height="7.34944" rx="1.83736" fill="#F2EDF2"/>
<path opacity="0.5" d="M7.34961 11.0239H16.5364V18.3734H7.34961V11.0239Z" fill="white"/>
<g opacity="0.06">
<path d="M47.7715 11.0239H51.4462C53.1785 11.0239 54.0446 11.0239 54.5828 11.5621C55.1209 12.1002 55.1209 12.9664 55.1209 14.6986C55.1209 16.4309 55.1209 17.2971 54.5828 17.8352C54.0446 18.3734 53.1785 18.3734 51.4462 18.3734H47.7715V11.0239Z" fill="black" style="mix-blend-mode:soft-light"/>
</g>
</svg>
