<svg width="33" height="46" viewBox="0 0 33 46" fill="none" xmlns="http://www.w3.org/2000/svg">
<path d="M1.24512 0.635742H31.1385L27.7825 40.9073C27.6018 43.0757 27.5114 44.1599 26.7964 44.8178C26.0813 45.4757 24.9934 45.4757 22.8175 45.4757H9.56609C7.39019 45.4757 6.30224 45.4757 5.58718 44.8178C4.87213 44.1599 4.78178 43.0757 4.60108 40.9073L1.24512 0.635742Z" fill="#E3DFE3"/>
<path opacity="0.5" d="M4.98242 0.635742H11.2102L14.9469 45.4757H8.71909L4.98242 0.635742Z" fill="white"/>
<g opacity="0.06">
<path d="M31.1387 0.635742H26.1564L22.4198 45.4757H22.8177C24.9936 45.4757 26.0816 45.4757 26.7966 44.8178C27.5117 44.1598 27.602 43.0757 27.7827 40.9073L31.1387 0.635742Z" fill="black" style="mix-blend-mode:soft-light"/>
</g>
<path fill-rule="evenodd" clip-rule="evenodd" d="M31.1394 0.635742H1.24609L1.34989 1.8813H31.0356L31.1394 0.635742Z" fill="black" fill-opacity="0.06"/>
<path fill-rule="evenodd" clip-rule="evenodd" d="M3.63281 29.2832L3.84041 31.7743H28.5439L28.7515 29.2832H3.63281Z" fill="#D27F55" fill-opacity="0.3"/>
<path fill-rule="evenodd" clip-rule="evenodd" d="M29.0546 8.10889C30.3214 8.10889 30.9548 8.10889 31.3248 8.51106C31.6949 8.91324 31.6423 9.54445 31.5371 10.8069L30.084 28.2447C29.9936 29.3288 29.9484 29.8709 29.5909 30.1999C29.2334 30.5289 28.6894 30.5289 27.6014 30.5289H4.78353C3.69558 30.5289 3.1516 30.5289 2.79408 30.1999C2.43655 29.8709 2.39137 29.3288 2.30102 28.2447L0.847874 10.8069C0.742673 9.54445 0.690072 8.91324 1.06013 8.51106C1.43019 8.10889 2.06358 8.10889 3.33038 8.10889H29.0546Z" fill="#E59A61"/>
<g opacity="0.4">
<path fill-rule="evenodd" clip-rule="evenodd" d="M9.34106 8.10889L11.2094 30.5289H4.98161L3.11328 8.10889H9.34106Z" fill="white" style="mix-blend-mode:soft-light"/>
</g>
<path style="mix-blend-mode:soft-light" fill-rule="evenodd" clip-rule="evenodd" d="M27.4023 30.5288H27.6019C28.6898 30.5288 29.2338 30.5288 29.5913 30.1998C29.9489 29.8709 29.994 29.3288 30.0844 28.2446L31.5375 10.8068C31.6427 9.54437 31.6953 8.91316 31.3253 8.51098C30.9768 8.1323 30.3949 8.11018 29.2707 8.10889L27.4023 30.5288Z" fill="black" fill-opacity="0.4"/>
<path fill-rule="evenodd" clip-rule="evenodd" d="M5.60449 14.3366C5.60449 13.9927 5.88332 13.7139 6.22727 13.7139C6.57122 13.7139 6.85005 13.9927 6.85005 14.3366V24.3011C6.85005 24.645 6.57122 24.9239 6.22727 24.9239C5.88332 24.9239 5.60449 24.645 5.60449 24.3011V14.3366ZM8.0956 14.3366C8.0956 13.9927 8.37443 13.7139 8.71838 13.7139C9.06233 13.7139 9.34116 13.9927 9.34116 14.3366V24.3011C9.34116 24.645 9.06233 24.9239 8.71838 24.9239C8.37443 24.9239 8.0956 24.645 8.0956 24.3011V14.3366ZM11.2095 13.7139C10.8655 13.7139 10.5867 13.9927 10.5867 14.3366V24.3011C10.5867 24.645 10.8655 24.9239 11.2095 24.9239C11.5534 24.9239 11.8323 24.645 11.8323 24.3011V14.3366C11.8323 13.9927 11.5534 13.7139 11.2095 13.7139ZM13.0778 14.3366C13.0778 13.9927 13.3567 13.7139 13.7006 13.7139C14.0446 13.7139 14.3234 13.9927 14.3234 14.3366V24.3011C14.3234 24.645 14.0446 24.9239 13.7006 24.9239C13.3567 24.9239 13.0778 24.645 13.0778 24.3011V14.3366ZM16.1917 13.7139C15.8478 13.7139 15.5689 13.9927 15.5689 14.3366V24.3011C15.5689 24.645 15.8478 24.9239 16.1917 24.9239C16.5357 24.9239 16.8145 24.645 16.8145 24.3011V14.3366C16.8145 13.9927 16.5357 13.7139 16.1917 13.7139ZM18.06 14.3366C18.06 13.9927 18.3389 13.7139 18.6828 13.7139C19.0268 13.7139 19.3056 13.9927 19.3056 14.3366V24.3011C19.3056 24.645 19.0268 24.9239 18.6828 24.9239C18.3389 24.9239 18.06 24.645 18.06 24.3011V14.3366ZM21.1739 13.7139C20.83 13.7139 20.5512 13.9927 20.5512 14.3366V24.3011C20.5512 24.645 20.83 24.9239 21.1739 24.9239C21.5179 24.9239 21.7967 24.645 21.7967 24.3011V14.3366C21.7967 13.9927 21.5179 13.7139 21.1739 13.7139ZM23.0423 14.3366C23.0423 13.9927 23.3211 13.7139 23.665 13.7139C24.009 13.7139 24.2878 13.9927 24.2878 14.3366V24.3011C24.2878 24.645 24.009 24.9239 23.665 24.9239C23.3211 24.9239 23.0423 24.645 23.0423 24.3011V14.3366ZM26.1562 13.7139C25.8122 13.7139 25.5334 13.9927 25.5334 14.3366V24.3011C25.5334 24.645 25.8122 24.9239 26.1562 24.9239C26.5001 24.9239 26.7789 24.645 26.7789 24.3011V14.3366C26.7789 13.9927 26.5001 13.7139 26.1562 13.7139Z" fill="#AB604B" style="mix-blend-mode:darken"/>
</svg>
