<svg width="63" height="56" viewBox="0 0 63 56" fill="none" xmlns="http://www.w3.org/2000/svg">
<path fill-rule="evenodd" clip-rule="evenodd" d="M10.6289 44.3186C10.7097 44.7034 10.4632 45.0807 10.0785 45.1615C7.47595 45.7079 5.40938 46.3605 4.01106 47.0677C3.31081 47.4218 2.81397 47.772 2.50095 48.1003C2.19091 48.4254 2.10233 48.6828 2.10233 48.8774C2.10233 49.0646 2.18397 49.3088 2.46526 49.6163C2.75015 49.9277 3.20427 50.2623 3.84892 50.6032C5.13689 51.2844 7.04742 51.9195 9.46832 52.461C14.2986 53.5415 21.0062 54.216 28.4393 54.216C35.8725 54.216 42.5801 53.5415 47.4104 52.461C49.8313 51.9195 51.7418 51.2844 53.0298 50.6032C53.6744 50.2623 54.1285 49.9277 54.4134 49.6163C54.6947 49.3088 54.7764 49.0646 54.7764 48.8774C54.7764 48.6828 54.6878 48.4254 54.3777 48.1003C54.0647 47.772 53.5679 47.4218 52.8676 47.0677C51.4693 46.3605 49.4027 45.7079 46.8002 45.1615C46.4154 45.0807 46.169 44.7034 46.2498 44.3186C46.3306 43.9339 46.7079 43.6875 47.0927 43.7683C49.7477 44.3257 51.952 45.0092 53.5101 45.7973C54.2881 46.1908 54.9409 46.628 55.408 47.1178C55.878 47.6107 56.2 48.2019 56.2 48.8774C56.2 49.5255 55.9032 50.0969 55.4638 50.5772C55.0281 51.0535 54.4194 51.4788 53.6953 51.8617C52.2458 52.6283 50.1951 53.2969 47.7211 53.8503C42.7617 54.9596 35.9449 55.6396 28.4393 55.6396C20.9338 55.6396 14.117 54.9596 9.15756 53.8503C6.68359 53.2969 4.63291 52.6283 3.18338 51.8617C2.45929 51.4788 1.8506 51.0535 1.41486 50.5772C0.975521 50.0969 0.678711 49.5255 0.678711 48.8774C0.678711 48.2019 1.00065 47.6107 1.4707 47.1178C1.93777 46.628 2.59057 46.1908 3.36855 45.7973C4.92671 45.0092 7.13101 44.3257 9.786 43.7683C10.1707 43.6875 10.5481 43.9339 10.6289 44.3186Z" fill="#AC7349"/>
<path fill-rule="evenodd" clip-rule="evenodd" d="M49.4448 39.0666C49.247 38.7425 49.1868 38.3528 49.2777 37.9842C49.4851 37.143 49.6274 36.2678 49.7093 35.3751C49.7478 34.9554 49.9703 34.5744 50.3168 34.3345C50.6634 34.0947 51.0984 34.0207 51.5047 34.1325C51.865 34.2317 52.2458 34.285 52.6413 34.285C55 34.285 56.9121 32.3729 56.9121 30.0142C56.9121 27.6554 55 25.7433 52.6413 25.7433C52.2704 25.7433 51.9126 25.7903 51.5725 25.8778C51.1463 25.9875 50.6933 25.8939 50.3454 25.6242C49.9976 25.3546 49.794 24.9392 49.794 24.4991V21.5906C49.794 20.8952 50.2964 20.3016 50.9821 20.1866C51.5226 20.0959 52.077 20.0488 52.6413 20.0488C58.145 20.0488 62.6066 24.5105 62.6066 30.0142C62.6066 35.5179 58.145 39.9795 52.6413 39.9795C51.8476 39.9795 51.0738 39.8865 50.331 39.71C49.9616 39.6223 49.6425 39.3906 49.4448 39.0666ZM52.5379 35.7077C52.0502 35.6991 51.5774 35.6291 51.127 35.5051C51.0831 35.9832 51.0229 36.4585 50.9455 36.9287C50.884 37.3021 50.8117 37.6723 50.7281 38.0382C50.7061 38.1341 50.6834 38.2297 50.66 38.3249C51.1179 38.4337 51.5901 38.5056 52.0734 38.5373C52.2611 38.5497 52.4504 38.5559 52.6413 38.5559C57.3588 38.5559 61.183 34.7317 61.183 30.0142C61.183 25.2967 57.3588 21.4725 52.6413 21.4725C52.1562 21.4725 51.6806 21.5129 51.2177 21.5906V24.4991C51.6727 24.382 52.1497 24.3197 52.6413 24.3197C55.7863 24.3197 58.3358 26.8692 58.3358 30.0142C58.3358 33.1592 55.7863 35.7087 52.6413 35.7087C52.6067 35.7087 52.5723 35.7084 52.5379 35.7077Z" fill="#AC7349"/>
<path fill-rule="evenodd" clip-rule="evenodd" d="M6.37294 15.0662C6.76607 15.0662 7.08475 15.3849 7.08475 15.778V33.5795C7.08475 38.5479 8.80314 43.3577 13.1085 45.6415C16.6286 47.5088 21.7001 49.2331 28.4391 49.2331C35.178 49.2331 40.2496 47.5088 43.7697 45.6415C48.075 43.3577 49.7934 38.5479 49.7934 33.5795V15.778C49.7934 15.3849 50.1121 15.0662 50.5052 15.0662C50.8983 15.0662 51.217 15.3849 51.217 15.778V33.5795C51.217 38.8044 49.4058 44.2633 44.4368 46.8992C40.7307 48.8651 35.4317 50.6567 28.4391 50.6567C21.4465 50.6567 16.1474 48.8651 12.4414 46.8992C7.47234 44.2633 5.66113 38.8044 5.66113 33.5795V15.778C5.66113 15.3849 5.97982 15.0662 6.37294 15.0662Z" fill="#AC7349"/>
<path fill-rule="evenodd" clip-rule="evenodd" d="M8.50879 19.1655V33.88C8.50879 37.7027 9.77374 41.5164 12.999 43.5684C16.268 45.6483 21.3665 47.8094 28.4395 47.8094C35.5125 47.8094 40.611 45.6483 43.88 43.5684C47.1053 41.5164 48.3702 37.7027 48.3702 33.88V19.1655C45.2853 20.0986 37.525 20.7606 28.4395 20.7606C19.354 20.7606 11.5937 20.0986 8.50879 19.1655Z" fill="#FFF2E3"/>
<path d="M43.8797 43.5684C47.1049 41.5164 48.3699 37.7027 48.3699 33.88V19.1655C46.7067 19.6686 43.6844 20.0929 39.8281 20.3771V45.6617C41.4012 45.016 42.7497 44.2873 43.8797 43.5684Z" fill="#FBE0C2"/>
<path d="M12.9989 43.5684C9.77369 41.5164 8.50874 37.7027 8.50874 33.88V19.1655C9.851 19.5715 12.0784 19.9262 14.915 20.1973V44.6719C14.2181 44.3099 13.5796 43.9379 12.9989 43.5684Z" fill="white"/>
<path d="M12.9991 43.5687C16.2681 45.6485 21.3666 47.8097 28.4396 47.8097C35.5126 47.8097 40.6111 45.6485 43.8801 43.5687C45.7591 42.3732 46.9727 40.5799 47.6585 38.5352C47.6585 38.5352 41.6601 41.3824 28.4396 41.3824C15.2191 41.3824 9.2207 38.5352 9.2207 38.5352C9.90651 40.5799 11.1201 42.3732 12.9991 43.5687Z" fill="#75370A"/>
<path fill-rule="evenodd" clip-rule="evenodd" d="M43.7038 18.598C39.7694 19.057 34.3731 19.3372 28.4391 19.3372C22.505 19.3372 17.1088 19.057 13.1743 18.598C11.2167 18.3696 9.56905 18.0912 8.38434 17.7644C7.80306 17.6041 7.25053 17.4103 6.81349 17.1611C6.5953 17.0367 6.33808 16.8608 6.12122 16.6117C5.89632 16.3534 5.66113 15.9494 5.66113 15.4223C5.66113 14.8951 5.89632 14.4912 6.12122 14.2329C6.33808 13.9837 6.5953 13.8079 6.81349 13.6835C7.25053 13.4343 7.80306 13.2405 8.38434 13.0802C9.56905 12.7534 11.2167 12.475 13.1743 12.2466C17.1088 11.7876 22.505 11.5073 28.4391 11.5073C34.3731 11.5073 39.7694 11.7876 43.7038 12.2466C45.6615 12.475 47.3091 12.7534 48.4938 13.0802C49.0751 13.2405 49.6276 13.4343 50.0647 13.6835C50.2829 13.8079 50.5401 13.9837 50.757 14.2329C50.9818 14.4912 51.217 14.8951 51.217 15.4223C51.217 15.9494 50.9818 16.3534 50.757 16.6117C50.5401 16.8608 50.2829 17.0367 50.0647 17.1611C49.6276 17.4103 49.0751 17.6041 48.4938 17.7644C47.3091 18.0912 45.6615 18.3696 43.7038 18.598ZM28.4391 17.9136C40.2328 17.9136 49.7934 16.7982 49.7934 15.4223C49.7934 14.0464 40.2328 12.9309 28.4391 12.9309C16.6454 12.9309 7.08475 14.0464 7.08475 15.4223C7.08475 16.7982 16.6454 17.9136 28.4391 17.9136Z" fill="#AC7349"/>
<path d="M7.08496 10.7391C7.08496 7.48036 9.75091 4.83859 13.0395 4.83859C13.606 4.83859 14.154 4.91698 14.6731 5.0634C15.7191 2.18009 18.503 0.118164 21.7729 0.118164C24.8806 0.118164 27.5493 1.98061 28.7044 4.64056C29.4889 4.26338 30.3697 4.05186 31.3002 4.05186C33.9012 4.05186 36.1126 5.70431 36.9238 8.00755C38.019 8.11222 39.0059 8.58441 39.7572 9.29817C40.6716 8.48218 41.8819 7.98555 43.2094 7.98555C46.0595 7.98555 48.37 10.2751 48.37 13.0993C48.37 13.7963 48.2293 14.4607 47.9745 15.0662C47.9745 15.0662 46.1057 17.2016 28.4828 17.2016C10.86 17.2016 8.99116 15.0662 8.99116 15.0662C7.81871 13.9886 7.08496 12.4488 7.08496 10.7391Z" fill="white"/>
<path d="M20.6099 4.3892C20.6099 5.17544 19.9726 5.81282 19.1863 5.81282C18.4001 5.81282 17.7627 5.17544 17.7627 4.3892C17.7627 3.60295 18.4001 2.96558 19.1863 2.96558C19.9726 2.96558 20.6099 3.60295 20.6099 4.3892Z" fill="#FFE7CB"/>
<path d="M16.3385 7.94828C16.3385 8.73452 15.7011 9.3719 14.9148 9.3719C14.1286 9.3719 13.4912 8.73452 13.4912 7.94828C13.4912 7.16204 14.1286 6.52466 14.9148 6.52466C15.7011 6.52466 16.3385 7.16204 16.3385 7.94828Z" fill="#FFE7CB"/>
<path d="M21.322 13.9986C21.322 14.5883 20.8439 15.0663 20.2542 15.0663C19.6646 15.0663 19.1865 14.5883 19.1865 13.9986C19.1865 13.4089 19.6646 12.9309 20.2542 12.9309C20.8439 12.9309 21.322 13.4089 21.322 13.9986Z" fill="#FFE7CB"/>
<path d="M27.0163 7.59237C27.0163 8.18206 26.5383 8.66009 25.9486 8.66009C25.3589 8.66009 24.8809 8.18206 24.8809 7.59237C24.8809 7.00269 25.3589 6.52466 25.9486 6.52466C26.5383 6.52466 27.0163 7.00269 27.0163 7.59237Z" fill="#FFE7CB"/>
<path d="M35.5583 13.9986C35.5583 14.5883 35.0803 15.0663 34.4906 15.0663C33.9009 15.0663 33.4229 14.5883 33.4229 13.9986C33.4229 13.4089 33.9009 12.9309 34.4906 12.9309C35.0803 12.9309 35.5583 13.4089 35.5583 13.9986Z" fill="#FFE7CB"/>
<path d="M31.9986 14.3545C31.9986 15.1408 31.3612 15.7782 30.575 15.7782C29.7887 15.7782 29.1514 15.1408 29.1514 14.3545C29.1514 13.5683 29.7887 12.9309 30.575 12.9309C31.3612 12.9309 31.9986 13.5683 31.9986 14.3545Z" fill="#FFE7CB"/>
<path d="M39.1168 12.219C39.1168 13.0053 38.4794 13.6427 37.6932 13.6427C36.9069 13.6427 36.2695 13.0053 36.2695 12.219C36.2695 11.4328 36.9069 10.7954 37.6932 10.7954C38.4794 10.7954 39.1168 11.4328 39.1168 12.219Z" fill="#FFE7CB"/>
<path d="M12.0679 10.0838C12.0679 10.87 11.4306 11.5074 10.6443 11.5074C9.85808 11.5074 9.2207 10.87 9.2207 10.0838C9.2207 9.29753 9.85808 8.66016 10.6443 8.66016C11.4306 8.66016 12.0679 9.29753 12.0679 10.0838Z" fill="#FFE7CB"/>
<path d="M25.5924 4.3892C25.5924 5.17544 24.955 5.81282 24.1687 5.81282C23.3825 5.81282 22.7451 5.17544 22.7451 4.3892C22.7451 3.60295 23.3825 2.96558 24.1687 2.96558C24.955 2.96558 25.5924 3.60295 25.5924 4.3892Z" fill="#FFE7CB"/>
<path d="M27.0161 13.2869C27.0161 14.2697 26.2194 15.0664 25.2366 15.0664C24.2538 15.0664 23.457 14.2697 23.457 13.2869C23.457 12.304 24.2538 11.5073 25.2366 11.5073C26.2194 11.5073 27.0161 12.304 27.0161 13.2869Z" fill="#FFE7CB"/>
<path d="M23.4574 9.37176C23.4574 10.5511 22.5013 11.5072 21.322 11.5072C20.1426 11.5072 19.1865 10.5511 19.1865 9.37176C19.1865 8.19239 20.1426 7.23633 21.322 7.23633C22.5013 7.23633 23.4574 8.19239 23.4574 9.37176Z" fill="#FFE7CB"/>
<path d="M17.0511 12.9308C17.0511 14.1102 16.0951 15.0663 14.9157 15.0663C13.7363 15.0663 12.7803 14.1102 12.7803 12.9308C12.7803 11.7515 13.7363 10.7954 14.9157 10.7954C16.0951 10.7954 17.0511 11.7515 17.0511 12.9308Z" fill="#FFE7CB"/>
<path d="M34.134 9.016C34.134 10.3919 33.0186 11.5073 31.6427 11.5073C30.2668 11.5073 29.1514 10.3919 29.1514 9.016C29.1514 7.64007 30.2668 6.52466 31.6427 6.52466C33.0186 6.52466 34.134 7.64007 34.134 9.016Z" fill="#FFE7CB"/>
<path d="M45.5228 12.2192C45.5228 13.3985 44.5668 14.3546 43.3874 14.3546C42.208 14.3546 41.252 13.3985 41.252 12.2192C41.252 11.0398 42.208 10.0837 43.3874 10.0837C44.5668 10.0837 45.5228 11.0398 45.5228 12.2192Z" fill="#FFE7CB"/>
<path d="M40.5395 39.5266C40.5395 40.0984 40.0759 40.5619 39.5041 40.5619C38.9323 40.5619 38.4688 40.0984 38.4688 39.5266C38.4688 38.9548 38.9323 38.4912 39.5041 38.4912C40.0759 38.4912 40.5395 38.9548 40.5395 39.5266Z" fill="#FBE1C2"/>
<path d="M37.434 37.4558C37.434 38.0276 36.9705 38.4911 36.3986 38.4911C35.8268 38.4911 35.3633 38.0276 35.3633 37.4558C35.3633 36.884 35.8268 36.4204 36.3986 36.4204C36.9705 36.4204 37.434 36.884 37.434 37.4558Z" fill="#FBE1C2"/>
<path d="M35.4926 34.6088C35.4926 35.1807 35.0291 35.6442 34.4572 35.6442C33.8854 35.6442 33.4219 35.1807 33.4219 34.6088C33.4219 34.037 33.8854 33.5735 34.4572 33.5735C35.0291 33.5735 35.4926 34.037 35.4926 34.6088Z" fill="#FBE1C2"/>
<path d="M32.7747 38.0382C32.7747 38.4671 32.4271 38.8148 31.9982 38.8148C31.5693 38.8148 31.2217 38.4671 31.2217 38.0382C31.2217 37.6094 31.5693 37.2617 31.9982 37.2617C32.4271 37.2617 32.7747 37.6094 32.7747 38.0382Z" fill="#FBE1C2"/>
<path d="M31.4163 35.0617C31.4163 35.4905 31.0687 35.8382 30.6398 35.8382C30.2109 35.8382 29.8633 35.4905 29.8633 35.0617C29.8633 34.6328 30.2109 34.2852 30.6398 34.2852C31.0687 34.2852 31.4163 34.6328 31.4163 35.0617Z" fill="#FBE1C2"/>
<path d="M29.2806 39.3324C29.2806 39.7613 28.9329 40.109 28.5041 40.109C28.0752 40.109 27.7275 39.7613 27.7275 39.3324C27.7275 38.9036 28.0752 38.5559 28.5041 38.5559C28.9329 38.5559 29.2806 38.9036 29.2806 39.3324Z" fill="#FBE1C2"/>
<path d="M29.2806 44.3151C29.2806 44.744 28.9329 45.0916 28.5041 45.0916C28.0752 45.0916 27.7275 44.744 27.7275 44.3151C27.7275 43.8862 28.0752 43.5386 28.5041 43.5386C28.9329 43.5386 29.2806 43.8862 29.2806 44.3151Z" fill="#572908"/>
<path d="M33.2924 44.7036C33.2924 45.2754 32.8289 45.7389 32.257 45.7389C31.6852 45.7389 31.2217 45.2754 31.2217 44.7036C31.2217 44.1318 31.6852 43.6682 32.257 43.6682C32.8289 43.6682 33.2924 44.1318 33.2924 44.7036Z" fill="#572908"/>
<path d="M31.4163 41.1442C31.4163 41.5731 31.0687 41.9207 30.6398 41.9207C30.2109 41.9207 29.8633 41.5731 29.8633 41.1442C29.8633 40.7153 30.2109 40.3677 30.6398 40.3677C31.0687 40.3677 31.4163 40.7153 31.4163 41.1442Z" fill="#FBE1C2"/>
<path d="M36.399 41.3386C36.399 42.0534 35.8195 42.6328 35.1047 42.6328C34.39 42.6328 33.8105 42.0534 33.8105 41.3386C33.8105 40.6239 34.39 40.0444 35.1047 40.0444C35.8195 40.0444 36.399 40.6239 36.399 41.3386Z" fill="#FBE1C2"/>
<path d="M40.9927 34.1555C40.9927 34.8703 40.4133 35.4497 39.6985 35.4497C38.9837 35.4497 38.4043 34.8703 38.4043 34.1555C38.4043 33.4408 38.9837 32.8613 39.6985 32.8613C40.4133 32.8613 40.9927 33.4408 40.9927 34.1555Z" fill="#FBE1C2"/>
<path d="M39.5043 43.1504C39.5043 43.7222 39.0408 44.1857 38.469 44.1857C37.8971 44.1857 37.4336 43.7222 37.4336 43.1504C37.4336 42.5785 37.8971 42.115 38.469 42.115C39.0408 42.115 39.5043 42.5785 39.5043 43.1504Z" fill="#572908"/>
</svg>
