<svg width="85" height="100" viewBox="0 0 85 100" fill="none" xmlns="http://www.w3.org/2000/svg">
<path d="M19.007 17.7967C15.1384 26.3443 18.8279 38.5577 21.1562 43.5959L63.0658 44.6383L64.1404 41.2505C71.0179 16.0247 63.0658 10.5869 58.2301 11.0212L61.4539 8.15466C58.445 5.8614 54.2899 6.33047 52.5884 6.85167C50.4392 2.68211 41.5546 1.90032 40.8019 1.24189C39.3651 -0.0151062 41.5737 3.9851 41.305 5.02749C31.6336 5.8614 27.962 3.29018 27.3352 1.90032C24.7561 4.19358 26.2606 8.93645 27.3352 11.0212C26.171 9.71824 22.8756 9.24916 19.007 17.7967Z" fill="#454040"/>
<path d="M27.3352 11.0212C26.171 9.71824 22.8756 9.24916 19.007 17.7967C15.1384 26.3443 18.8279 38.5577 21.1562 43.5959L63.0658 44.6383L64.1404 41.2505C71.0179 16.0247 63.0658 10.5869 58.2301 11.0212L61.4539 8.15466C58.445 5.8614 54.2899 6.33048 52.5884 6.85167C50.4392 2.68211 41.5546 1.90032 40.8019 1.24189C39.3651 -0.0151062 41.5737 3.9851 41.305 5.02749C31.6336 5.8614 27.962 3.29018 27.3352 1.90032C24.7561 4.19358 26.2606 8.93645 27.3352 11.0212ZM27.3352 11.0212C28.3202 13.0626 30.3044 15.6219 35.7849 18.5406" stroke="black" stroke-width="0.490295"/>
<path d="M28.5821 78.4121C15.8483 81.489 2.36923 94.6746 1 99.0194H83.6805C78.7513 88.421 60.1798 80.181 55.9009 78.7565C46.8298 77.6881 41.316 75.3351 28.5821 78.4121Z" fill="#94C284" stroke="#1B1313" stroke-width="0.482379"/>
<path d="M33.7977 77.0609L34.8269 61.0594L48.4641 60.1704L50.2652 77.0609C52.1178 77.0609 56.9551 78.9299 56.9551 79.2833C40.2303 95.0626 28.137 79.0611 28.6516 78.6166C29.0633 78.261 29.4235 78.2462 33.7977 77.0609Z" fill="#F3C5C5" stroke="black" stroke-width="0.483567"/>
<path d="M48.2067 59.2815C42.7725 61.6817 38.999 63.447 37.6572 62.8755L49.236 69.7269L48.2067 59.2815Z" fill="#E77E7F"/>
<path d="M22.2192 45.0578C21.6016 43.8132 21.4473 36.094 21.4473 32.3899C25.8836 27.7456 23.5887 24.8895 25.8836 19.4991C30.1271 21.7416 42.5456 24.7399 58.2712 18.7922C60.9021 26.8459 58.2711 27.8634 62.6161 33.2789C62.5303 35.5754 62.4883 41.2898 61.6649 45.2012C60.8416 49.1127 59.4426 51.1325 59.0138 51.7251C42.958 72.7049 29.5095 60.4667 24.7922 51.7251C24.1919 50.0212 22.8367 46.3024 22.2192 45.0578Z" fill="#F6C4C5" stroke="black" stroke-width="0.483567"/>
<path d="M36.5879 50.7437C38.0443 52.4601 42.0366 54.8631 46.3544 50.7437" stroke="black" stroke-width="0.483567"/>
<path d="M16.3005 50.3916C13.007 45.9468 16.8151 43.2058 19.1309 42.3909C20.2459 43.1216 22.5273 44.9446 22.7332 46.3912C22.9279 47.7599 22.6997 47.874 22.5398 47.7484C23.1029 48.2525 23.5243 48.8398 23.7624 49.2804C22.6474 51.5028 19.594 54.8365 16.3005 50.3916Z" fill="#F3C5C5"/>
<path d="M19.1309 46.8357C20.4833 46.411 21.6583 46.9693 22.5132 47.7247M22.5132 47.7247C23.0897 48.234 23.5206 48.8329 23.7624 49.2804C22.6474 51.5028 19.594 54.8365 16.3005 50.3916C13.007 45.9468 16.8151 43.2058 19.1309 42.3909C20.2459 43.1216 22.5273 44.9446 22.7332 46.3912C22.939 47.8379 22.6723 47.883 22.5132 47.7247Z" stroke="black" stroke-width="0.483567"/>
<path d="M67.7637 50.4164C71.0578 45.9578 67.249 43.2083 64.9328 42.3909C63.8176 43.1238 61.5357 44.9525 61.3299 46.4036C61.1351 47.7765 61.3633 47.891 61.5233 47.7649C60.9601 48.2706 60.5385 48.8597 60.3005 49.3017C61.4156 51.531 64.4696 54.875 67.7637 50.4164Z" fill="#F3C5C5"/>
<path d="M64.9328 46.8495C63.5801 46.4234 62.405 46.9835 61.5499 47.7412M61.5499 47.7412C60.9733 48.2521 60.5423 48.8528 60.3005 49.3017C61.4156 51.531 64.4696 54.875 67.7637 50.4164C71.0578 45.9578 67.249 43.2083 64.9328 42.3909C63.8176 43.1238 61.5357 44.9525 61.3299 46.4036C61.124 47.8547 61.3907 47.9 61.5499 47.7412Z" stroke="black" stroke-width="0.483567"/>
<ellipse cx="33.0262" cy="42.8353" rx="2.05844" ry="1.77795" fill="#3D3434"/>
<ellipse cx="50.5223" cy="42.8353" rx="2.05844" ry="1.77795" fill="#3D3434"/>
<path d="M41.5503 43.9409L40.6823 46.8535C40.5899 47.1636 40.8222 47.4752 41.1458 47.4752H42.8669" stroke="black" stroke-width="0.483567"/>
<path d="M48.6599 34.9206C52.1027 34.4807 54.6245 35.8372 55.455 36.5704C55.9986 37.4503 55.3795 37.5481 55.002 37.487C54.9265 37.4259 54.4584 37.3037 53.1899 37.3037C51.9215 37.3037 48.8864 37.0592 47.5274 36.937C46.4704 36.4482 45.2171 35.3606 48.6599 34.9206Z" fill="#454040" stroke="black" stroke-width="0.483567"/>
<path d="M33.3449 34.9206C29.9021 34.4807 27.3804 35.8372 26.5499 36.5704C26.0063 37.4503 26.6254 37.5481 27.0029 37.487C27.0784 37.4259 27.5465 37.3037 28.8149 37.3037C30.0833 37.3037 33.1184 37.0592 34.4774 36.937C35.5344 36.4482 36.7877 35.3606 33.3449 34.9206Z" fill="#454040" stroke="black" stroke-width="0.483567"/>
<path d="M33.541 99.063H50.0085" stroke="black" stroke-width="0.483567"/>
<path d="M32.5742 49.5465C29.6843 50.8873 27.9808 49.5465 27.4902 48.7085C27.4902 50.5042 31.7714 51.821 33.5107 51.2225C34.902 50.7436 39.4419 51.422 41.5379 51.821C46.4613 50.9112 48.807 50.9232 49.3645 51.0429C53.271 51.9048 55.4804 50.2049 55.7193 48.7085C55.4518 50.3845 52.8875 50.2448 51.6388 49.9655C47.6787 47.9543 43.2548 48.2895 41.5379 48.7085C39.7541 48.4291 35.464 48.2057 32.5742 49.5465Z" fill="#645A5A" stroke="black" stroke-width="0.490295"/>
</svg>
