<svg width="118" height="195" viewBox="0 0 118 195" fill="none" xmlns="http://www.w3.org/2000/svg">
<path d="M17.4908 46.5766H98.5094C100.17 46.5766 101.246 46.5789 102.061 46.6511C102.843 46.7203 103.125 46.8376 103.262 46.9151C103.702 47.165 104.06 47.5383 104.292 47.989C104.364 48.1287 104.469 48.4154 104.506 49.2001C104.544 50.0173 104.501 51.0921 104.432 52.7513L98.9679 183.895C98.9037 185.436 98.8602 186.427 98.7642 187.179C98.6726 187.897 98.5573 188.16 98.4793 188.293C98.2361 188.707 97.8831 189.046 97.4593 189.271C97.3233 189.344 97.0553 189.448 96.3345 189.51C95.5794 189.574 94.5867 189.577 93.045 189.577H22.9552C21.4135 189.577 20.4208 189.574 19.6657 189.51C18.9449 189.448 18.6769 189.344 18.5409 189.271C18.1171 189.046 17.764 188.707 17.5209 188.293C17.4429 188.16 17.3276 187.897 17.236 187.179C17.14 186.427 17.0965 185.436 17.0323 183.895L11.568 52.7513C11.4988 51.0921 11.4564 50.0173 11.4946 49.2001C11.5312 48.4154 11.6366 48.1287 11.7083 47.989C11.9397 47.5383 12.2978 47.165 12.7385 46.9151C12.8751 46.8376 13.1571 46.7203 13.9396 46.6511C14.7545 46.5789 15.8301 46.5766 17.4908 46.5766Z" fill="white" stroke="#382622" stroke-width="5.2"/>
<rect x="55.4001" y="2.37659" width="10.4" height="46.8" rx="5.2" fill="#382622"/>
<rect x="55.4766" y="10.6401" width="10.4" height="31.9618" rx="5.2" transform="rotate(-90 55.4766 10.6401)" fill="#382622"/>
<path d="M4.81484 37.1322C5.52264 35.0088 7.50976 33.5765 9.748 33.5765H106.252C108.49 33.5765 110.477 35.0088 111.185 37.1322L112.919 42.3322C114.041 45.6993 111.535 49.1765 107.985 49.1765H8.01467C4.46537 49.1765 1.95912 45.6993 3.08151 42.3322L4.81484 37.1322Z" fill="#382622"/>
<g filter="url(#filter0_di_93_4205)">
<path fill-rule="evenodd" clip-rule="evenodd" d="M45 124.8H64.7809C67.5407 124.8 69.8198 122.644 69.9729 119.888L71 101.4H45V124.8Z" fill="#E7C8AA"/>
<path d="M21.7384 62.5347C21.6626 59.611 24.012 57.2 26.9367 57.2H89.0635C91.9882 57.2 94.3376 59.611 94.2618 62.5347L91.7038 161.2H24.2964L21.7384 62.5347Z" fill="#FFE7CB"/>
<path d="M24.2002 158.6H91.8002L90.7731 177.088C90.62 179.844 88.3409 182 85.5811 182H30.4193C27.6595 182 25.3804 179.844 25.2273 177.088L24.2002 158.6Z" fill="#FFDF8E"/>
<path fill-rule="evenodd" clip-rule="evenodd" d="M65.8 158.6H91.7038L94.2581 62.5382C94.3359 59.6132 91.986 57.2 89.0599 57.2H65.8V158.6Z" fill="#E7C8AA"/>
<path fill-rule="evenodd" clip-rule="evenodd" d="M65.8 182H85.5809C88.3407 182 90.6198 179.844 90.7729 177.088L91.8001 158.6H65.8V182Z" fill="#FFEAB4" style="mix-blend-mode:multiply"/>
</g>
<rect x="26.8" y="164.319" width="14.2937" height="14.2937" rx="2.6" transform="rotate(-24.5661 26.8 164.319)" fill="white" fill-opacity="0.7"/>
<rect x="52.3687" y="160.976" width="14.2937" height="14.2937" rx="2.6" transform="rotate(19.4886 52.3687 160.976)" fill="white" fill-opacity="0.7"/>
<rect x="68.4001" y="165.98" width="14.2937" height="14.2937" rx="2.6" transform="rotate(-32.1391 68.4001 165.98)" fill="white" fill-opacity="0.66"/>
<rect x="37.2" y="146.119" width="14.2937" height="14.2937" rx="2.6" transform="rotate(-24.5661 37.2 146.119)" fill="white" fill-opacity="0.7"/>
<rect x="62.7688" y="142.776" width="14.2937" height="14.2937" rx="2.6" transform="rotate(19.4886 62.7688 142.776)" fill="white" fill-opacity="0.7"/>
<rect x="26.8" y="73.0822" width="7.8" height="60.5741" rx="3.9" transform="rotate(-2.07338 26.8 73.0822)" fill="white"/>
<circle cx="30.7" cy="66.3" r="3.9" fill="white"/>
<defs>
<filter id="filter0_di_93_4205" x="17.7366" y="57.2" width="80.5271" height="132.8" filterUnits="userSpaceOnUse" color-interpolation-filters="sRGB">
<feFlood flood-opacity="0" result="BackgroundImageFix"/>
<feColorMatrix in="SourceAlpha" type="matrix" values="0 0 0 0 0 0 0 0 0 0 0 0 0 0 0 0 0 0 127 0" result="hardAlpha"/>
<feOffset dy="4"/>
<feGaussianBlur stdDeviation="2"/>
<feComposite in2="hardAlpha" operator="out"/>
<feColorMatrix type="matrix" values="0 0 0 0 0 0 0 0 0 0 0 0 0 0 0 0 0 0 0.25 0"/>
<feBlend mode="normal" in2="BackgroundImageFix" result="effect1_dropShadow_93_4205"/>
<feBlend mode="normal" in="SourceGraphic" in2="effect1_dropShadow_93_4205" result="shape"/>
<feColorMatrix in="SourceAlpha" type="matrix" values="0 0 0 0 0 0 0 0 0 0 0 0 0 0 0 0 0 0 127 0" result="hardAlpha"/>
<feOffset dy="4"/>
<feGaussianBlur stdDeviation="2"/>
<feComposite in2="hardAlpha" operator="arithmetic" k2="-1" k3="1"/>
<feColorMatrix type="matrix" values="0 0 0 0 0 0 0 0 0 0 0 0 0 0 0 0 0 0 0.25 0"/>
<feBlend mode="normal" in2="shape" result="effect2_innerShadow_93_4205"/>
</filter>
</defs>
</svg>
