<svg width="104" height="108" viewBox="0 0 104 108" fill="none" xmlns="http://www.w3.org/2000/svg">
<ellipse cx="52" cy="53.8363" rx="52" ry="53.8363" fill="#F4D150"/>
<mask id="mask0_362_15692" style="mask-type:alpha" maskUnits="userSpaceOnUse" x="0" y="0" width="104" height="108">
<ellipse cx="52" cy="53.8363" rx="52" ry="53.8363" fill="#FFEDEF"/>
</mask>
<g mask="url(#mask0_362_15692)">
<path d="M66.3762 98.7852C62.473 93.3642 59.4191 82.8835 59.0577 77.6431L40.4906 69.647L32.7656 98.7852H66.3762Z" fill="#F9C9B6" stroke="black" stroke-width="1.08421"/>
<mask id="mask1_362_15692" style="mask-type:alpha" maskUnits="userSpaceOnUse" x="32" y="69" width="35" height="33">
<path d="M66.3694 101.489C62.467 96.0694 59.4138 82.8808 59.0524 77.6415L40.4891 69.647L32.7656 101.489H66.3694Z" fill="#F9C9B6"/>
</mask>
<g mask="url(#mask1_362_15692)">
<g style="mix-blend-mode:multiply">
<ellipse cx="58.246" cy="69.1049" rx="15.9921" ry="14.6368" fill="black"/>
</g>
</g>
<mask id="path-6-inside-1_362_15692" fill="white">
<path fill-rule="evenodd" clip-rule="evenodd" d="M33.5759 63.1996C36.45 74.2867 47.6896 81.0727 58.8753 78.3928C70.0609 75.7128 77.005 64.5701 74.5427 53.3843L74.5481 53.383L69.9426 34.1605L69.9393 34.1613C67.1698 22.9275 55.8461 16.02 44.5772 18.7199C33.2625 21.4308 26.2878 32.8007 28.9987 44.1154C29.026 44.2292 29.0541 44.3426 29.0831 44.4555L33.4154 62.5374C33.4362 62.6297 33.4577 62.722 33.4798 62.8143C33.5019 62.9066 33.5246 62.9986 33.5479 63.0903L33.5741 63.2L33.5759 63.1996Z"/>
</mask>
<path fill-rule="evenodd" clip-rule="evenodd" d="M33.5759 63.1996C36.45 74.2867 47.6896 81.0727 58.8753 78.3928C70.0609 75.7128 77.005 64.5701 74.5427 53.3843L74.5481 53.383L69.9426 34.1605L69.9393 34.1613C67.1698 22.9275 55.8461 16.02 44.5772 18.7199C33.2625 21.4308 26.2878 32.8007 28.9987 44.1154C29.026 44.2292 29.0541 44.3426 29.0831 44.4555L33.4154 62.5374C33.4362 62.6297 33.4577 62.722 33.4798 62.8143C33.5019 62.9066 33.5246 62.9986 33.5479 63.0903L33.5741 63.2L33.5759 63.1996Z" fill="#F9C9B6"/>
<path d="M33.5759 63.1996L34.6254 62.9276L34.3585 61.8978L33.3238 62.1451L33.5759 63.1996ZM58.8753 78.3928L58.6227 77.3384L58.6227 77.3384L58.8753 78.3928ZM74.5427 53.3843L74.2899 52.33L73.2551 52.5781L73.4839 53.6174L74.5427 53.3843ZM74.5481 53.383L74.8009 54.4374L75.8551 54.1846L75.6025 53.1304L74.5481 53.383ZM69.9426 34.1605L70.9969 33.9079L70.7444 32.8538L69.6902 33.1061L69.9426 34.1605ZM69.9393 34.1613L68.8866 34.4208L69.1444 35.4664L70.1917 35.2157L69.9393 34.1613ZM44.5772 18.7199L44.8298 19.7743L44.8298 19.7743L44.5772 18.7199ZM28.9987 44.1154L27.9443 44.368L27.9443 44.368L28.9987 44.1154ZM29.0831 44.4555L30.1375 44.2029L30.1354 44.1943L30.1332 44.1857L29.0831 44.4555ZM33.4154 62.5374L34.473 62.2987L34.4714 62.2917L34.4698 62.2848L33.4154 62.5374ZM33.5479 63.0903L34.6022 62.8377L34.6006 62.8307L34.5988 62.8238L33.5479 63.0903ZM33.5741 63.2L32.5198 63.4527L32.7723 64.5065L33.8262 64.2545L33.5741 63.2ZM32.5264 63.4717C35.5485 75.1298 47.3665 82.2651 59.1279 79.4471L58.6227 77.3384C48.0128 79.8804 37.3515 73.4437 34.6254 62.9276L32.5264 63.4717ZM59.1279 79.4471C70.8893 76.6292 78.1907 64.9131 75.6016 53.1512L73.4839 53.6174C75.8194 64.2271 69.2325 74.7964 58.6227 77.3384L59.1279 79.4471ZM74.2953 52.3287L74.2899 52.33L74.7955 54.4387L74.8009 54.4374L74.2953 52.3287ZM68.8882 34.4132L73.4937 53.6356L75.6025 53.1304L70.9969 33.9079L68.8882 34.4132ZM70.1917 35.2157L70.195 35.215L69.6902 33.1061L69.687 33.1069L70.1917 35.2157ZM70.992 33.9018C68.0799 22.0896 56.1734 14.8266 44.3246 17.6655L44.8298 19.7743C55.5187 17.2133 66.2597 23.7653 68.8866 34.4208L70.992 33.9018ZM44.3246 17.6655C32.4276 20.5159 25.0939 32.471 27.9443 44.368L30.0531 43.8627C27.4817 33.1304 34.0975 22.3456 44.8298 19.7743L44.3246 17.6655ZM27.9443 44.368C27.973 44.4875 28.0025 44.6066 28.033 44.7253L30.1332 44.1857C30.1057 44.0785 30.079 43.9708 30.0531 43.8627L27.9443 44.368ZM34.4698 62.2848L30.1375 44.2029L28.0288 44.7081L32.361 62.79L34.4698 62.2848ZM32.3578 62.776C32.3796 62.873 32.4022 62.97 32.4254 63.0669L34.5342 62.5617C34.5132 62.474 34.4928 62.3864 34.473 62.2987L32.3578 62.776ZM32.4254 63.0669C32.4487 63.1639 32.4725 63.2605 32.4969 63.3569L34.5988 62.8238C34.5767 62.7367 34.5552 62.6493 34.5342 62.5617L32.4254 63.0669ZM34.6285 62.9474L34.6022 62.8377L32.4935 63.3429L32.5198 63.4527L34.6285 62.9474ZM33.3238 62.1451L33.3221 62.1455L33.8262 64.2545L33.828 64.2541L33.3238 62.1451Z" fill="black" mask="url(#path-6-inside-1_362_15692)"/>
<rect x="47.4365" y="62.2551" width="18.9737" height="6.50526" rx="1.08421" transform="rotate(-4 47.4365 62.2551)" fill="black"/>
<path fill-rule="evenodd" clip-rule="evenodd" d="M64.6687 61.0508L49.1328 62.1372L49.7702 64.5637C49.8871 65.0087 50.3011 65.3092 50.7593 65.2836C50.3025 65.3225 49.9349 65.6774 49.8811 66.1341L49.5875 68.6266L65.1237 67.5402L64.486 65.1128C64.3691 64.6677 63.9551 64.3673 63.4969 64.3929C63.9537 64.354 64.3214 63.9991 64.3752 63.5424L64.6687 61.0508Z" fill="white"/>
<path d="M67.2697 66.1131L66.9936 62.1639C66.9237 61.1648 65.9807 60.4686 65.0092 60.6771C63.127 61.0812 59.5281 61.7978 56.9273 61.9796C54.3264 62.1615 50.6628 61.9528 48.7427 61.8146C47.7517 61.7433 46.9147 62.564 46.9846 63.5631L47.2607 67.5122C47.3306 68.5113 48.2736 69.2075 49.2451 68.999C51.1273 68.5949 54.7262 67.8784 57.327 67.6965C59.9279 67.5146 63.5915 67.7234 65.5116 67.8615C66.5026 67.9328 67.3396 67.1121 67.2697 66.1131Z" stroke="black" stroke-width="1.08421"/>
<path d="M59.6777 37.3365C61.2137 36.6137 64.8277 35.9541 66.9962 39.0984" stroke="black" stroke-width="1.08421" stroke-linecap="round"/>
<path d="M39.2347 44.1961C39.7959 42.5941 41.859 39.5543 45.6214 40.212" stroke="black" stroke-width="1.08421" stroke-linecap="round"/>
<ellipse cx="2.46439" cy="2.83217" rx="2.46439" ry="2.83217" transform="matrix(0.992518 -0.122102 0.114024 0.993478 43.29 45.009)" fill="black"/>
<ellipse cx="2.46422" cy="2.83235" rx="2.46422" ry="2.83235" transform="matrix(0.993581 -0.113124 0.105626 0.994406 60.8369 42.1494)" fill="black"/>
<path d="M55.5667 47.9402C56.0772 51.7004 58.3558 54.3817 58.3558 54.3817C58.3558 54.3817 57.6358 56.1298 54.8806 55.9829" stroke="black" stroke-width="1.08421"/>
<path d="M49.7033 13.5245L49.724 13.5267L49.7448 13.5273C56.9736 13.7399 62.593 16.6167 66.5698 20.1275C70.3797 23.491 72.6547 27.4117 73.3967 30.0839C72.2962 30.712 70.4111 31.2525 68.0068 31.6958C65.3842 32.1793 62.2353 32.5324 59.0223 32.7841C52.5966 33.2875 45.9603 33.3819 42.8607 33.3145L41.2146 33.2787L42.5174 34.2854C43.1944 34.8086 44.0955 35.1726 45.0486 35.4287C46.0086 35.6865 47.0596 35.8447 48.0658 35.9347C49.1023 36.0273 50.1129 36.0491 50.95 36.0277C48.0804 38.24 44.428 39.9411 40.8266 41.202C36.667 42.6583 32.6218 43.5114 30.0308 43.8911L29.4483 43.9765L29.5813 44.55C30.4887 48.461 32.1566 55.2975 33.2752 59.8828C33.7715 61.9171 34.1597 63.5084 34.3255 64.2044C34.6194 65.4387 35.5447 67.1982 36.6009 68.8199C37.5747 70.3153 38.7109 71.7714 39.6697 72.6676L37.5452 81.2907H29.5326C31.7926 77.8448 32.2696 73.8631 31.8088 69.6401C31.31 65.0691 29.705 60.152 28.0132 55.229C27.8467 54.7443 27.6793 54.2596 27.512 53.7751C25.9713 49.3138 24.435 44.8648 23.6026 40.6009C22.6807 35.878 22.6396 31.458 24.3704 27.5718C27.1728 21.2796 32.1406 17.6258 37.1097 15.6122C42.0904 13.5939 47.0355 13.2402 49.7033 13.5245Z" fill="white" stroke="black" stroke-width="1.08421"/>
<path d="M35.7567 51.5385V51.2351L35.4981 51.0764C34.486 50.4554 33.2553 50.1156 31.9836 50.1156C30.4548 50.1156 29.0235 50.5893 28.004 51.5508C26.973 52.5232 26.4168 53.9449 26.5645 55.7172C26.7084 57.4443 27.2882 58.7154 28.2498 59.56C28.1708 59.8308 28.1475 60.1228 28.1841 60.4301C28.2896 61.3159 28.7375 61.9543 29.4296 62.3476C30.0893 62.7225 30.9336 62.855 31.833 62.855C33.3181 62.855 34.6204 62.0562 35.6119 60.9878L35.7567 60.8319V60.6191V51.5385Z" stroke="black" stroke-width="1.08421"/>
<path fill-rule="evenodd" clip-rule="evenodd" d="M37.3762 55.7962C37.395 55.6218 37.4047 55.4448 37.4047 55.2656C37.4047 52.4962 34.8279 50.6577 31.9836 50.6577C29.1394 50.6577 26.8337 52.4196 27.1047 55.6722C27.2555 57.4821 27.9032 58.6733 28.9074 59.3902C28.7482 59.6676 28.6786 59.9934 28.7228 60.3652C28.8934 61.7968 30.1155 62.3122 31.8334 62.3122C34.8459 62.3122 37.2289 58.4988 37.3762 55.7962Z" fill="#F9C9B6"/>
<path d="M33.1825 52.9609C32.0983 52.464 29.7131 52.202 28.8457 55.1293" stroke="black" stroke-width="1.08421"/>
<path d="M30.334 53.0969C30.9213 53.5939 32.0416 55.1298 31.8248 57.2982" stroke="black" stroke-width="1.08421"/>
<path d="M88.6228 108.547H13.7648C18.231 100.2 24.5835 94.8948 34.8846 92.4632C39.2661 91.4289 44.3707 90.913 50.3601 90.913C52.9463 90.913 54.9589 91.3214 56.8694 91.8606C57.5767 92.0602 58.2881 92.284 59.0159 92.513C60.2211 92.8921 61.4716 93.2855 62.8241 93.6071L62.8633 93.6164L62.9034 93.6198C75.5463 94.6994 83.1225 100.523 88.6228 108.547Z" fill="#77311D" stroke="black" stroke-width="1.08421"/>
<path d="M31.6759 93.2186L34.2767 87.4537C34.3115 87.3765 34.4009 87.34 34.4804 87.3693C44.9261 91.2201 54.423 90.9462 63.2208 88.3971C63.2869 88.3779 63.3581 88.4028 63.3979 88.4592L67.3475 94.051C67.4068 94.1349 67.3764 94.2508 67.2818 94.2901C58.0827 98.1081 40.5895 97.4657 31.7528 93.4297C31.6724 93.3929 31.6396 93.2991 31.6759 93.2186Z" fill="white" stroke="black" stroke-width="1.08421"/>
</g>
</svg>
